%TF.GenerationSoftware,KiCad,Pcbnew,9.0.6*%
%TF.CreationDate,2025-12-05T18:50:53-10:00*%
%TF.ProjectId,PCB,5043422e-6b69-4636-9164-5f7063625858,rev?*%
%TF.SameCoordinates,Original*%
%TF.FileFunction,Copper,L2,Bot*%
%TF.FilePolarity,Positive*%
%FSLAX46Y46*%
G04 Gerber Fmt 4.6, Leading zero omitted, Abs format (unit mm)*
G04 Created by KiCad (PCBNEW 9.0.6) date 2025-12-05 18:50:53*
%MOMM*%
%LPD*%
G01*
G04 APERTURE LIST*
G04 Aperture macros list*
%AMRoundRect*
0 Rectangle with rounded corners*
0 $1 Rounding radius*
0 $2 $3 $4 $5 $6 $7 $8 $9 X,Y pos of 4 corners*
0 Add a 4 corners polygon primitive as box body*
4,1,4,$2,$3,$4,$5,$6,$7,$8,$9,$2,$3,0*
0 Add four circle primitives for the rounded corners*
1,1,$1+$1,$2,$3*
1,1,$1+$1,$4,$5*
1,1,$1+$1,$6,$7*
1,1,$1+$1,$8,$9*
0 Add four rect primitives between the rounded corners*
20,1,$1+$1,$2,$3,$4,$5,0*
20,1,$1+$1,$4,$5,$6,$7,0*
20,1,$1+$1,$6,$7,$8,$9,0*
20,1,$1+$1,$8,$9,$2,$3,0*%
G04 Aperture macros list end*
%TA.AperFunction,ComponentPad*%
%ADD10RoundRect,0.250000X0.350000X0.350000X-0.350000X0.350000X-0.350000X-0.350000X0.350000X-0.350000X0*%
%TD*%
%TA.AperFunction,ComponentPad*%
%ADD11C,1.200000*%
%TD*%
%TA.AperFunction,ComponentPad*%
%ADD12C,2.000000*%
%TD*%
%TA.AperFunction,ComponentPad*%
%ADD13C,1.500000*%
%TD*%
%TA.AperFunction,ViaPad*%
%ADD14C,0.600000*%
%TD*%
%TA.AperFunction,Conductor*%
%ADD15C,0.300000*%
%TD*%
%TA.AperFunction,Conductor*%
%ADD16C,0.500000*%
%TD*%
%TA.AperFunction,Conductor*%
%ADD17C,0.200000*%
%TD*%
%TA.AperFunction,Conductor*%
%ADD18C,0.770000*%
%TD*%
G04 APERTURE END LIST*
D10*
%TO.P,C11,1*%
%TO.N,Net-(U1-VCCCI)*%
X69250000Y-91000000D03*
D11*
%TO.P,C11,2*%
%TO.N,GND*%
X67750000Y-91000000D03*
%TD*%
D10*
%TO.P,C12,1*%
%TO.N,Net-(U1-VCOM)*%
X75250000Y-91000000D03*
D11*
%TO.P,C12,2*%
%TO.N,GND*%
X73750000Y-91000000D03*
%TD*%
D10*
%TO.P,C7,1*%
%TO.N,Net-(U1-VOUTL)*%
X60500000Y-91600000D03*
D11*
%TO.P,C7,2*%
%TO.N,/L_Out*%
X59000000Y-91600000D03*
%TD*%
D10*
%TO.P,C8,1*%
%TO.N,Net-(U1-VOUTR)*%
X53800000Y-91550000D03*
D11*
%TO.P,C8,2*%
%TO.N,/R_Out*%
X52300000Y-91550000D03*
%TD*%
D12*
%TO.P,SW1,1,1*%
%TO.N,+5V*%
X79250000Y-52500000D03*
X85750000Y-52500000D03*
%TO.P,SW1,2,2*%
%TO.N,/Mute*%
X79250000Y-57000000D03*
X85750000Y-57000000D03*
%TD*%
D13*
%TO.P,Y2,1,1*%
%TO.N,Net-(IC1-XIN)*%
X73400000Y-52360000D03*
%TO.P,Y2,2,2*%
%TO.N,Net-(IC1-XOUT)*%
X73400000Y-57240000D03*
%TD*%
%TO.P,Y1,1,1*%
%TO.N,Net-(U1-XTI)*%
X83810000Y-99025000D03*
%TO.P,Y1,2,2*%
%TO.N,Net-(U1-XTO)*%
X88690000Y-99025000D03*
%TD*%
D14*
%TO.N,GND*%
X62206918Y-50000000D03*
X66000000Y-83000000D03*
X61000000Y-72000000D03*
X62500000Y-54250000D03*
X59000000Y-47500000D03*
X59000000Y-67500000D03*
X85500000Y-68000000D03*
X87875000Y-90350000D03*
X59000000Y-52500000D03*
X62006918Y-79999999D03*
X59000000Y-82500000D03*
X59000000Y-62500000D03*
X59000000Y-77500000D03*
X82424502Y-70000000D03*
X85500000Y-72000000D03*
X62006919Y-65000000D03*
%TO.N,+5V*%
X84074032Y-67299000D03*
X69200000Y-66600000D03*
X60593838Y-67393838D03*
%TO.N,Net-(U1-VOUTL)*%
X84850000Y-91650000D03*
%TO.N,Net-(U1-VOUTR)*%
X85600000Y-94000000D03*
%TO.N,Net-(U1-XTI)*%
X87250000Y-94250000D03*
%TO.N,Net-(U1-XTO)*%
X84582500Y-94917500D03*
X80500000Y-95750000D03*
%TO.N,/D3+*%
X63983847Y-69263847D03*
X66450000Y-68420000D03*
%TO.N,/D_In+*%
X78090000Y-69840000D03*
X80060000Y-70960000D03*
%TO.N,/D2-*%
X66200000Y-64600000D03*
X64250000Y-65750000D03*
%TO.N,/D1_Mid+*%
X52625000Y-50909075D03*
X52650000Y-49750000D03*
%TO.N,/D2_Mid+*%
X52715156Y-64672501D03*
X52745704Y-65796227D03*
%TO.N,/D3_Mid+*%
X52500000Y-80875000D03*
X52500000Y-79750000D03*
%TO.N,/Mute*%
X81515000Y-86015000D03*
%TO.N,/D_In_Mid+*%
X91690000Y-70200000D03*
X91690000Y-69000000D03*
%TD*%
D15*
%TO.N,+5V*%
X85750000Y-52500000D02*
X87101000Y-53851000D01*
X87101000Y-64272032D02*
X84074032Y-67299000D01*
D16*
X61387676Y-66600000D02*
X60593838Y-67393838D01*
D15*
X87101000Y-53851000D02*
X87101000Y-64272032D01*
D16*
X69200000Y-66600000D02*
X61387676Y-66600000D01*
D17*
%TO.N,Net-(U1-VOUTL)*%
X60500000Y-91600000D02*
X61100000Y-92200000D01*
X61100000Y-92200000D02*
X84300000Y-92200000D01*
X84300000Y-92200000D02*
X84850000Y-91650000D01*
%TO.N,Net-(U1-VOUTR)*%
X56250000Y-94000000D02*
X53800000Y-91550000D01*
X85600000Y-94000000D02*
X56250000Y-94000000D01*
%TO.N,Net-(U1-XTI)*%
X83810000Y-97690000D02*
X87250000Y-94250000D01*
X83810000Y-99025000D02*
X83810000Y-97690000D01*
%TO.N,Net-(U1-XTO)*%
X84582500Y-94917500D02*
X83750000Y-95750000D01*
X83750000Y-95750000D02*
X80500000Y-95750000D01*
D18*
%TO.N,/D3+*%
X65606153Y-69263847D02*
X66450000Y-68420000D01*
X63983847Y-69263847D02*
X65606153Y-69263847D01*
%TO.N,/D_In+*%
X78090000Y-69840000D02*
X78940000Y-69840000D01*
X78940000Y-69840000D02*
X80060000Y-70960000D01*
%TO.N,/D2-*%
X65050000Y-65750000D02*
X66200000Y-64600000D01*
X64250000Y-65750000D02*
X65050000Y-65750000D01*
D17*
%TO.N,/D1_Mid+*%
X52625000Y-49775000D02*
X52650000Y-49750000D01*
X52625000Y-50868150D02*
X52625000Y-49775000D01*
X52665925Y-50909075D02*
X52625000Y-50868150D01*
X52625000Y-50909075D02*
X52665925Y-50909075D01*
%TO.N,/D2_Mid+*%
X52715156Y-65765679D02*
X52715156Y-64672501D01*
X52745704Y-65796227D02*
X52715156Y-65765679D01*
%TO.N,/D3_Mid+*%
X52500000Y-80875000D02*
X52500000Y-79750000D01*
%TO.N,/Mute*%
X81515000Y-59265000D02*
X79250000Y-57000000D01*
X81515000Y-86015000D02*
X81515000Y-59265000D01*
%TO.N,/D_In_Mid+*%
X91690000Y-69000000D02*
X91690000Y-70200000D01*
%TD*%
%TA.AperFunction,Conductor*%
%TO.N,GND*%
G36*
X96004043Y-42450765D02*
G01*
X96226790Y-42465364D01*
X96242848Y-42467479D01*
X96428875Y-42504482D01*
X96457771Y-42510230D01*
X96473438Y-42514428D01*
X96626569Y-42566409D01*
X96680944Y-42584867D01*
X96695921Y-42591070D01*
X96886791Y-42685196D01*
X96892460Y-42687992D01*
X96906508Y-42696102D01*
X97088712Y-42817848D01*
X97101573Y-42827716D01*
X97206495Y-42919730D01*
X97266328Y-42972202D01*
X97277797Y-42983671D01*
X97388160Y-43109517D01*
X97422280Y-43148423D01*
X97432154Y-43161291D01*
X97553897Y-43343492D01*
X97562007Y-43357539D01*
X97658926Y-43554071D01*
X97665133Y-43569057D01*
X97735571Y-43776561D01*
X97739769Y-43792228D01*
X97782518Y-44007140D01*
X97784636Y-44023221D01*
X97799235Y-44245956D01*
X97799500Y-44254066D01*
X97799500Y-103245933D01*
X97799235Y-103254043D01*
X97784636Y-103476778D01*
X97782518Y-103492859D01*
X97739769Y-103707771D01*
X97735571Y-103723438D01*
X97665133Y-103930942D01*
X97658926Y-103945928D01*
X97562007Y-104142460D01*
X97553897Y-104156507D01*
X97432154Y-104338708D01*
X97422280Y-104351576D01*
X97277797Y-104516328D01*
X97266328Y-104527797D01*
X97101576Y-104672280D01*
X97088708Y-104682154D01*
X96906507Y-104803897D01*
X96892460Y-104812007D01*
X96695928Y-104908926D01*
X96680942Y-104915133D01*
X96473438Y-104985571D01*
X96457771Y-104989769D01*
X96242859Y-105032518D01*
X96226778Y-105034636D01*
X96004043Y-105049235D01*
X95995933Y-105049500D01*
X48504067Y-105049500D01*
X48495957Y-105049235D01*
X48273221Y-105034636D01*
X48257140Y-105032518D01*
X48042228Y-104989769D01*
X48026561Y-104985571D01*
X47819057Y-104915133D01*
X47804071Y-104908926D01*
X47607539Y-104812007D01*
X47593492Y-104803897D01*
X47411291Y-104682154D01*
X47398423Y-104672280D01*
X47233671Y-104527797D01*
X47222202Y-104516328D01*
X47169730Y-104456495D01*
X47077716Y-104351573D01*
X47067845Y-104338708D01*
X46946102Y-104156507D01*
X46937992Y-104142460D01*
X46935196Y-104136791D01*
X46841070Y-103945921D01*
X46834866Y-103930942D01*
X46764428Y-103723438D01*
X46760230Y-103707771D01*
X46748217Y-103647376D01*
X46717479Y-103492848D01*
X46715364Y-103476790D01*
X46700765Y-103254043D01*
X46700500Y-103245933D01*
X46700500Y-101135837D01*
X62799500Y-101135837D01*
X62799500Y-101364162D01*
X62835215Y-101589660D01*
X62905770Y-101806803D01*
X63009421Y-102010228D01*
X63143621Y-102194937D01*
X63305063Y-102356379D01*
X63489772Y-102490579D01*
X63585884Y-102539550D01*
X63693196Y-102594229D01*
X63693198Y-102594229D01*
X63693201Y-102594231D01*
X63809592Y-102632049D01*
X63910339Y-102664784D01*
X64135838Y-102700500D01*
X64135843Y-102700500D01*
X64364162Y-102700500D01*
X64589660Y-102664784D01*
X64806799Y-102594231D01*
X65010228Y-102490579D01*
X65194937Y-102356379D01*
X65356379Y-102194937D01*
X65490579Y-102010228D01*
X65594231Y-101806799D01*
X65664784Y-101589660D01*
X65700500Y-101364162D01*
X65700500Y-101135837D01*
X92549500Y-101135837D01*
X92549500Y-101364162D01*
X92585215Y-101589660D01*
X92655770Y-101806803D01*
X92759421Y-102010228D01*
X92893621Y-102194937D01*
X93055063Y-102356379D01*
X93239772Y-102490579D01*
X93335884Y-102539550D01*
X93443196Y-102594229D01*
X93443198Y-102594229D01*
X93443201Y-102594231D01*
X93559592Y-102632049D01*
X93660339Y-102664784D01*
X93885838Y-102700500D01*
X93885843Y-102700500D01*
X94114162Y-102700500D01*
X94339660Y-102664784D01*
X94556799Y-102594231D01*
X94760228Y-102490579D01*
X94944937Y-102356379D01*
X95106379Y-102194937D01*
X95240579Y-102010228D01*
X95344231Y-101806799D01*
X95414784Y-101589660D01*
X95450500Y-101364162D01*
X95450500Y-101135837D01*
X95414784Y-100910339D01*
X95344229Y-100693196D01*
X95283513Y-100574035D01*
X95240579Y-100489772D01*
X95106379Y-100305063D01*
X94944937Y-100143621D01*
X94760228Y-100009421D01*
X94556803Y-99905770D01*
X94339660Y-99835215D01*
X94114162Y-99799500D01*
X94114157Y-99799500D01*
X93885843Y-99799500D01*
X93885838Y-99799500D01*
X93660339Y-99835215D01*
X93443196Y-99905770D01*
X93239771Y-100009421D01*
X93055061Y-100143622D01*
X92893622Y-100305061D01*
X92759421Y-100489771D01*
X92655770Y-100693196D01*
X92585215Y-100910339D01*
X92549500Y-101135837D01*
X65700500Y-101135837D01*
X65664784Y-100910339D01*
X65594229Y-100693196D01*
X65533513Y-100574035D01*
X65490579Y-100489772D01*
X65356379Y-100305063D01*
X65194937Y-100143621D01*
X65010228Y-100009421D01*
X64806803Y-99905770D01*
X64589660Y-99835215D01*
X64364162Y-99799500D01*
X64364157Y-99799500D01*
X64135843Y-99799500D01*
X64135838Y-99799500D01*
X63910339Y-99835215D01*
X63693196Y-99905770D01*
X63489771Y-100009421D01*
X63305061Y-100143622D01*
X63143622Y-100305061D01*
X63009421Y-100489771D01*
X62905770Y-100693196D01*
X62835215Y-100910339D01*
X62799500Y-101135837D01*
X46700500Y-101135837D01*
X46700500Y-100496359D01*
X46720185Y-100429320D01*
X46772989Y-100383565D01*
X46842147Y-100373621D01*
X46905703Y-100402646D01*
X46927602Y-100427468D01*
X47025535Y-100574034D01*
X47025538Y-100574038D01*
X47150961Y-100699461D01*
X47150965Y-100699464D01*
X47298446Y-100798009D01*
X47298459Y-100798016D01*
X47421363Y-100848923D01*
X47462334Y-100865894D01*
X47462336Y-100865894D01*
X47462341Y-100865896D01*
X47636304Y-100900499D01*
X47636307Y-100900500D01*
X47636309Y-100900500D01*
X47813693Y-100900500D01*
X47813694Y-100900499D01*
X47871682Y-100888964D01*
X47987658Y-100865896D01*
X47987661Y-100865894D01*
X47987666Y-100865894D01*
X48151547Y-100798013D01*
X48299035Y-100699464D01*
X48424464Y-100574035D01*
X48523013Y-100426547D01*
X48590894Y-100262666D01*
X48602255Y-100205554D01*
X48625499Y-100088695D01*
X48625500Y-100088693D01*
X48625500Y-99911306D01*
X48625499Y-99911304D01*
X53824500Y-99911304D01*
X53824500Y-100088695D01*
X53859103Y-100262658D01*
X53859106Y-100262667D01*
X53926983Y-100426540D01*
X53926990Y-100426553D01*
X54025535Y-100574034D01*
X54025538Y-100574038D01*
X54150961Y-100699461D01*
X54150965Y-100699464D01*
X54298446Y-100798009D01*
X54298459Y-100798016D01*
X54421363Y-100848923D01*
X54462334Y-100865894D01*
X54462336Y-100865894D01*
X54462341Y-100865896D01*
X54636304Y-100900499D01*
X54636307Y-100900500D01*
X54636309Y-100900500D01*
X54813693Y-100900500D01*
X54813694Y-100900499D01*
X54871682Y-100888964D01*
X54987658Y-100865896D01*
X54987661Y-100865894D01*
X54987666Y-100865894D01*
X55151547Y-100798013D01*
X55299035Y-100699464D01*
X55424464Y-100574035D01*
X55523013Y-100426547D01*
X55590894Y-100262666D01*
X55602255Y-100205554D01*
X55625499Y-100088695D01*
X55625500Y-100088693D01*
X55625500Y-99911306D01*
X55625499Y-99911304D01*
X55590896Y-99737341D01*
X55590893Y-99737332D01*
X55523016Y-99573459D01*
X55523009Y-99573446D01*
X55424464Y-99425965D01*
X55424461Y-99425961D01*
X55299038Y-99300538D01*
X55299034Y-99300535D01*
X55151553Y-99201990D01*
X55151540Y-99201983D01*
X54987667Y-99134106D01*
X54987658Y-99134103D01*
X54934568Y-99123543D01*
X82809499Y-99123543D01*
X82847947Y-99316829D01*
X82847950Y-99316839D01*
X82923364Y-99498907D01*
X82923371Y-99498920D01*
X83032860Y-99662781D01*
X83032863Y-99662785D01*
X83172214Y-99802136D01*
X83172218Y-99802139D01*
X83336079Y-99911628D01*
X83336092Y-99911635D01*
X83518160Y-99987049D01*
X83518165Y-99987051D01*
X83518169Y-99987051D01*
X83518170Y-99987052D01*
X83711456Y-100025500D01*
X83711459Y-100025500D01*
X83908543Y-100025500D01*
X84038582Y-99999632D01*
X84101835Y-99987051D01*
X84283914Y-99911632D01*
X84447782Y-99802139D01*
X84587139Y-99662782D01*
X84696632Y-99498914D01*
X84772051Y-99316835D01*
X84784632Y-99253582D01*
X84810500Y-99123543D01*
X87689499Y-99123543D01*
X87727947Y-99316829D01*
X87727950Y-99316839D01*
X87803364Y-99498907D01*
X87803371Y-99498920D01*
X87912860Y-99662781D01*
X87912863Y-99662785D01*
X88052214Y-99802136D01*
X88052218Y-99802139D01*
X88216079Y-99911628D01*
X88216092Y-99911635D01*
X88398160Y-99987049D01*
X88398165Y-99987051D01*
X88398169Y-99987051D01*
X88398170Y-99987052D01*
X88591456Y-100025500D01*
X88591459Y-100025500D01*
X88788543Y-100025500D01*
X88918582Y-99999632D01*
X88981835Y-99987051D01*
X89163914Y-99911632D01*
X89327782Y-99802139D01*
X89467139Y-99662782D01*
X89576632Y-99498914D01*
X89652051Y-99316835D01*
X89664632Y-99253582D01*
X89690500Y-99123543D01*
X89690500Y-98926456D01*
X89652052Y-98733170D01*
X89652051Y-98733169D01*
X89652051Y-98733165D01*
X89652049Y-98733160D01*
X89576635Y-98551092D01*
X89576628Y-98551079D01*
X89467139Y-98387218D01*
X89467136Y-98387214D01*
X89327785Y-98247863D01*
X89327781Y-98247860D01*
X89163920Y-98138371D01*
X89163907Y-98138364D01*
X88981839Y-98062950D01*
X88981829Y-98062947D01*
X88788543Y-98024500D01*
X88788541Y-98024500D01*
X88591459Y-98024500D01*
X88591457Y-98024500D01*
X88398170Y-98062947D01*
X88398160Y-98062950D01*
X88216092Y-98138364D01*
X88216079Y-98138371D01*
X88052218Y-98247860D01*
X88052214Y-98247863D01*
X87912863Y-98387214D01*
X87912860Y-98387218D01*
X87803371Y-98551079D01*
X87803364Y-98551092D01*
X87727950Y-98733160D01*
X87727947Y-98733170D01*
X87689500Y-98926456D01*
X87689500Y-98926459D01*
X87689500Y-99123541D01*
X87689500Y-99123543D01*
X87689499Y-99123543D01*
X84810500Y-99123543D01*
X84810500Y-98926456D01*
X84772052Y-98733170D01*
X84772051Y-98733169D01*
X84772051Y-98733165D01*
X84772049Y-98733160D01*
X84696635Y-98551092D01*
X84696628Y-98551079D01*
X84587139Y-98387218D01*
X84587136Y-98387214D01*
X84447785Y-98247863D01*
X84447781Y-98247860D01*
X84283920Y-98138371D01*
X84283905Y-98138363D01*
X84237046Y-98118953D01*
X84221482Y-98106410D01*
X84203297Y-98098106D01*
X84194832Y-98084935D01*
X84182643Y-98075112D01*
X84176330Y-98056144D01*
X84165523Y-98039328D01*
X84161559Y-98011764D01*
X84160579Y-98008817D01*
X84160500Y-98004393D01*
X84160500Y-97886544D01*
X84180185Y-97819505D01*
X84196819Y-97798863D01*
X87158863Y-94836819D01*
X87220186Y-94803334D01*
X87246544Y-94800500D01*
X87322472Y-94800500D01*
X87322475Y-94800500D01*
X87462485Y-94762984D01*
X87588015Y-94690509D01*
X87690509Y-94588015D01*
X87762984Y-94462485D01*
X87800500Y-94322475D01*
X87800500Y-94177525D01*
X87762984Y-94037515D01*
X87690509Y-93911985D01*
X87588015Y-93809491D01*
X87588013Y-93809490D01*
X87588011Y-93809488D01*
X87462488Y-93737017D01*
X87462489Y-93737017D01*
X87451006Y-93733940D01*
X87322475Y-93699500D01*
X87177525Y-93699500D01*
X87048993Y-93733940D01*
X87037511Y-93737017D01*
X86911988Y-93809488D01*
X86911982Y-93809493D01*
X86809493Y-93911982D01*
X86809488Y-93911988D01*
X86737017Y-94037511D01*
X86737016Y-94037515D01*
X86699500Y-94177525D01*
X86699500Y-94177527D01*
X86699500Y-94253456D01*
X86679815Y-94320495D01*
X86663181Y-94341137D01*
X83529531Y-97474786D01*
X83529527Y-97474791D01*
X83483387Y-97554709D01*
X83483386Y-97554712D01*
X83459500Y-97643856D01*
X83459500Y-98004393D01*
X83439815Y-98071432D01*
X83387011Y-98117187D01*
X83382954Y-98118953D01*
X83336094Y-98138363D01*
X83336079Y-98138371D01*
X83172218Y-98247860D01*
X83172214Y-98247863D01*
X83032863Y-98387214D01*
X83032860Y-98387218D01*
X82923371Y-98551079D01*
X82923364Y-98551092D01*
X82847950Y-98733160D01*
X82847947Y-98733170D01*
X82809500Y-98926456D01*
X82809500Y-98926459D01*
X82809500Y-99123541D01*
X82809500Y-99123543D01*
X82809499Y-99123543D01*
X54934568Y-99123543D01*
X54813694Y-99099500D01*
X54813691Y-99099500D01*
X54636309Y-99099500D01*
X54636306Y-99099500D01*
X54462341Y-99134103D01*
X54462332Y-99134106D01*
X54298459Y-99201983D01*
X54298446Y-99201990D01*
X54150965Y-99300535D01*
X54150961Y-99300538D01*
X54025538Y-99425961D01*
X54025535Y-99425965D01*
X53926990Y-99573446D01*
X53926983Y-99573459D01*
X53859106Y-99737332D01*
X53859103Y-99737341D01*
X53824500Y-99911304D01*
X48625499Y-99911304D01*
X48590896Y-99737341D01*
X48590893Y-99737332D01*
X48523016Y-99573459D01*
X48523009Y-99573446D01*
X48424464Y-99425965D01*
X48424461Y-99425961D01*
X48299038Y-99300538D01*
X48299034Y-99300535D01*
X48151553Y-99201990D01*
X48151540Y-99201983D01*
X47987667Y-99134106D01*
X47987658Y-99134103D01*
X47813694Y-99099500D01*
X47813691Y-99099500D01*
X47636309Y-99099500D01*
X47636306Y-99099500D01*
X47462341Y-99134103D01*
X47462332Y-99134106D01*
X47298459Y-99201983D01*
X47298446Y-99201990D01*
X47150965Y-99300535D01*
X47150961Y-99300538D01*
X47025538Y-99425961D01*
X47025535Y-99425965D01*
X46927602Y-99572531D01*
X46873989Y-99617336D01*
X46804664Y-99626043D01*
X46741637Y-99595888D01*
X46704918Y-99536445D01*
X46700500Y-99503640D01*
X46700500Y-91466228D01*
X51449500Y-91466228D01*
X51449500Y-91633771D01*
X51482182Y-91798074D01*
X51482184Y-91798082D01*
X51546295Y-91952860D01*
X51639373Y-92092162D01*
X51757837Y-92210626D01*
X51819957Y-92252133D01*
X51897137Y-92303703D01*
X51897138Y-92303703D01*
X51897139Y-92303704D01*
X51906417Y-92307547D01*
X52051918Y-92367816D01*
X52216228Y-92400499D01*
X52216232Y-92400500D01*
X52216233Y-92400500D01*
X52383768Y-92400500D01*
X52383769Y-92400499D01*
X52548082Y-92367816D01*
X52702863Y-92303703D01*
X52842162Y-92210626D01*
X52864024Y-92188763D01*
X52925345Y-92155279D01*
X52995036Y-92160262D01*
X53050971Y-92202133D01*
X53092455Y-92257547D01*
X53207664Y-92343793D01*
X53207671Y-92343797D01*
X53252618Y-92360561D01*
X53342517Y-92394091D01*
X53402127Y-92400500D01*
X54103455Y-92400499D01*
X54170494Y-92420183D01*
X54191136Y-92436818D01*
X56034788Y-94280470D01*
X56104085Y-94320478D01*
X56104087Y-94320480D01*
X56107538Y-94322472D01*
X56114712Y-94326614D01*
X56203856Y-94350500D01*
X84071614Y-94350500D01*
X84138653Y-94370185D01*
X84184408Y-94422989D01*
X84194352Y-94492147D01*
X84165327Y-94555703D01*
X84159295Y-94562181D01*
X84141993Y-94579482D01*
X84141988Y-94579488D01*
X84069517Y-94705011D01*
X84069516Y-94705015D01*
X84032000Y-94845025D01*
X84032000Y-94845027D01*
X84032000Y-94920956D01*
X84012315Y-94987995D01*
X83995681Y-95008637D01*
X83641137Y-95363181D01*
X83579814Y-95396666D01*
X83553456Y-95399500D01*
X80979386Y-95399500D01*
X80912347Y-95379815D01*
X80891705Y-95363181D01*
X80838017Y-95309493D01*
X80838011Y-95309488D01*
X80712488Y-95237017D01*
X80712489Y-95237017D01*
X80701006Y-95233940D01*
X80572475Y-95199500D01*
X80427525Y-95199500D01*
X80298993Y-95233940D01*
X80287511Y-95237017D01*
X80161988Y-95309488D01*
X80161982Y-95309493D01*
X80059493Y-95411982D01*
X80059488Y-95411988D01*
X79987017Y-95537511D01*
X79987016Y-95537515D01*
X79949500Y-95677525D01*
X79949500Y-95822475D01*
X79987016Y-95962485D01*
X79987017Y-95962488D01*
X80059488Y-96088011D01*
X80059490Y-96088013D01*
X80059491Y-96088015D01*
X80161985Y-96190509D01*
X80161986Y-96190510D01*
X80161988Y-96190511D01*
X80287511Y-96262982D01*
X80287512Y-96262982D01*
X80287515Y-96262984D01*
X80427525Y-96300500D01*
X80427528Y-96300500D01*
X80572472Y-96300500D01*
X80572475Y-96300500D01*
X80712485Y-96262984D01*
X80838015Y-96190509D01*
X80891705Y-96136819D01*
X80953028Y-96103334D01*
X80979386Y-96100500D01*
X83796142Y-96100500D01*
X83796144Y-96100500D01*
X83885288Y-96076614D01*
X83895912Y-96070480D01*
X83965212Y-96030470D01*
X84491363Y-95504319D01*
X84552686Y-95470834D01*
X84579044Y-95468000D01*
X84654972Y-95468000D01*
X84654975Y-95468000D01*
X84794985Y-95430484D01*
X84920515Y-95358009D01*
X85023009Y-95255515D01*
X85095484Y-95129985D01*
X85133000Y-94989975D01*
X85133000Y-94845025D01*
X85095484Y-94705015D01*
X85087107Y-94690506D01*
X85023011Y-94579488D01*
X85023006Y-94579482D01*
X85005705Y-94562181D01*
X84995092Y-94542744D01*
X84980592Y-94526011D01*
X84978675Y-94512679D01*
X84972220Y-94500858D01*
X84973799Y-94478771D01*
X84970648Y-94456853D01*
X84976243Y-94444601D01*
X84977204Y-94431166D01*
X84990474Y-94413439D01*
X84999673Y-94393297D01*
X85011004Y-94386014D01*
X85019076Y-94375233D01*
X85039821Y-94367495D01*
X85058451Y-94355523D01*
X85080369Y-94352371D01*
X85084540Y-94350816D01*
X85093386Y-94350500D01*
X85120614Y-94350500D01*
X85187653Y-94370185D01*
X85208295Y-94386819D01*
X85261985Y-94440509D01*
X85261986Y-94440510D01*
X85261988Y-94440511D01*
X85387511Y-94512982D01*
X85387512Y-94512982D01*
X85387515Y-94512984D01*
X85527525Y-94550500D01*
X85527528Y-94550500D01*
X85672472Y-94550500D01*
X85672475Y-94550500D01*
X85812485Y-94512984D01*
X85938015Y-94440509D01*
X86040509Y-94338015D01*
X86112984Y-94212485D01*
X86150500Y-94072475D01*
X86150500Y-93927525D01*
X86112984Y-93787515D01*
X86083828Y-93737016D01*
X86040511Y-93661988D01*
X86040506Y-93661982D01*
X85938017Y-93559493D01*
X85938011Y-93559488D01*
X85812488Y-93487017D01*
X85812489Y-93487017D01*
X85801006Y-93483940D01*
X85672475Y-93449500D01*
X85527525Y-93449500D01*
X85398993Y-93483940D01*
X85387511Y-93487017D01*
X85261988Y-93559488D01*
X85261982Y-93559493D01*
X85208295Y-93613181D01*
X85146972Y-93646666D01*
X85120614Y-93649500D01*
X56446544Y-93649500D01*
X56379505Y-93629815D01*
X56358863Y-93613181D01*
X54686818Y-91941136D01*
X54653333Y-91879813D01*
X54650499Y-91853455D01*
X54650499Y-91516228D01*
X58149500Y-91516228D01*
X58149500Y-91683771D01*
X58182182Y-91848074D01*
X58182184Y-91848082D01*
X58246295Y-92002860D01*
X58339373Y-92142162D01*
X58457837Y-92260626D01*
X58528058Y-92307546D01*
X58597137Y-92353703D01*
X58751918Y-92417816D01*
X58916228Y-92450499D01*
X58916232Y-92450500D01*
X58916233Y-92450500D01*
X59083768Y-92450500D01*
X59083769Y-92450499D01*
X59248082Y-92417816D01*
X59402863Y-92353703D01*
X59542162Y-92260626D01*
X59564024Y-92238763D01*
X59625345Y-92205279D01*
X59695036Y-92210262D01*
X59750971Y-92252133D01*
X59792455Y-92307547D01*
X59907664Y-92393793D01*
X59907671Y-92393797D01*
X59925643Y-92400500D01*
X60042517Y-92444091D01*
X60102127Y-92450500D01*
X60803637Y-92450499D01*
X60870676Y-92470183D01*
X60879125Y-92476125D01*
X60884786Y-92480469D01*
X60884788Y-92480470D01*
X60964712Y-92526614D01*
X61053856Y-92550500D01*
X61053858Y-92550500D01*
X84346142Y-92550500D01*
X84346144Y-92550500D01*
X84435288Y-92526614D01*
X84515212Y-92480470D01*
X84758863Y-92236819D01*
X84820186Y-92203334D01*
X84846544Y-92200500D01*
X84922472Y-92200500D01*
X84922475Y-92200500D01*
X85062485Y-92162984D01*
X85188015Y-92090509D01*
X85290509Y-91988015D01*
X85362984Y-91862485D01*
X85400500Y-91722475D01*
X85400500Y-91577525D01*
X85362984Y-91437515D01*
X85362642Y-91436923D01*
X85290511Y-91311988D01*
X85290506Y-91311982D01*
X85188017Y-91209493D01*
X85188011Y-91209488D01*
X85062488Y-91137017D01*
X85062489Y-91137017D01*
X85051006Y-91133940D01*
X84922475Y-91099500D01*
X84777525Y-91099500D01*
X84648993Y-91133940D01*
X84637511Y-91137017D01*
X84511988Y-91209488D01*
X84511982Y-91209493D01*
X84409493Y-91311982D01*
X84409488Y-91311988D01*
X84337017Y-91437511D01*
X84337016Y-91437515D01*
X84299500Y-91577525D01*
X84299500Y-91577527D01*
X84299500Y-91653456D01*
X84290855Y-91682896D01*
X84284332Y-91712883D01*
X84280577Y-91717898D01*
X84279815Y-91720495D01*
X84263181Y-91741137D01*
X84191137Y-91813181D01*
X84129814Y-91846666D01*
X84103456Y-91849500D01*
X76099001Y-91849500D01*
X76031962Y-91829815D01*
X75986207Y-91777011D01*
X75976263Y-91707853D01*
X75999734Y-91651189D01*
X76043796Y-91592331D01*
X76094091Y-91457483D01*
X76100500Y-91397873D01*
X76100499Y-90602128D01*
X76094091Y-90542517D01*
X76043796Y-90407669D01*
X76043795Y-90407668D01*
X76043793Y-90407664D01*
X75957547Y-90292455D01*
X75957544Y-90292452D01*
X75842335Y-90206206D01*
X75842328Y-90206202D01*
X75707482Y-90155908D01*
X75707483Y-90155908D01*
X75647883Y-90149501D01*
X75647881Y-90149500D01*
X75647873Y-90149500D01*
X75647864Y-90149500D01*
X74852129Y-90149500D01*
X74852123Y-90149501D01*
X74792516Y-90155908D01*
X74657671Y-90206202D01*
X74657664Y-90206206D01*
X74542455Y-90292452D01*
X74542452Y-90292455D01*
X74456206Y-90407664D01*
X74456202Y-90407671D01*
X74405908Y-90542517D01*
X74402557Y-90573691D01*
X74399501Y-90602123D01*
X74399500Y-90602135D01*
X74399500Y-90652691D01*
X74379815Y-90719730D01*
X74363181Y-90740372D01*
X74044854Y-91058699D01*
X74050000Y-91039496D01*
X74050000Y-90960504D01*
X74029556Y-90884204D01*
X73990060Y-90815795D01*
X73934205Y-90759940D01*
X73865796Y-90720444D01*
X73789496Y-90700000D01*
X73710504Y-90700000D01*
X73634204Y-90720444D01*
X73565795Y-90759940D01*
X73509940Y-90815795D01*
X73470444Y-90884204D01*
X73450000Y-90960504D01*
X73450000Y-91039496D01*
X73470444Y-91115796D01*
X73509940Y-91184205D01*
X73565795Y-91240060D01*
X73634204Y-91279556D01*
X73710504Y-91300000D01*
X73789496Y-91300000D01*
X73808698Y-91294854D01*
X73290371Y-91813181D01*
X73229048Y-91846666D01*
X73202690Y-91849500D01*
X70099001Y-91849500D01*
X70031962Y-91829815D01*
X69986207Y-91777011D01*
X69976263Y-91707853D01*
X69999734Y-91651189D01*
X70043796Y-91592331D01*
X70094091Y-91457483D01*
X70100500Y-91397873D01*
X70100499Y-90911353D01*
X72850000Y-90911353D01*
X72850000Y-91088646D01*
X72884584Y-91262512D01*
X72884586Y-91262520D01*
X72952430Y-91426311D01*
X72959522Y-91436923D01*
X73396446Y-91000000D01*
X72959522Y-90563076D01*
X72959521Y-90563076D01*
X72952429Y-90573691D01*
X72884586Y-90737479D01*
X72884584Y-90737487D01*
X72850000Y-90911353D01*
X70100499Y-90911353D01*
X70100499Y-90602128D01*
X70094091Y-90542517D01*
X70043796Y-90407669D01*
X69957546Y-90292454D01*
X69957544Y-90292452D01*
X69957543Y-90292451D01*
X69846763Y-90209521D01*
X73313076Y-90209521D01*
X73313076Y-90209522D01*
X73750000Y-90646446D01*
X73750001Y-90646446D01*
X74186923Y-90209522D01*
X74176311Y-90202430D01*
X74012520Y-90134586D01*
X74012512Y-90134584D01*
X73838646Y-90100000D01*
X73661353Y-90100000D01*
X73487487Y-90134584D01*
X73487479Y-90134586D01*
X73323691Y-90202429D01*
X73313076Y-90209521D01*
X69846763Y-90209521D01*
X69842335Y-90206206D01*
X69842328Y-90206202D01*
X69707482Y-90155908D01*
X69707483Y-90155908D01*
X69647883Y-90149501D01*
X69647881Y-90149500D01*
X69647873Y-90149500D01*
X69647864Y-90149500D01*
X68852129Y-90149500D01*
X68852123Y-90149501D01*
X68792516Y-90155908D01*
X68657671Y-90206202D01*
X68657664Y-90206206D01*
X68542455Y-90292452D01*
X68542452Y-90292455D01*
X68456206Y-90407664D01*
X68456202Y-90407671D01*
X68405908Y-90542517D01*
X68402557Y-90573691D01*
X68399501Y-90602123D01*
X68399500Y-90602135D01*
X68399500Y-90652691D01*
X68379815Y-90719730D01*
X68363181Y-90740372D01*
X68044854Y-91058699D01*
X68050000Y-91039496D01*
X68050000Y-90960504D01*
X68029556Y-90884204D01*
X67990060Y-90815795D01*
X67934205Y-90759940D01*
X67865796Y-90720444D01*
X67789496Y-90700000D01*
X67710504Y-90700000D01*
X67634204Y-90720444D01*
X67565795Y-90759940D01*
X67509940Y-90815795D01*
X67470444Y-90884204D01*
X67450000Y-90960504D01*
X67450000Y-91039496D01*
X67470444Y-91115796D01*
X67509940Y-91184205D01*
X67565795Y-91240060D01*
X67634204Y-91279556D01*
X67710504Y-91300000D01*
X67789496Y-91300000D01*
X67808698Y-91294854D01*
X67290371Y-91813181D01*
X67229048Y-91846666D01*
X67202690Y-91849500D01*
X61474500Y-91849500D01*
X61407461Y-91829815D01*
X61361706Y-91777011D01*
X61350500Y-91725500D01*
X61350499Y-91202129D01*
X61350498Y-91202123D01*
X61349962Y-91197139D01*
X61344091Y-91142517D01*
X61342039Y-91137016D01*
X61293797Y-91007671D01*
X61293795Y-91007668D01*
X61272767Y-90979578D01*
X61272766Y-90979576D01*
X61221694Y-90911353D01*
X66850000Y-90911353D01*
X66850000Y-91088646D01*
X66884584Y-91262512D01*
X66884586Y-91262520D01*
X66952430Y-91426311D01*
X66959522Y-91436923D01*
X67396446Y-91000000D01*
X66959522Y-90563076D01*
X66959521Y-90563076D01*
X66952429Y-90573691D01*
X66884586Y-90737479D01*
X66884584Y-90737487D01*
X66850000Y-90911353D01*
X61221694Y-90911353D01*
X61207547Y-90892455D01*
X61207544Y-90892452D01*
X61092335Y-90806206D01*
X61092328Y-90806202D01*
X60957482Y-90755908D01*
X60957483Y-90755908D01*
X60897883Y-90749501D01*
X60897881Y-90749500D01*
X60897873Y-90749500D01*
X60897864Y-90749500D01*
X60102129Y-90749500D01*
X60102123Y-90749501D01*
X60042516Y-90755908D01*
X59907671Y-90806202D01*
X59907664Y-90806206D01*
X59792455Y-90892452D01*
X59792452Y-90892455D01*
X59750972Y-90947866D01*
X59695039Y-90989737D01*
X59625347Y-90994721D01*
X59564025Y-90961236D01*
X59542162Y-90939373D01*
X59402860Y-90846295D01*
X59248082Y-90782184D01*
X59248074Y-90782182D01*
X59083771Y-90749500D01*
X59083767Y-90749500D01*
X58916233Y-90749500D01*
X58916228Y-90749500D01*
X58751925Y-90782182D01*
X58751917Y-90782184D01*
X58597139Y-90846295D01*
X58457837Y-90939373D01*
X58339373Y-91057837D01*
X58246295Y-91197139D01*
X58182184Y-91351917D01*
X58182182Y-91351925D01*
X58149500Y-91516228D01*
X54650499Y-91516228D01*
X54650499Y-91152129D01*
X54650498Y-91152123D01*
X54649962Y-91147139D01*
X54644091Y-91092517D01*
X54642647Y-91088646D01*
X54593797Y-90957671D01*
X54593793Y-90957664D01*
X54507547Y-90842455D01*
X54507544Y-90842452D01*
X54392335Y-90756206D01*
X54392328Y-90756202D01*
X54257482Y-90705908D01*
X54257483Y-90705908D01*
X54197883Y-90699501D01*
X54197881Y-90699500D01*
X54197873Y-90699500D01*
X54197864Y-90699500D01*
X53402129Y-90699500D01*
X53402123Y-90699501D01*
X53342516Y-90705908D01*
X53207671Y-90756202D01*
X53207664Y-90756206D01*
X53092455Y-90842452D01*
X53092452Y-90842455D01*
X53050972Y-90897866D01*
X52995039Y-90939737D01*
X52925347Y-90944721D01*
X52864025Y-90911236D01*
X52842162Y-90889373D01*
X52702860Y-90796295D01*
X52548082Y-90732184D01*
X52548074Y-90732182D01*
X52383771Y-90699500D01*
X52383767Y-90699500D01*
X52216233Y-90699500D01*
X52216228Y-90699500D01*
X52051925Y-90732182D01*
X52051917Y-90732184D01*
X51897139Y-90796295D01*
X51757837Y-90889373D01*
X51639373Y-91007837D01*
X51546295Y-91147139D01*
X51482184Y-91301917D01*
X51482182Y-91301925D01*
X51449500Y-91466228D01*
X46700500Y-91466228D01*
X46700500Y-90209521D01*
X67313076Y-90209521D01*
X67313076Y-90209522D01*
X67750000Y-90646446D01*
X67750001Y-90646446D01*
X68186923Y-90209522D01*
X68176311Y-90202430D01*
X68012520Y-90134586D01*
X68012512Y-90134584D01*
X67838646Y-90100000D01*
X67661353Y-90100000D01*
X67487487Y-90134584D01*
X67487479Y-90134586D01*
X67323691Y-90202429D01*
X67313076Y-90209521D01*
X46700500Y-90209521D01*
X46700500Y-82827399D01*
X52129500Y-82827399D01*
X52129500Y-82952601D01*
X52161905Y-83073536D01*
X52224505Y-83181964D01*
X52313036Y-83270495D01*
X52421464Y-83333095D01*
X52542399Y-83365500D01*
X52542401Y-83365500D01*
X52667599Y-83365500D01*
X52667601Y-83365500D01*
X52788536Y-83333095D01*
X52896964Y-83270495D01*
X52985495Y-83181964D01*
X53048095Y-83073536D01*
X53080500Y-82952601D01*
X53080500Y-82827399D01*
X53048095Y-82706464D01*
X52985495Y-82598036D01*
X52896964Y-82509505D01*
X52788536Y-82446905D01*
X52788537Y-82446905D01*
X52748224Y-82436103D01*
X52667601Y-82414500D01*
X52542399Y-82414500D01*
X52461775Y-82436103D01*
X52421463Y-82446905D01*
X52313037Y-82509504D01*
X52313034Y-82509506D01*
X52224506Y-82598034D01*
X52224504Y-82598037D01*
X52161905Y-82706463D01*
X52161905Y-82706464D01*
X52129500Y-82827399D01*
X46700500Y-82827399D01*
X46700500Y-79677525D01*
X51949500Y-79677525D01*
X51949500Y-79822475D01*
X51987016Y-79962485D01*
X51987017Y-79962488D01*
X52059488Y-80088011D01*
X52059493Y-80088017D01*
X52113181Y-80141705D01*
X52127884Y-80168632D01*
X52144477Y-80194451D01*
X52145368Y-80200651D01*
X52146666Y-80203028D01*
X52149500Y-80229386D01*
X52149500Y-80395614D01*
X52129815Y-80462653D01*
X52113181Y-80483295D01*
X52059493Y-80536982D01*
X52059488Y-80536988D01*
X51987017Y-80662511D01*
X51987016Y-80662515D01*
X51949500Y-80802525D01*
X51949500Y-80947475D01*
X51987016Y-81087485D01*
X51987017Y-81087488D01*
X52059488Y-81213011D01*
X52059490Y-81213013D01*
X52059491Y-81213015D01*
X52161985Y-81315509D01*
X52161986Y-81315510D01*
X52161988Y-81315511D01*
X52287511Y-81387982D01*
X52287512Y-81387982D01*
X52287515Y-81387984D01*
X52427525Y-81425500D01*
X52427528Y-81425500D01*
X52572472Y-81425500D01*
X52572475Y-81425500D01*
X52712485Y-81387984D01*
X52838015Y-81315509D01*
X52940509Y-81213015D01*
X53012984Y-81087485D01*
X53050500Y-80947475D01*
X53050500Y-80802525D01*
X53012984Y-80662515D01*
X52940509Y-80536985D01*
X52886819Y-80483295D01*
X52872115Y-80456367D01*
X52855523Y-80430549D01*
X52854631Y-80424348D01*
X52853334Y-80421972D01*
X52850500Y-80395614D01*
X52850500Y-80229386D01*
X52870185Y-80162347D01*
X52886819Y-80141705D01*
X52940509Y-80088015D01*
X53012984Y-79962485D01*
X53050500Y-79822475D01*
X53050500Y-79677525D01*
X53012984Y-79537515D01*
X52940509Y-79411985D01*
X52838015Y-79309491D01*
X52838013Y-79309490D01*
X52838011Y-79309488D01*
X52712488Y-79237017D01*
X52712489Y-79237017D01*
X52701006Y-79233940D01*
X52572475Y-79199500D01*
X52427525Y-79199500D01*
X52298993Y-79233940D01*
X52287511Y-79237017D01*
X52161988Y-79309488D01*
X52161982Y-79309493D01*
X52059493Y-79411982D01*
X52059488Y-79411988D01*
X51987017Y-79537511D01*
X51987016Y-79537515D01*
X51949500Y-79677525D01*
X46700500Y-79677525D01*
X46700500Y-77047399D01*
X52129500Y-77047399D01*
X52129500Y-77172601D01*
X52161905Y-77293536D01*
X52224505Y-77401964D01*
X52313036Y-77490495D01*
X52421464Y-77553095D01*
X52542399Y-77585500D01*
X52542401Y-77585500D01*
X52667599Y-77585500D01*
X52667601Y-77585500D01*
X52788536Y-77553095D01*
X52896964Y-77490495D01*
X52985495Y-77401964D01*
X53048095Y-77293536D01*
X53080500Y-77172601D01*
X53080500Y-77047399D01*
X53048095Y-76926464D01*
X52985495Y-76818036D01*
X52896964Y-76729505D01*
X52788536Y-76666905D01*
X52788537Y-76666905D01*
X52748224Y-76656103D01*
X52667601Y-76634500D01*
X52542399Y-76634500D01*
X52461775Y-76656103D01*
X52421463Y-76666905D01*
X52313037Y-76729504D01*
X52313034Y-76729506D01*
X52224506Y-76818034D01*
X52224504Y-76818037D01*
X52161905Y-76926463D01*
X52161905Y-76926464D01*
X52129500Y-77047399D01*
X46700500Y-77047399D01*
X46700500Y-69201251D01*
X63348347Y-69201251D01*
X63348347Y-69326442D01*
X63372767Y-69449208D01*
X63372770Y-69449220D01*
X63420670Y-69564862D01*
X63420677Y-69564875D01*
X63490221Y-69668954D01*
X63490224Y-69668958D01*
X63578735Y-69757469D01*
X63578739Y-69757472D01*
X63682818Y-69827016D01*
X63682831Y-69827023D01*
X63767238Y-69861985D01*
X63798478Y-69874925D01*
X63921251Y-69899346D01*
X63921255Y-69899347D01*
X63921256Y-69899347D01*
X65668745Y-69899347D01*
X65668746Y-69899346D01*
X65791522Y-69874925D01*
X65907175Y-69827020D01*
X65981431Y-69777404D01*
X77454500Y-69777404D01*
X77454500Y-69902595D01*
X77478920Y-70025361D01*
X77478923Y-70025373D01*
X77526823Y-70141015D01*
X77526830Y-70141028D01*
X77596374Y-70245107D01*
X77596377Y-70245111D01*
X77684888Y-70333622D01*
X77684892Y-70333625D01*
X77788971Y-70403169D01*
X77788984Y-70403176D01*
X77904626Y-70451076D01*
X77904631Y-70451078D01*
X78027404Y-70475499D01*
X78027408Y-70475500D01*
X78027409Y-70475500D01*
X78625405Y-70475500D01*
X78692444Y-70495185D01*
X78713086Y-70511819D01*
X79654888Y-71453622D01*
X79654892Y-71453625D01*
X79758971Y-71523169D01*
X79758984Y-71523176D01*
X79874626Y-71571076D01*
X79874631Y-71571078D01*
X79997404Y-71595499D01*
X79997408Y-71595500D01*
X79997409Y-71595500D01*
X80122592Y-71595500D01*
X80122593Y-71595499D01*
X80245369Y-71571078D01*
X80361022Y-71523173D01*
X80465108Y-71453625D01*
X80553625Y-71365108D01*
X80623173Y-71261022D01*
X80671078Y-71145369D01*
X80695500Y-71022591D01*
X80695500Y-70897409D01*
X80671078Y-70774631D01*
X80645542Y-70712982D01*
X80623176Y-70658984D01*
X80623169Y-70658971D01*
X80553625Y-70554892D01*
X80553622Y-70554888D01*
X79345111Y-69346377D01*
X79345107Y-69346374D01*
X79241028Y-69276830D01*
X79241015Y-69276823D01*
X79125373Y-69228923D01*
X79125361Y-69228920D01*
X79002595Y-69204500D01*
X79002591Y-69204500D01*
X78027409Y-69204500D01*
X78027404Y-69204500D01*
X77904638Y-69228920D01*
X77904626Y-69228923D01*
X77788984Y-69276823D01*
X77788971Y-69276830D01*
X77684892Y-69346374D01*
X77684888Y-69346377D01*
X77596377Y-69434888D01*
X77596374Y-69434892D01*
X77526830Y-69538971D01*
X77526823Y-69538984D01*
X77478923Y-69654626D01*
X77478920Y-69654638D01*
X77454500Y-69777404D01*
X65981431Y-69777404D01*
X66011261Y-69757472D01*
X66048119Y-69720614D01*
X66085098Y-69683636D01*
X66943622Y-68825111D01*
X66943625Y-68825108D01*
X67013173Y-68721022D01*
X67061078Y-68605369D01*
X67085500Y-68482591D01*
X67085500Y-68357409D01*
X67061078Y-68234631D01*
X67039262Y-68181962D01*
X67013176Y-68118984D01*
X67013169Y-68118971D01*
X66943625Y-68014892D01*
X66943622Y-68014888D01*
X66855111Y-67926377D01*
X66855107Y-67926374D01*
X66751028Y-67856830D01*
X66751015Y-67856823D01*
X66635373Y-67808923D01*
X66635361Y-67808920D01*
X66512595Y-67784500D01*
X66512591Y-67784500D01*
X66387409Y-67784500D01*
X66387404Y-67784500D01*
X66264638Y-67808920D01*
X66264626Y-67808923D01*
X66148984Y-67856823D01*
X66148971Y-67856830D01*
X66044892Y-67926374D01*
X66044888Y-67926377D01*
X65379239Y-68592028D01*
X65317916Y-68625513D01*
X65291558Y-68628347D01*
X63921251Y-68628347D01*
X63798485Y-68652767D01*
X63798473Y-68652770D01*
X63682831Y-68700670D01*
X63682818Y-68700677D01*
X63578739Y-68770221D01*
X63578735Y-68770224D01*
X63490224Y-68858735D01*
X63490221Y-68858739D01*
X63420677Y-68962818D01*
X63420670Y-68962831D01*
X63372770Y-69078473D01*
X63372767Y-69078485D01*
X63348347Y-69201251D01*
X46700500Y-69201251D01*
X46700500Y-67827399D01*
X52129500Y-67827399D01*
X52129500Y-67952601D01*
X52161905Y-68073536D01*
X52224505Y-68181964D01*
X52313036Y-68270495D01*
X52421464Y-68333095D01*
X52542399Y-68365500D01*
X52542401Y-68365500D01*
X52667599Y-68365500D01*
X52667601Y-68365500D01*
X52788536Y-68333095D01*
X52896964Y-68270495D01*
X52985495Y-68181964D01*
X53048095Y-68073536D01*
X53080500Y-67952601D01*
X53080500Y-67827399D01*
X53048095Y-67706464D01*
X52985495Y-67598036D01*
X52896964Y-67509505D01*
X52788536Y-67446905D01*
X52788537Y-67446905D01*
X52769945Y-67441923D01*
X52667601Y-67414500D01*
X52542399Y-67414500D01*
X52473316Y-67433011D01*
X52421463Y-67446905D01*
X52313037Y-67509504D01*
X52313034Y-67509506D01*
X52224506Y-67598034D01*
X52224504Y-67598037D01*
X52161905Y-67706463D01*
X52161905Y-67706464D01*
X52129500Y-67827399D01*
X46700500Y-67827399D01*
X46700500Y-67321363D01*
X60043338Y-67321363D01*
X60043338Y-67466313D01*
X60078634Y-67598037D01*
X60080855Y-67606326D01*
X60153326Y-67731849D01*
X60153328Y-67731851D01*
X60153329Y-67731853D01*
X60255823Y-67834347D01*
X60255824Y-67834348D01*
X60255826Y-67834349D01*
X60381349Y-67906820D01*
X60381350Y-67906820D01*
X60381353Y-67906822D01*
X60521363Y-67944338D01*
X60521366Y-67944338D01*
X60666310Y-67944338D01*
X60666313Y-67944338D01*
X60806323Y-67906822D01*
X60931853Y-67834347D01*
X61034347Y-67731853D01*
X61106822Y-67606323D01*
X61106823Y-67606316D01*
X61109867Y-67598971D01*
X61136745Y-67558743D01*
X61558671Y-67136819D01*
X61619994Y-67103334D01*
X61646352Y-67100500D01*
X68932711Y-67100500D01*
X68980162Y-67109938D01*
X68987513Y-67112983D01*
X68987515Y-67112984D01*
X69127525Y-67150500D01*
X69127528Y-67150500D01*
X69272472Y-67150500D01*
X69272475Y-67150500D01*
X69412485Y-67112984D01*
X69538015Y-67040509D01*
X69640509Y-66938015D01*
X69712984Y-66812485D01*
X69750500Y-66672475D01*
X69750500Y-66527525D01*
X69712984Y-66387515D01*
X69640509Y-66261985D01*
X69538015Y-66159491D01*
X69538013Y-66159490D01*
X69538011Y-66159488D01*
X69412488Y-66087017D01*
X69412489Y-66087017D01*
X69401006Y-66083940D01*
X69272475Y-66049500D01*
X69127525Y-66049500D01*
X69043519Y-66072009D01*
X68987513Y-66087016D01*
X68980162Y-66090062D01*
X68932711Y-66099500D01*
X65898595Y-66099500D01*
X65831556Y-66079815D01*
X65785801Y-66027011D01*
X65775857Y-65957853D01*
X65804882Y-65894297D01*
X65810914Y-65887819D01*
X66693620Y-65005113D01*
X66693625Y-65005108D01*
X66763173Y-64901021D01*
X66811078Y-64785368D01*
X66835500Y-64662591D01*
X66835500Y-64537409D01*
X66811078Y-64414631D01*
X66811076Y-64414626D01*
X66763176Y-64298984D01*
X66763169Y-64298971D01*
X66693625Y-64194892D01*
X66693622Y-64194888D01*
X66605111Y-64106377D01*
X66605107Y-64106374D01*
X66501028Y-64036830D01*
X66501015Y-64036823D01*
X66385373Y-63988923D01*
X66385361Y-63988920D01*
X66262595Y-63964500D01*
X66262591Y-63964500D01*
X66137409Y-63964500D01*
X66137406Y-63964500D01*
X66014639Y-63988920D01*
X66014627Y-63988923D01*
X65898980Y-64036825D01*
X65898977Y-64036827D01*
X65794893Y-64106373D01*
X65794886Y-64106379D01*
X64823086Y-65078181D01*
X64761763Y-65111666D01*
X64735405Y-65114500D01*
X64187404Y-65114500D01*
X64064638Y-65138920D01*
X64064626Y-65138923D01*
X63948984Y-65186823D01*
X63948971Y-65186830D01*
X63844892Y-65256374D01*
X63844888Y-65256377D01*
X63756377Y-65344888D01*
X63756374Y-65344892D01*
X63686830Y-65448971D01*
X63686823Y-65448984D01*
X63638923Y-65564626D01*
X63638920Y-65564638D01*
X63614500Y-65687404D01*
X63614500Y-65812595D01*
X63638920Y-65935365D01*
X63640176Y-65939503D01*
X63640801Y-66009370D01*
X63603553Y-66068483D01*
X63540259Y-66098075D01*
X63521516Y-66099500D01*
X61321783Y-66099500D01*
X61234672Y-66122841D01*
X61234671Y-66122840D01*
X61194491Y-66133607D01*
X61194490Y-66133607D01*
X61080362Y-66199500D01*
X61080359Y-66199502D01*
X60428931Y-66850929D01*
X60388711Y-66877806D01*
X60381353Y-66880854D01*
X60255826Y-66953327D01*
X60255820Y-66953331D01*
X60153331Y-67055820D01*
X60153326Y-67055826D01*
X60080855Y-67181349D01*
X60080854Y-67181353D01*
X60043338Y-67321363D01*
X46700500Y-67321363D01*
X46700500Y-64600026D01*
X52164656Y-64600026D01*
X52164656Y-64744976D01*
X52202172Y-64884986D01*
X52202173Y-64884989D01*
X52274644Y-65010512D01*
X52274649Y-65010518D01*
X52328337Y-65064206D01*
X52343040Y-65091133D01*
X52359633Y-65116952D01*
X52360524Y-65123152D01*
X52361822Y-65125529D01*
X52364656Y-65151887D01*
X52364656Y-65347389D01*
X52344971Y-65414428D01*
X52328337Y-65435070D01*
X52305197Y-65458209D01*
X52305192Y-65458215D01*
X52232721Y-65583738D01*
X52232720Y-65583742D01*
X52195204Y-65723752D01*
X52195204Y-65868702D01*
X52232720Y-66008712D01*
X52232721Y-66008715D01*
X52305192Y-66134238D01*
X52305194Y-66134240D01*
X52305195Y-66134242D01*
X52407689Y-66236736D01*
X52407690Y-66236737D01*
X52407692Y-66236738D01*
X52533215Y-66309209D01*
X52533216Y-66309209D01*
X52533219Y-66309211D01*
X52673229Y-66346727D01*
X52673232Y-66346727D01*
X52818176Y-66346727D01*
X52818179Y-66346727D01*
X52958189Y-66309211D01*
X53083719Y-66236736D01*
X53186213Y-66134242D01*
X53258688Y-66008712D01*
X53296204Y-65868702D01*
X53296204Y-65723752D01*
X53258688Y-65583742D01*
X53247658Y-65564638D01*
X53186215Y-65458215D01*
X53186214Y-65458214D01*
X53186213Y-65458212D01*
X53101974Y-65373973D01*
X53087269Y-65347042D01*
X53070679Y-65321227D01*
X53069787Y-65315024D01*
X53068490Y-65312649D01*
X53065656Y-65286292D01*
X53065656Y-65151887D01*
X53085341Y-65084848D01*
X53101975Y-65064206D01*
X53155665Y-65010516D01*
X53228140Y-64884986D01*
X53265656Y-64744976D01*
X53265656Y-64600026D01*
X53228140Y-64460016D01*
X53208859Y-64426621D01*
X53155667Y-64334489D01*
X53155662Y-64334483D01*
X53053173Y-64231994D01*
X53053167Y-64231989D01*
X52927644Y-64159518D01*
X52927645Y-64159518D01*
X52916162Y-64156441D01*
X52787631Y-64122001D01*
X52642681Y-64122001D01*
X52514149Y-64156441D01*
X52502667Y-64159518D01*
X52377144Y-64231989D01*
X52377138Y-64231994D01*
X52274649Y-64334483D01*
X52274644Y-64334489D01*
X52202173Y-64460012D01*
X52202172Y-64460016D01*
X52164656Y-64600026D01*
X46700500Y-64600026D01*
X46700500Y-62047399D01*
X52129500Y-62047399D01*
X52129500Y-62172601D01*
X52161905Y-62293536D01*
X52224505Y-62401964D01*
X52313036Y-62490495D01*
X52421464Y-62553095D01*
X52542399Y-62585500D01*
X52542401Y-62585500D01*
X52667599Y-62585500D01*
X52667601Y-62585500D01*
X52788536Y-62553095D01*
X52896964Y-62490495D01*
X52985495Y-62401964D01*
X53048095Y-62293536D01*
X53080500Y-62172601D01*
X53080500Y-62047399D01*
X53048095Y-61926464D01*
X52985495Y-61818036D01*
X52896964Y-61729505D01*
X52788536Y-61666905D01*
X52788537Y-61666905D01*
X52748224Y-61656103D01*
X52667601Y-61634500D01*
X52542399Y-61634500D01*
X52461775Y-61656103D01*
X52421463Y-61666905D01*
X52313037Y-61729504D01*
X52313034Y-61729506D01*
X52224506Y-61818034D01*
X52224504Y-61818037D01*
X52161905Y-61926463D01*
X52161905Y-61926464D01*
X52129500Y-62047399D01*
X46700500Y-62047399D01*
X46700500Y-57885837D01*
X61049500Y-57885837D01*
X61049500Y-58114162D01*
X61085215Y-58339660D01*
X61155770Y-58556803D01*
X61259421Y-58760228D01*
X61393621Y-58944937D01*
X61555063Y-59106379D01*
X61739772Y-59240579D01*
X61835884Y-59289550D01*
X61943196Y-59344229D01*
X61943198Y-59344229D01*
X61943201Y-59344231D01*
X62034399Y-59373863D01*
X62160339Y-59414784D01*
X62385838Y-59450500D01*
X62385843Y-59450500D01*
X62614162Y-59450500D01*
X62839660Y-59414784D01*
X62853823Y-59410182D01*
X63056799Y-59344231D01*
X63260228Y-59240579D01*
X63444937Y-59106379D01*
X63606379Y-58944937D01*
X63740579Y-58760228D01*
X63844231Y-58556799D01*
X63914784Y-58339660D01*
X63950500Y-58114162D01*
X63950500Y-57885837D01*
X63914784Y-57660339D01*
X63844229Y-57443196D01*
X63790905Y-57338543D01*
X72399499Y-57338543D01*
X72437947Y-57531829D01*
X72437950Y-57531839D01*
X72513364Y-57713907D01*
X72513371Y-57713920D01*
X72622860Y-57877781D01*
X72622863Y-57877785D01*
X72762214Y-58017136D01*
X72762218Y-58017139D01*
X72926079Y-58126628D01*
X72926092Y-58126635D01*
X73108160Y-58202049D01*
X73108165Y-58202051D01*
X73108169Y-58202051D01*
X73108170Y-58202052D01*
X73301456Y-58240500D01*
X73301459Y-58240500D01*
X73498543Y-58240500D01*
X73628582Y-58214632D01*
X73691835Y-58202051D01*
X73873914Y-58126632D01*
X74037782Y-58017139D01*
X74177139Y-57877782D01*
X74286632Y-57713914D01*
X74362051Y-57531835D01*
X74400500Y-57338541D01*
X74400500Y-57141459D01*
X74400500Y-57141456D01*
X74362052Y-56948170D01*
X74362051Y-56948169D01*
X74362051Y-56948165D01*
X74342754Y-56901577D01*
X77999500Y-56901577D01*
X77999500Y-57098422D01*
X78030290Y-57292826D01*
X78091117Y-57480029D01*
X78152945Y-57601372D01*
X78180476Y-57655405D01*
X78296172Y-57814646D01*
X78435354Y-57953828D01*
X78594595Y-58069524D01*
X78660039Y-58102869D01*
X78769970Y-58158882D01*
X78769972Y-58158882D01*
X78769975Y-58158884D01*
X78870317Y-58191487D01*
X78957173Y-58219709D01*
X79151578Y-58250500D01*
X79151583Y-58250500D01*
X79348422Y-58250500D01*
X79542826Y-58219709D01*
X79730025Y-58158884D01*
X79771100Y-58137954D01*
X79839769Y-58125058D01*
X79904509Y-58151334D01*
X79915076Y-58160758D01*
X81128181Y-59373863D01*
X81161666Y-59435186D01*
X81164500Y-59461544D01*
X81164500Y-85535614D01*
X81144815Y-85602653D01*
X81128181Y-85623295D01*
X81074493Y-85676982D01*
X81074488Y-85676988D01*
X81002017Y-85802511D01*
X81002016Y-85802515D01*
X80964500Y-85942525D01*
X80964500Y-86087475D01*
X81002016Y-86227485D01*
X81002017Y-86227488D01*
X81074488Y-86353011D01*
X81074490Y-86353013D01*
X81074491Y-86353015D01*
X81176985Y-86455509D01*
X81176986Y-86455510D01*
X81176988Y-86455511D01*
X81302511Y-86527982D01*
X81302512Y-86527982D01*
X81302515Y-86527984D01*
X81442525Y-86565500D01*
X81442528Y-86565500D01*
X81587472Y-86565500D01*
X81587475Y-86565500D01*
X81727485Y-86527984D01*
X81853015Y-86455509D01*
X81955509Y-86353015D01*
X82027984Y-86227485D01*
X82065500Y-86087475D01*
X82065500Y-85942525D01*
X82027984Y-85802515D01*
X81955509Y-85676985D01*
X81901819Y-85623295D01*
X81868334Y-85561972D01*
X81865500Y-85535614D01*
X81865500Y-72827399D01*
X91209500Y-72827399D01*
X91209500Y-72952601D01*
X91241905Y-73073536D01*
X91304505Y-73181964D01*
X91393036Y-73270495D01*
X91501464Y-73333095D01*
X91622399Y-73365500D01*
X91622401Y-73365500D01*
X91747599Y-73365500D01*
X91747601Y-73365500D01*
X91868536Y-73333095D01*
X91976964Y-73270495D01*
X92065495Y-73181964D01*
X92128095Y-73073536D01*
X92160500Y-72952601D01*
X92160500Y-72827399D01*
X92128095Y-72706464D01*
X92065495Y-72598036D01*
X91976964Y-72509505D01*
X91868536Y-72446905D01*
X91868537Y-72446905D01*
X91828224Y-72436103D01*
X91747601Y-72414500D01*
X91622399Y-72414500D01*
X91541775Y-72436103D01*
X91501463Y-72446905D01*
X91393037Y-72509504D01*
X91393034Y-72509506D01*
X91304506Y-72598034D01*
X91304504Y-72598037D01*
X91241905Y-72706463D01*
X91241905Y-72706464D01*
X91209500Y-72827399D01*
X81865500Y-72827399D01*
X81865500Y-68927525D01*
X91139500Y-68927525D01*
X91139500Y-69072475D01*
X91177016Y-69212485D01*
X91177017Y-69212488D01*
X91249488Y-69338011D01*
X91249493Y-69338017D01*
X91303181Y-69391705D01*
X91317884Y-69418632D01*
X91334477Y-69444451D01*
X91335368Y-69450651D01*
X91336666Y-69453028D01*
X91339500Y-69479386D01*
X91339500Y-69720614D01*
X91319815Y-69787653D01*
X91303181Y-69808295D01*
X91249493Y-69861982D01*
X91249488Y-69861988D01*
X91177017Y-69987511D01*
X91177016Y-69987515D01*
X91139500Y-70127525D01*
X91139500Y-70272475D01*
X91174520Y-70403169D01*
X91177017Y-70412488D01*
X91249488Y-70538011D01*
X91249490Y-70538013D01*
X91249491Y-70538015D01*
X91351985Y-70640509D01*
X91351986Y-70640510D01*
X91351988Y-70640511D01*
X91477511Y-70712982D01*
X91477512Y-70712982D01*
X91477515Y-70712984D01*
X91617525Y-70750500D01*
X91617528Y-70750500D01*
X91762472Y-70750500D01*
X91762475Y-70750500D01*
X91902485Y-70712984D01*
X92028015Y-70640509D01*
X92130509Y-70538015D01*
X92202984Y-70412485D01*
X92240500Y-70272475D01*
X92240500Y-70127525D01*
X92202984Y-69987515D01*
X92153955Y-69902595D01*
X92130511Y-69861988D01*
X92130506Y-69861982D01*
X92076819Y-69808295D01*
X92062115Y-69781367D01*
X92045523Y-69755549D01*
X92044631Y-69749348D01*
X92043334Y-69746972D01*
X92040500Y-69720614D01*
X92040500Y-69479386D01*
X92060185Y-69412347D01*
X92076819Y-69391705D01*
X92130509Y-69338015D01*
X92202984Y-69212485D01*
X92240500Y-69072475D01*
X92240500Y-68927525D01*
X92202984Y-68787515D01*
X92192999Y-68770221D01*
X92130511Y-68661988D01*
X92130506Y-68661982D01*
X92028017Y-68559493D01*
X92028011Y-68559488D01*
X91902488Y-68487017D01*
X91902489Y-68487017D01*
X91885986Y-68482595D01*
X91762475Y-68449500D01*
X91617525Y-68449500D01*
X91494014Y-68482595D01*
X91477511Y-68487017D01*
X91351988Y-68559488D01*
X91351982Y-68559493D01*
X91249493Y-68661982D01*
X91249488Y-68661988D01*
X91177017Y-68787511D01*
X91177016Y-68787515D01*
X91139500Y-68927525D01*
X81865500Y-68927525D01*
X81865500Y-67226525D01*
X83523532Y-67226525D01*
X83523532Y-67371475D01*
X83560518Y-67509506D01*
X83561049Y-67511488D01*
X83633520Y-67637011D01*
X83633522Y-67637013D01*
X83633523Y-67637015D01*
X83736017Y-67739509D01*
X83736018Y-67739510D01*
X83736020Y-67739511D01*
X83861543Y-67811982D01*
X83861544Y-67811982D01*
X83861547Y-67811984D01*
X84001557Y-67849500D01*
X84001560Y-67849500D01*
X84146504Y-67849500D01*
X84146507Y-67849500D01*
X84286517Y-67811984D01*
X84412047Y-67739509D01*
X84514541Y-67637015D01*
X84587016Y-67511485D01*
X84624532Y-67371475D01*
X84624532Y-67366255D01*
X84644217Y-67299216D01*
X84660851Y-67278574D01*
X84892026Y-67047399D01*
X91209500Y-67047399D01*
X91209500Y-67172601D01*
X91241905Y-67293536D01*
X91304505Y-67401964D01*
X91393036Y-67490495D01*
X91501464Y-67553095D01*
X91622399Y-67585500D01*
X91622401Y-67585500D01*
X91747599Y-67585500D01*
X91747601Y-67585500D01*
X91868536Y-67553095D01*
X91976964Y-67490495D01*
X92065495Y-67401964D01*
X92128095Y-67293536D01*
X92160500Y-67172601D01*
X92160500Y-67047399D01*
X92128095Y-66926464D01*
X92065495Y-66818036D01*
X91976964Y-66729505D01*
X91868536Y-66666905D01*
X91868537Y-66666905D01*
X91828224Y-66656103D01*
X91747601Y-66634500D01*
X91622399Y-66634500D01*
X91541775Y-66656103D01*
X91501463Y-66666905D01*
X91393037Y-66729504D01*
X91393034Y-66729506D01*
X91304506Y-66818034D01*
X91304504Y-66818037D01*
X91241905Y-66926463D01*
X91241905Y-66926464D01*
X91209500Y-67047399D01*
X84892026Y-67047399D01*
X84987835Y-66951590D01*
X86126834Y-65812591D01*
X87421480Y-64517945D01*
X87474207Y-64426620D01*
X87501500Y-64324759D01*
X87501500Y-64219305D01*
X87501500Y-53913729D01*
X87501501Y-53913716D01*
X87501501Y-53798276D01*
X87501501Y-53798274D01*
X87474207Y-53696413D01*
X87421480Y-53605087D01*
X87346913Y-53530520D01*
X87346912Y-53530519D01*
X87342582Y-53526189D01*
X87342571Y-53526179D01*
X87131038Y-53314646D01*
X86934527Y-53118135D01*
X86901044Y-53056814D01*
X86906028Y-52987122D01*
X86907655Y-52982989D01*
X86908877Y-52980038D01*
X86908884Y-52980025D01*
X86969709Y-52792826D01*
X87000500Y-52598422D01*
X87000500Y-52401577D01*
X86969709Y-52207173D01*
X86941487Y-52120317D01*
X86908884Y-52019975D01*
X86908882Y-52019972D01*
X86908882Y-52019970D01*
X86861743Y-51927455D01*
X86819524Y-51844595D01*
X86703828Y-51685354D01*
X86564646Y-51546172D01*
X86405405Y-51430476D01*
X86341569Y-51397950D01*
X86230029Y-51341117D01*
X86042826Y-51280290D01*
X85848422Y-51249500D01*
X85848417Y-51249500D01*
X85651583Y-51249500D01*
X85651578Y-51249500D01*
X85457173Y-51280290D01*
X85269970Y-51341117D01*
X85094594Y-51430476D01*
X85035555Y-51473371D01*
X84935354Y-51546172D01*
X84935352Y-51546174D01*
X84935351Y-51546174D01*
X84796174Y-51685351D01*
X84796174Y-51685352D01*
X84796172Y-51685354D01*
X84769389Y-51722218D01*
X84680476Y-51844594D01*
X84591117Y-52019970D01*
X84530290Y-52207173D01*
X84499500Y-52401577D01*
X84499500Y-52598422D01*
X84530290Y-52792826D01*
X84591117Y-52980029D01*
X84671169Y-53137139D01*
X84680476Y-53155405D01*
X84796172Y-53314646D01*
X84935354Y-53453828D01*
X85094595Y-53569524D01*
X85164390Y-53605086D01*
X85269970Y-53658882D01*
X85269972Y-53658882D01*
X85269975Y-53658884D01*
X85348902Y-53684529D01*
X85457173Y-53719709D01*
X85651578Y-53750500D01*
X85651583Y-53750500D01*
X85848422Y-53750500D01*
X86042826Y-53719709D01*
X86230025Y-53658884D01*
X86230038Y-53658877D01*
X86232989Y-53657655D01*
X86234210Y-53657523D01*
X86234658Y-53657378D01*
X86234688Y-53657472D01*
X86302457Y-53650177D01*
X86364940Y-53681445D01*
X86368113Y-53684506D01*
X86587335Y-53903727D01*
X86664181Y-53980573D01*
X86697666Y-54041896D01*
X86700500Y-54068254D01*
X86700500Y-55901511D01*
X86680815Y-55968550D01*
X86628011Y-56014305D01*
X86558853Y-56024249D01*
X86503615Y-56001829D01*
X86405408Y-55930478D01*
X86405407Y-55930477D01*
X86405405Y-55930476D01*
X86348558Y-55901511D01*
X86230029Y-55841117D01*
X86042826Y-55780290D01*
X85848422Y-55749500D01*
X85848417Y-55749500D01*
X85651583Y-55749500D01*
X85651578Y-55749500D01*
X85457173Y-55780290D01*
X85269970Y-55841117D01*
X85094594Y-55930476D01*
X85042191Y-55968550D01*
X84935354Y-56046172D01*
X84935352Y-56046174D01*
X84935351Y-56046174D01*
X84796174Y-56185351D01*
X84796174Y-56185352D01*
X84796172Y-56185354D01*
X84746485Y-56253741D01*
X84680476Y-56344594D01*
X84591117Y-56519970D01*
X84530290Y-56707173D01*
X84499500Y-56901577D01*
X84499500Y-57098422D01*
X84530290Y-57292826D01*
X84591117Y-57480029D01*
X84652945Y-57601372D01*
X84680476Y-57655405D01*
X84796172Y-57814646D01*
X84935354Y-57953828D01*
X85094595Y-58069524D01*
X85160039Y-58102869D01*
X85269970Y-58158882D01*
X85269972Y-58158882D01*
X85269975Y-58158884D01*
X85370317Y-58191487D01*
X85457173Y-58219709D01*
X85651578Y-58250500D01*
X85651583Y-58250500D01*
X85848422Y-58250500D01*
X86042826Y-58219709D01*
X86097171Y-58202051D01*
X86230025Y-58158884D01*
X86405405Y-58069524D01*
X86503615Y-57998169D01*
X86569420Y-57974690D01*
X86637474Y-57990515D01*
X86686169Y-58040621D01*
X86700500Y-58098488D01*
X86700500Y-64054777D01*
X86680815Y-64121816D01*
X86664181Y-64142458D01*
X84094458Y-66712181D01*
X84033135Y-66745666D01*
X84006777Y-66748500D01*
X84001557Y-66748500D01*
X83873025Y-66782940D01*
X83861543Y-66786017D01*
X83736020Y-66858488D01*
X83736014Y-66858493D01*
X83633525Y-66960982D01*
X83633520Y-66960988D01*
X83561049Y-67086511D01*
X83561048Y-67086515D01*
X83523532Y-67226525D01*
X81865500Y-67226525D01*
X81865500Y-59218858D01*
X81865500Y-59218856D01*
X81841614Y-59129712D01*
X81795470Y-59049788D01*
X80410758Y-57665076D01*
X80377273Y-57603753D01*
X80382257Y-57534061D01*
X80387951Y-57521106D01*
X80408884Y-57480025D01*
X80469709Y-57292826D01*
X80486197Y-57188726D01*
X80500500Y-57098422D01*
X80500500Y-56901577D01*
X80469709Y-56707173D01*
X80441487Y-56620317D01*
X80408884Y-56519975D01*
X80408882Y-56519972D01*
X80408882Y-56519970D01*
X80361743Y-56427455D01*
X80319524Y-56344595D01*
X80203828Y-56185354D01*
X80064646Y-56046172D01*
X79905405Y-55930476D01*
X79848558Y-55901511D01*
X79730029Y-55841117D01*
X79542826Y-55780290D01*
X79348422Y-55749500D01*
X79348417Y-55749500D01*
X79151583Y-55749500D01*
X79151578Y-55749500D01*
X78957173Y-55780290D01*
X78769970Y-55841117D01*
X78594594Y-55930476D01*
X78542191Y-55968550D01*
X78435354Y-56046172D01*
X78435352Y-56046174D01*
X78435351Y-56046174D01*
X78296174Y-56185351D01*
X78296174Y-56185352D01*
X78296172Y-56185354D01*
X78246485Y-56253741D01*
X78180476Y-56344594D01*
X78091117Y-56519970D01*
X78030290Y-56707173D01*
X77999500Y-56901577D01*
X74342754Y-56901577D01*
X74339459Y-56893622D01*
X74286635Y-56766092D01*
X74286628Y-56766079D01*
X74177139Y-56602218D01*
X74177136Y-56602214D01*
X74037785Y-56462863D01*
X74037781Y-56462860D01*
X73873920Y-56353371D01*
X73873907Y-56353364D01*
X73691839Y-56277950D01*
X73691829Y-56277947D01*
X73498543Y-56239500D01*
X73498541Y-56239500D01*
X73301459Y-56239500D01*
X73301457Y-56239500D01*
X73108170Y-56277947D01*
X73108160Y-56277950D01*
X72926092Y-56353364D01*
X72926079Y-56353371D01*
X72762218Y-56462860D01*
X72762214Y-56462863D01*
X72622863Y-56602214D01*
X72622860Y-56602218D01*
X72513371Y-56766079D01*
X72513364Y-56766092D01*
X72437950Y-56948160D01*
X72437947Y-56948170D01*
X72399500Y-57141456D01*
X72399500Y-57141459D01*
X72399500Y-57338541D01*
X72399500Y-57338543D01*
X72399499Y-57338543D01*
X63790905Y-57338543D01*
X63740578Y-57239771D01*
X63717679Y-57208253D01*
X63669150Y-57141459D01*
X63606379Y-57055063D01*
X63444937Y-56893621D01*
X63260228Y-56759421D01*
X63056803Y-56655770D01*
X62839660Y-56585215D01*
X62614162Y-56549500D01*
X62614157Y-56549500D01*
X62385843Y-56549500D01*
X62385838Y-56549500D01*
X62160339Y-56585215D01*
X61943196Y-56655770D01*
X61739771Y-56759421D01*
X61555061Y-56893622D01*
X61393622Y-57055061D01*
X61259421Y-57239771D01*
X61155770Y-57443196D01*
X61085215Y-57660339D01*
X61049500Y-57885837D01*
X46700500Y-57885837D01*
X46700500Y-52827399D01*
X52129500Y-52827399D01*
X52129500Y-52952601D01*
X52161905Y-53073536D01*
X52224505Y-53181964D01*
X52313036Y-53270495D01*
X52421464Y-53333095D01*
X52542399Y-53365500D01*
X52542401Y-53365500D01*
X52667599Y-53365500D01*
X52667601Y-53365500D01*
X52788536Y-53333095D01*
X52896964Y-53270495D01*
X52985495Y-53181964D01*
X53048095Y-53073536D01*
X53080500Y-52952601D01*
X53080500Y-52827399D01*
X53048095Y-52706464D01*
X52985495Y-52598036D01*
X52896964Y-52509505D01*
X52808694Y-52458543D01*
X72399499Y-52458543D01*
X72437947Y-52651829D01*
X72437950Y-52651839D01*
X72513364Y-52833907D01*
X72513371Y-52833920D01*
X72622860Y-52997781D01*
X72622863Y-52997785D01*
X72762214Y-53137136D01*
X72762218Y-53137139D01*
X72926079Y-53246628D01*
X72926092Y-53246635D01*
X73090290Y-53314647D01*
X73108165Y-53322051D01*
X73108169Y-53322051D01*
X73108170Y-53322052D01*
X73301456Y-53360500D01*
X73301459Y-53360500D01*
X73498543Y-53360500D01*
X73636319Y-53333094D01*
X73691835Y-53322051D01*
X73873914Y-53246632D01*
X74037782Y-53137139D01*
X74177139Y-52997782D01*
X74286632Y-52833914D01*
X74362051Y-52651835D01*
X74374632Y-52588582D01*
X74400500Y-52458543D01*
X74400500Y-52401577D01*
X77999500Y-52401577D01*
X77999500Y-52598422D01*
X78030290Y-52792826D01*
X78091117Y-52980029D01*
X78171169Y-53137139D01*
X78180476Y-53155405D01*
X78296172Y-53314646D01*
X78435354Y-53453828D01*
X78594595Y-53569524D01*
X78664390Y-53605086D01*
X78769970Y-53658882D01*
X78769972Y-53658882D01*
X78769975Y-53658884D01*
X78848902Y-53684529D01*
X78957173Y-53719709D01*
X79151578Y-53750500D01*
X79151583Y-53750500D01*
X79348422Y-53750500D01*
X79542826Y-53719709D01*
X79730025Y-53658884D01*
X79905405Y-53569524D01*
X80064646Y-53453828D01*
X80203828Y-53314646D01*
X80319524Y-53155405D01*
X80408884Y-52980025D01*
X80469709Y-52792826D01*
X80500500Y-52598422D01*
X80500500Y-52401577D01*
X80469709Y-52207173D01*
X80441487Y-52120317D01*
X80408884Y-52019975D01*
X80408882Y-52019972D01*
X80408882Y-52019970D01*
X80361743Y-51927455D01*
X80319524Y-51844595D01*
X80203828Y-51685354D01*
X80064646Y-51546172D01*
X79905405Y-51430476D01*
X79841569Y-51397950D01*
X79730029Y-51341117D01*
X79542826Y-51280290D01*
X79348422Y-51249500D01*
X79348417Y-51249500D01*
X79151583Y-51249500D01*
X79151578Y-51249500D01*
X78957173Y-51280290D01*
X78769970Y-51341117D01*
X78594594Y-51430476D01*
X78535555Y-51473371D01*
X78435354Y-51546172D01*
X78435352Y-51546174D01*
X78435351Y-51546174D01*
X78296174Y-51685351D01*
X78296174Y-51685352D01*
X78296172Y-51685354D01*
X78269389Y-51722218D01*
X78180476Y-51844594D01*
X78091117Y-52019970D01*
X78030290Y-52207173D01*
X77999500Y-52401577D01*
X74400500Y-52401577D01*
X74400500Y-52261456D01*
X74362052Y-52068170D01*
X74362051Y-52068169D01*
X74362051Y-52068165D01*
X74342088Y-52019970D01*
X74286635Y-51886092D01*
X74286628Y-51886079D01*
X74177139Y-51722218D01*
X74177136Y-51722214D01*
X74037785Y-51582863D01*
X74037781Y-51582860D01*
X73873920Y-51473371D01*
X73873907Y-51473364D01*
X73691839Y-51397950D01*
X73691829Y-51397947D01*
X73498543Y-51359500D01*
X73498541Y-51359500D01*
X73301459Y-51359500D01*
X73301457Y-51359500D01*
X73108170Y-51397947D01*
X73108160Y-51397950D01*
X72926092Y-51473364D01*
X72926079Y-51473371D01*
X72762218Y-51582860D01*
X72762214Y-51582863D01*
X72622863Y-51722214D01*
X72622860Y-51722218D01*
X72513371Y-51886079D01*
X72513364Y-51886092D01*
X72437950Y-52068160D01*
X72437947Y-52068170D01*
X72399500Y-52261456D01*
X72399500Y-52261459D01*
X72399500Y-52458541D01*
X72399500Y-52458543D01*
X72399499Y-52458543D01*
X52808694Y-52458543D01*
X52788536Y-52446905D01*
X52788537Y-52446905D01*
X52748224Y-52436103D01*
X52667601Y-52414500D01*
X52542399Y-52414500D01*
X52461775Y-52436103D01*
X52421463Y-52446905D01*
X52313037Y-52509504D01*
X52313034Y-52509506D01*
X52224506Y-52598034D01*
X52224504Y-52598037D01*
X52161905Y-52706463D01*
X52161905Y-52706464D01*
X52129500Y-52827399D01*
X46700500Y-52827399D01*
X46700500Y-50836600D01*
X52074500Y-50836600D01*
X52074500Y-50981550D01*
X52112016Y-51121560D01*
X52112017Y-51121563D01*
X52184488Y-51247086D01*
X52184490Y-51247088D01*
X52184491Y-51247090D01*
X52286985Y-51349584D01*
X52286986Y-51349585D01*
X52286988Y-51349586D01*
X52412511Y-51422057D01*
X52412512Y-51422057D01*
X52412515Y-51422059D01*
X52552525Y-51459575D01*
X52552528Y-51459575D01*
X52697472Y-51459575D01*
X52697475Y-51459575D01*
X52837485Y-51422059D01*
X52963015Y-51349584D01*
X53065509Y-51247090D01*
X53137984Y-51121560D01*
X53175500Y-50981550D01*
X53175500Y-50836600D01*
X53137984Y-50696590D01*
X53065509Y-50571060D01*
X53011819Y-50517370D01*
X52997115Y-50490442D01*
X52980523Y-50464624D01*
X52979631Y-50458423D01*
X52978334Y-50456047D01*
X52975500Y-50429689D01*
X52975500Y-50254386D01*
X52995185Y-50187347D01*
X53011819Y-50166705D01*
X53034892Y-50143632D01*
X53090509Y-50088015D01*
X53162984Y-49962485D01*
X53200500Y-49822475D01*
X53200500Y-49677525D01*
X53162984Y-49537515D01*
X53090509Y-49411985D01*
X52988015Y-49309491D01*
X52988013Y-49309490D01*
X52988011Y-49309488D01*
X52862488Y-49237017D01*
X52862489Y-49237017D01*
X52851006Y-49233940D01*
X52722475Y-49199500D01*
X52577525Y-49199500D01*
X52448993Y-49233940D01*
X52437511Y-49237017D01*
X52311988Y-49309488D01*
X52311982Y-49309493D01*
X52209493Y-49411982D01*
X52209488Y-49411988D01*
X52137017Y-49537511D01*
X52137016Y-49537515D01*
X52099500Y-49677525D01*
X52099500Y-49822475D01*
X52137016Y-49962485D01*
X52137017Y-49962488D01*
X52209488Y-50088011D01*
X52209493Y-50088017D01*
X52238181Y-50116705D01*
X52252884Y-50143632D01*
X52269477Y-50169451D01*
X52270368Y-50175651D01*
X52271666Y-50178028D01*
X52274500Y-50204386D01*
X52274500Y-50429689D01*
X52254815Y-50496728D01*
X52238181Y-50517370D01*
X52184493Y-50571057D01*
X52184488Y-50571063D01*
X52112017Y-50696586D01*
X52112016Y-50696590D01*
X52074500Y-50836600D01*
X46700500Y-50836600D01*
X46700500Y-47047399D01*
X52129500Y-47047399D01*
X52129500Y-47172601D01*
X52161905Y-47293536D01*
X52224505Y-47401964D01*
X52313036Y-47490495D01*
X52421464Y-47553095D01*
X52542399Y-47585500D01*
X52542401Y-47585500D01*
X52667599Y-47585500D01*
X52667601Y-47585500D01*
X52788536Y-47553095D01*
X52896964Y-47490495D01*
X52985495Y-47401964D01*
X52994806Y-47385837D01*
X91049500Y-47385837D01*
X91049500Y-47614162D01*
X91085215Y-47839660D01*
X91155770Y-48056803D01*
X91259421Y-48260228D01*
X91393621Y-48444937D01*
X91555063Y-48606379D01*
X91739772Y-48740579D01*
X91835884Y-48789550D01*
X91943196Y-48844229D01*
X91943198Y-48844229D01*
X91943201Y-48844231D01*
X92059592Y-48882049D01*
X92160339Y-48914784D01*
X92385838Y-48950500D01*
X92385843Y-48950500D01*
X92614162Y-48950500D01*
X92839660Y-48914784D01*
X93056799Y-48844231D01*
X93260228Y-48740579D01*
X93444937Y-48606379D01*
X93606379Y-48444937D01*
X93740579Y-48260228D01*
X93844231Y-48056799D01*
X93914784Y-47839660D01*
X93950500Y-47614162D01*
X93950500Y-47385837D01*
X93914784Y-47160339D01*
X93844229Y-46943196D01*
X93740578Y-46739771D01*
X93733120Y-46729506D01*
X93606379Y-46555063D01*
X93444937Y-46393621D01*
X93260228Y-46259421D01*
X93056803Y-46155770D01*
X92839660Y-46085215D01*
X92614162Y-46049500D01*
X92614157Y-46049500D01*
X92385843Y-46049500D01*
X92385838Y-46049500D01*
X92160339Y-46085215D01*
X91943196Y-46155770D01*
X91739771Y-46259421D01*
X91555061Y-46393622D01*
X91393622Y-46555061D01*
X91259421Y-46739771D01*
X91155770Y-46943196D01*
X91085215Y-47160339D01*
X91049500Y-47385837D01*
X52994806Y-47385837D01*
X53048095Y-47293536D01*
X53080500Y-47172601D01*
X53080500Y-47047399D01*
X53048095Y-46926464D01*
X52985495Y-46818036D01*
X52896964Y-46729505D01*
X52788536Y-46666905D01*
X52788537Y-46666905D01*
X52748224Y-46656103D01*
X52667601Y-46634500D01*
X52542399Y-46634500D01*
X52461775Y-46656103D01*
X52421463Y-46666905D01*
X52313037Y-46729504D01*
X52313034Y-46729506D01*
X52224506Y-46818034D01*
X52224504Y-46818037D01*
X52161905Y-46926463D01*
X52157420Y-46943201D01*
X52129500Y-47047399D01*
X46700500Y-47047399D01*
X46700500Y-44254066D01*
X46700765Y-44245956D01*
X46709224Y-44116894D01*
X46715364Y-44023207D01*
X46717479Y-44007153D01*
X46760230Y-43792226D01*
X46764428Y-43776561D01*
X46826349Y-43594148D01*
X46834868Y-43569049D01*
X46841067Y-43554083D01*
X46937995Y-43357533D01*
X46946098Y-43343498D01*
X47067853Y-43161279D01*
X47077710Y-43148433D01*
X47222207Y-42983665D01*
X47233665Y-42972207D01*
X47398433Y-42827710D01*
X47411279Y-42817853D01*
X47593498Y-42696098D01*
X47607533Y-42687995D01*
X47804083Y-42591067D01*
X47819049Y-42584868D01*
X48025945Y-42514637D01*
X48026561Y-42514428D01*
X48042228Y-42510230D01*
X48257153Y-42467479D01*
X48273209Y-42465364D01*
X48478058Y-42451938D01*
X48495958Y-42450765D01*
X48504067Y-42450500D01*
X48539882Y-42450500D01*
X95960118Y-42450500D01*
X95995933Y-42450500D01*
X96004043Y-42450765D01*
G37*
%TD.AperFunction*%
%TD*%
M02*
