M48
; DRILL file {KiCad 9.0.6} date 2025-12-05T18:50:47-1000
; FORMAT={-:-/ absolute / metric / decimal}
; #@! TF.CreationDate,2025-12-05T18:50:47-10:00
; #@! TF.GenerationSoftware,Kicad,Pcbnew,9.0.6
; #@! TF.FileFunction,Plated,1,2,PTH
FMAT,2
METRIC
; #@! TA.AperFunction,Plated,PTH,ViaDrill
T1C0.300
; #@! TA.AperFunction,Plated,PTH,ComponentDrill
T2C0.600
; #@! TA.AperFunction,Plated,PTH,ComponentDrill
T3C0.800
; #@! TA.AperFunction,Plated,PTH,ComponentDrill
T4C1.100
%
G90
G05
T1
X52.5Y-79.75
X52.5Y-80.875
X52.625Y-50.909
X52.65Y-49.75
X52.715Y-64.673
X52.746Y-65.796
X59.0Y-47.5
X59.0Y-52.5
X59.0Y-62.5
X59.0Y-67.5
X59.0Y-77.5
X59.0Y-82.5
X60.594Y-67.394
X61.0Y-72.0
X62.007Y-80.0
X62.007Y-65.0
X62.207Y-50.0
X62.5Y-54.25
X63.984Y-69.264
X64.25Y-65.75
X66.0Y-83.0
X66.2Y-64.6
X66.45Y-68.42
X69.2Y-66.6
X78.09Y-69.84
X80.06Y-70.96
X80.5Y-95.75
X81.515Y-86.015
X82.425Y-70.0
X84.074Y-67.299
X84.582Y-94.917
X84.85Y-91.65
X85.5Y-68.0
X85.5Y-72.0
X85.6Y-94.0
X87.25Y-94.25
X87.875Y-90.35
X91.69Y-69.0
X91.69Y-70.2
T2
X52.3Y-91.55
X53.8Y-91.55
X59.0Y-91.6
X60.5Y-91.6
X67.75Y-91.0
X69.25Y-91.0
X73.75Y-91.0
X75.25Y-91.0
T3
X73.4Y-52.36
X73.4Y-57.24
X83.81Y-99.025
X88.69Y-99.025
T4
X79.25Y-52.5
X79.25Y-57.0
X85.75Y-52.5
X85.75Y-57.0
M30
