%TF.GenerationSoftware,KiCad,Pcbnew,9.0.6*%
%TF.CreationDate,2025-12-10T20:15:34-10:00*%
%TF.ProjectId,PCB,5043422e-6b69-4636-9164-5f7063625858,rev?*%
%TF.SameCoordinates,Original*%
%TF.FileFunction,Legend,Top*%
%TF.FilePolarity,Positive*%
%FSLAX46Y46*%
G04 Gerber Fmt 4.6, Leading zero omitted, Abs format (unit mm)*
G04 Created by KiCad (PCBNEW 9.0.6) date 2025-12-10 20:15:34*
%MOMM*%
%LPD*%
G01*
G04 APERTURE LIST*
%ADD10C,0.150000*%
%ADD11C,0.120000*%
%ADD12C,0.000000*%
G04 APERTURE END LIST*
D10*
X61238095Y-51854819D02*
X61238095Y-52664342D01*
X61238095Y-52664342D02*
X61285714Y-52759580D01*
X61285714Y-52759580D02*
X61333333Y-52807200D01*
X61333333Y-52807200D02*
X61428571Y-52854819D01*
X61428571Y-52854819D02*
X61619047Y-52854819D01*
X61619047Y-52854819D02*
X61714285Y-52807200D01*
X61714285Y-52807200D02*
X61761904Y-52759580D01*
X61761904Y-52759580D02*
X61809523Y-52664342D01*
X61809523Y-52664342D02*
X61809523Y-51854819D01*
X62238095Y-51950057D02*
X62285714Y-51902438D01*
X62285714Y-51902438D02*
X62380952Y-51854819D01*
X62380952Y-51854819D02*
X62619047Y-51854819D01*
X62619047Y-51854819D02*
X62714285Y-51902438D01*
X62714285Y-51902438D02*
X62761904Y-51950057D01*
X62761904Y-51950057D02*
X62809523Y-52045295D01*
X62809523Y-52045295D02*
X62809523Y-52140533D01*
X62809523Y-52140533D02*
X62761904Y-52283390D01*
X62761904Y-52283390D02*
X62190476Y-52854819D01*
X62190476Y-52854819D02*
X62809523Y-52854819D01*
X88729818Y-70333333D02*
X89444103Y-70333333D01*
X89444103Y-70333333D02*
X89586960Y-70380952D01*
X89586960Y-70380952D02*
X89682199Y-70476190D01*
X89682199Y-70476190D02*
X89729818Y-70619047D01*
X89729818Y-70619047D02*
X89729818Y-70714285D01*
X89063151Y-69428571D02*
X89729818Y-69428571D01*
X88682199Y-69666666D02*
X89396484Y-69904761D01*
X89396484Y-69904761D02*
X89396484Y-69285714D01*
X55804819Y-62166666D02*
X55328628Y-62499999D01*
X55804819Y-62738094D02*
X54804819Y-62738094D01*
X54804819Y-62738094D02*
X54804819Y-62357142D01*
X54804819Y-62357142D02*
X54852438Y-62261904D01*
X54852438Y-62261904D02*
X54900057Y-62214285D01*
X54900057Y-62214285D02*
X54995295Y-62166666D01*
X54995295Y-62166666D02*
X55138152Y-62166666D01*
X55138152Y-62166666D02*
X55233390Y-62214285D01*
X55233390Y-62214285D02*
X55281009Y-62261904D01*
X55281009Y-62261904D02*
X55328628Y-62357142D01*
X55328628Y-62357142D02*
X55328628Y-62738094D01*
X55138152Y-61309523D02*
X55804819Y-61309523D01*
X54757200Y-61547618D02*
X55471485Y-61785713D01*
X55471485Y-61785713D02*
X55471485Y-61166666D01*
X73857142Y-94609580D02*
X73809523Y-94657200D01*
X73809523Y-94657200D02*
X73666666Y-94704819D01*
X73666666Y-94704819D02*
X73571428Y-94704819D01*
X73571428Y-94704819D02*
X73428571Y-94657200D01*
X73428571Y-94657200D02*
X73333333Y-94561961D01*
X73333333Y-94561961D02*
X73285714Y-94466723D01*
X73285714Y-94466723D02*
X73238095Y-94276247D01*
X73238095Y-94276247D02*
X73238095Y-94133390D01*
X73238095Y-94133390D02*
X73285714Y-93942914D01*
X73285714Y-93942914D02*
X73333333Y-93847676D01*
X73333333Y-93847676D02*
X73428571Y-93752438D01*
X73428571Y-93752438D02*
X73571428Y-93704819D01*
X73571428Y-93704819D02*
X73666666Y-93704819D01*
X73666666Y-93704819D02*
X73809523Y-93752438D01*
X73809523Y-93752438D02*
X73857142Y-93800057D01*
X74809523Y-94704819D02*
X74238095Y-94704819D01*
X74523809Y-94704819D02*
X74523809Y-93704819D01*
X74523809Y-93704819D02*
X74428571Y-93847676D01*
X74428571Y-93847676D02*
X74333333Y-93942914D01*
X74333333Y-93942914D02*
X74238095Y-93990533D01*
X75190476Y-93800057D02*
X75238095Y-93752438D01*
X75238095Y-93752438D02*
X75333333Y-93704819D01*
X75333333Y-93704819D02*
X75571428Y-93704819D01*
X75571428Y-93704819D02*
X75666666Y-93752438D01*
X75666666Y-93752438D02*
X75714285Y-93800057D01*
X75714285Y-93800057D02*
X75761904Y-93895295D01*
X75761904Y-93895295D02*
X75761904Y-93990533D01*
X75761904Y-93990533D02*
X75714285Y-94133390D01*
X75714285Y-94133390D02*
X75142857Y-94704819D01*
X75142857Y-94704819D02*
X75761904Y-94704819D01*
X59039579Y-87666666D02*
X59087199Y-87714285D01*
X59087199Y-87714285D02*
X59134818Y-87857142D01*
X59134818Y-87857142D02*
X59134818Y-87952380D01*
X59134818Y-87952380D02*
X59087199Y-88095237D01*
X59087199Y-88095237D02*
X58991960Y-88190475D01*
X58991960Y-88190475D02*
X58896722Y-88238094D01*
X58896722Y-88238094D02*
X58706246Y-88285713D01*
X58706246Y-88285713D02*
X58563389Y-88285713D01*
X58563389Y-88285713D02*
X58372913Y-88238094D01*
X58372913Y-88238094D02*
X58277675Y-88190475D01*
X58277675Y-88190475D02*
X58182437Y-88095237D01*
X58182437Y-88095237D02*
X58134818Y-87952380D01*
X58134818Y-87952380D02*
X58134818Y-87857142D01*
X58134818Y-87857142D02*
X58182437Y-87714285D01*
X58182437Y-87714285D02*
X58230056Y-87666666D01*
X58134818Y-86761904D02*
X58134818Y-87238094D01*
X58134818Y-87238094D02*
X58611008Y-87285713D01*
X58611008Y-87285713D02*
X58563389Y-87238094D01*
X58563389Y-87238094D02*
X58515770Y-87142856D01*
X58515770Y-87142856D02*
X58515770Y-86904761D01*
X58515770Y-86904761D02*
X58563389Y-86809523D01*
X58563389Y-86809523D02*
X58611008Y-86761904D01*
X58611008Y-86761904D02*
X58706246Y-86714285D01*
X58706246Y-86714285D02*
X58944341Y-86714285D01*
X58944341Y-86714285D02*
X59039579Y-86761904D01*
X59039579Y-86761904D02*
X59087199Y-86809523D01*
X59087199Y-86809523D02*
X59134818Y-86904761D01*
X59134818Y-86904761D02*
X59134818Y-87142856D01*
X59134818Y-87142856D02*
X59087199Y-87238094D01*
X59087199Y-87238094D02*
X59039579Y-87285713D01*
X88123333Y-77679580D02*
X88075714Y-77727200D01*
X88075714Y-77727200D02*
X87932857Y-77774819D01*
X87932857Y-77774819D02*
X87837619Y-77774819D01*
X87837619Y-77774819D02*
X87694762Y-77727200D01*
X87694762Y-77727200D02*
X87599524Y-77631961D01*
X87599524Y-77631961D02*
X87551905Y-77536723D01*
X87551905Y-77536723D02*
X87504286Y-77346247D01*
X87504286Y-77346247D02*
X87504286Y-77203390D01*
X87504286Y-77203390D02*
X87551905Y-77012914D01*
X87551905Y-77012914D02*
X87599524Y-76917676D01*
X87599524Y-76917676D02*
X87694762Y-76822438D01*
X87694762Y-76822438D02*
X87837619Y-76774819D01*
X87837619Y-76774819D02*
X87932857Y-76774819D01*
X87932857Y-76774819D02*
X88075714Y-76822438D01*
X88075714Y-76822438D02*
X88123333Y-76870057D01*
X88980476Y-76774819D02*
X88790000Y-76774819D01*
X88790000Y-76774819D02*
X88694762Y-76822438D01*
X88694762Y-76822438D02*
X88647143Y-76870057D01*
X88647143Y-76870057D02*
X88551905Y-77012914D01*
X88551905Y-77012914D02*
X88504286Y-77203390D01*
X88504286Y-77203390D02*
X88504286Y-77584342D01*
X88504286Y-77584342D02*
X88551905Y-77679580D01*
X88551905Y-77679580D02*
X88599524Y-77727200D01*
X88599524Y-77727200D02*
X88694762Y-77774819D01*
X88694762Y-77774819D02*
X88885238Y-77774819D01*
X88885238Y-77774819D02*
X88980476Y-77727200D01*
X88980476Y-77727200D02*
X89028095Y-77679580D01*
X89028095Y-77679580D02*
X89075714Y-77584342D01*
X89075714Y-77584342D02*
X89075714Y-77346247D01*
X89075714Y-77346247D02*
X89028095Y-77251009D01*
X89028095Y-77251009D02*
X88980476Y-77203390D01*
X88980476Y-77203390D02*
X88885238Y-77155771D01*
X88885238Y-77155771D02*
X88694762Y-77155771D01*
X88694762Y-77155771D02*
X88599524Y-77203390D01*
X88599524Y-77203390D02*
X88551905Y-77251009D01*
X88551905Y-77251009D02*
X88504286Y-77346247D01*
X81988095Y-81479819D02*
X81988095Y-82289342D01*
X81988095Y-82289342D02*
X82035714Y-82384580D01*
X82035714Y-82384580D02*
X82083333Y-82432200D01*
X82083333Y-82432200D02*
X82178571Y-82479819D01*
X82178571Y-82479819D02*
X82369047Y-82479819D01*
X82369047Y-82479819D02*
X82464285Y-82432200D01*
X82464285Y-82432200D02*
X82511904Y-82384580D01*
X82511904Y-82384580D02*
X82559523Y-82289342D01*
X82559523Y-82289342D02*
X82559523Y-81479819D01*
X83559523Y-82479819D02*
X82988095Y-82479819D01*
X83273809Y-82479819D02*
X83273809Y-81479819D01*
X83273809Y-81479819D02*
X83178571Y-81622676D01*
X83178571Y-81622676D02*
X83083333Y-81717914D01*
X83083333Y-81717914D02*
X82988095Y-81765533D01*
X88554819Y-54916666D02*
X88078628Y-55249999D01*
X88554819Y-55488094D02*
X87554819Y-55488094D01*
X87554819Y-55488094D02*
X87554819Y-55107142D01*
X87554819Y-55107142D02*
X87602438Y-55011904D01*
X87602438Y-55011904D02*
X87650057Y-54964285D01*
X87650057Y-54964285D02*
X87745295Y-54916666D01*
X87745295Y-54916666D02*
X87888152Y-54916666D01*
X87888152Y-54916666D02*
X87983390Y-54964285D01*
X87983390Y-54964285D02*
X88031009Y-55011904D01*
X88031009Y-55011904D02*
X88078628Y-55107142D01*
X88078628Y-55107142D02*
X88078628Y-55488094D01*
X88554819Y-53964285D02*
X88554819Y-54535713D01*
X88554819Y-54249999D02*
X87554819Y-54249999D01*
X87554819Y-54249999D02*
X87697676Y-54345237D01*
X87697676Y-54345237D02*
X87792914Y-54440475D01*
X87792914Y-54440475D02*
X87840533Y-54535713D01*
X55804819Y-77366666D02*
X55328628Y-77699999D01*
X55804819Y-77938094D02*
X54804819Y-77938094D01*
X54804819Y-77938094D02*
X54804819Y-77557142D01*
X54804819Y-77557142D02*
X54852438Y-77461904D01*
X54852438Y-77461904D02*
X54900057Y-77414285D01*
X54900057Y-77414285D02*
X54995295Y-77366666D01*
X54995295Y-77366666D02*
X55138152Y-77366666D01*
X55138152Y-77366666D02*
X55233390Y-77414285D01*
X55233390Y-77414285D02*
X55281009Y-77461904D01*
X55281009Y-77461904D02*
X55328628Y-77557142D01*
X55328628Y-77557142D02*
X55328628Y-77938094D01*
X54804819Y-76509523D02*
X54804819Y-76699999D01*
X54804819Y-76699999D02*
X54852438Y-76795237D01*
X54852438Y-76795237D02*
X54900057Y-76842856D01*
X54900057Y-76842856D02*
X55042914Y-76938094D01*
X55042914Y-76938094D02*
X55233390Y-76985713D01*
X55233390Y-76985713D02*
X55614342Y-76985713D01*
X55614342Y-76985713D02*
X55709580Y-76938094D01*
X55709580Y-76938094D02*
X55757200Y-76890475D01*
X55757200Y-76890475D02*
X55804819Y-76795237D01*
X55804819Y-76795237D02*
X55804819Y-76604761D01*
X55804819Y-76604761D02*
X55757200Y-76509523D01*
X55757200Y-76509523D02*
X55709580Y-76461904D01*
X55709580Y-76461904D02*
X55614342Y-76414285D01*
X55614342Y-76414285D02*
X55376247Y-76414285D01*
X55376247Y-76414285D02*
X55281009Y-76461904D01*
X55281009Y-76461904D02*
X55233390Y-76509523D01*
X55233390Y-76509523D02*
X55185771Y-76604761D01*
X55185771Y-76604761D02*
X55185771Y-76795237D01*
X55185771Y-76795237D02*
X55233390Y-76890475D01*
X55233390Y-76890475D02*
X55281009Y-76938094D01*
X55281009Y-76938094D02*
X55376247Y-76985713D01*
X77233333Y-69039579D02*
X77185714Y-69087199D01*
X77185714Y-69087199D02*
X77042857Y-69134818D01*
X77042857Y-69134818D02*
X76947619Y-69134818D01*
X76947619Y-69134818D02*
X76804762Y-69087199D01*
X76804762Y-69087199D02*
X76709524Y-68991960D01*
X76709524Y-68991960D02*
X76661905Y-68896722D01*
X76661905Y-68896722D02*
X76614286Y-68706246D01*
X76614286Y-68706246D02*
X76614286Y-68563389D01*
X76614286Y-68563389D02*
X76661905Y-68372913D01*
X76661905Y-68372913D02*
X76709524Y-68277675D01*
X76709524Y-68277675D02*
X76804762Y-68182437D01*
X76804762Y-68182437D02*
X76947619Y-68134818D01*
X76947619Y-68134818D02*
X77042857Y-68134818D01*
X77042857Y-68134818D02*
X77185714Y-68182437D01*
X77185714Y-68182437D02*
X77233333Y-68230056D01*
X78185714Y-69134818D02*
X77614286Y-69134818D01*
X77900000Y-69134818D02*
X77900000Y-68134818D01*
X77900000Y-68134818D02*
X77804762Y-68277675D01*
X77804762Y-68277675D02*
X77709524Y-68372913D01*
X77709524Y-68372913D02*
X77614286Y-68420532D01*
X55804819Y-47166666D02*
X55328628Y-47499999D01*
X55804819Y-47738094D02*
X54804819Y-47738094D01*
X54804819Y-47738094D02*
X54804819Y-47357142D01*
X54804819Y-47357142D02*
X54852438Y-47261904D01*
X54852438Y-47261904D02*
X54900057Y-47214285D01*
X54900057Y-47214285D02*
X54995295Y-47166666D01*
X54995295Y-47166666D02*
X55138152Y-47166666D01*
X55138152Y-47166666D02*
X55233390Y-47214285D01*
X55233390Y-47214285D02*
X55281009Y-47261904D01*
X55281009Y-47261904D02*
X55328628Y-47357142D01*
X55328628Y-47357142D02*
X55328628Y-47738094D01*
X54900057Y-46785713D02*
X54852438Y-46738094D01*
X54852438Y-46738094D02*
X54804819Y-46642856D01*
X54804819Y-46642856D02*
X54804819Y-46404761D01*
X54804819Y-46404761D02*
X54852438Y-46309523D01*
X54852438Y-46309523D02*
X54900057Y-46261904D01*
X54900057Y-46261904D02*
X54995295Y-46214285D01*
X54995295Y-46214285D02*
X55090533Y-46214285D01*
X55090533Y-46214285D02*
X55233390Y-46261904D01*
X55233390Y-46261904D02*
X55804819Y-46833332D01*
X55804819Y-46833332D02*
X55804819Y-46214285D01*
X59104819Y-53166666D02*
X58628628Y-53499999D01*
X59104819Y-53738094D02*
X58104819Y-53738094D01*
X58104819Y-53738094D02*
X58104819Y-53357142D01*
X58104819Y-53357142D02*
X58152438Y-53261904D01*
X58152438Y-53261904D02*
X58200057Y-53214285D01*
X58200057Y-53214285D02*
X58295295Y-53166666D01*
X58295295Y-53166666D02*
X58438152Y-53166666D01*
X58438152Y-53166666D02*
X58533390Y-53214285D01*
X58533390Y-53214285D02*
X58581009Y-53261904D01*
X58581009Y-53261904D02*
X58628628Y-53357142D01*
X58628628Y-53357142D02*
X58628628Y-53738094D01*
X58104819Y-52833332D02*
X58104819Y-52214285D01*
X58104819Y-52214285D02*
X58485771Y-52547618D01*
X58485771Y-52547618D02*
X58485771Y-52404761D01*
X58485771Y-52404761D02*
X58533390Y-52309523D01*
X58533390Y-52309523D02*
X58581009Y-52261904D01*
X58581009Y-52261904D02*
X58676247Y-52214285D01*
X58676247Y-52214285D02*
X58914342Y-52214285D01*
X58914342Y-52214285D02*
X59009580Y-52261904D01*
X59009580Y-52261904D02*
X59057200Y-52309523D01*
X59057200Y-52309523D02*
X59104819Y-52404761D01*
X59104819Y-52404761D02*
X59104819Y-52690475D01*
X59104819Y-52690475D02*
X59057200Y-52785713D01*
X59057200Y-52785713D02*
X59009580Y-52833332D01*
X59104819Y-82966666D02*
X58628628Y-83299999D01*
X59104819Y-83538094D02*
X58104819Y-83538094D01*
X58104819Y-83538094D02*
X58104819Y-83157142D01*
X58104819Y-83157142D02*
X58152438Y-83061904D01*
X58152438Y-83061904D02*
X58200057Y-83014285D01*
X58200057Y-83014285D02*
X58295295Y-82966666D01*
X58295295Y-82966666D02*
X58438152Y-82966666D01*
X58438152Y-82966666D02*
X58533390Y-83014285D01*
X58533390Y-83014285D02*
X58581009Y-83061904D01*
X58581009Y-83061904D02*
X58628628Y-83157142D01*
X58628628Y-83157142D02*
X58628628Y-83538094D01*
X58104819Y-82633332D02*
X58104819Y-81966666D01*
X58104819Y-81966666D02*
X59104819Y-82395237D01*
X69704819Y-101392857D02*
X69228628Y-101726190D01*
X69704819Y-101964285D02*
X68704819Y-101964285D01*
X68704819Y-101964285D02*
X68704819Y-101583333D01*
X68704819Y-101583333D02*
X68752438Y-101488095D01*
X68752438Y-101488095D02*
X68800057Y-101440476D01*
X68800057Y-101440476D02*
X68895295Y-101392857D01*
X68895295Y-101392857D02*
X69038152Y-101392857D01*
X69038152Y-101392857D02*
X69133390Y-101440476D01*
X69133390Y-101440476D02*
X69181009Y-101488095D01*
X69181009Y-101488095D02*
X69228628Y-101583333D01*
X69228628Y-101583333D02*
X69228628Y-101964285D01*
X69704819Y-100440476D02*
X69704819Y-101011904D01*
X69704819Y-100726190D02*
X68704819Y-100726190D01*
X68704819Y-100726190D02*
X68847676Y-100821428D01*
X68847676Y-100821428D02*
X68942914Y-100916666D01*
X68942914Y-100916666D02*
X68990533Y-101011904D01*
X68704819Y-99821428D02*
X68704819Y-99726190D01*
X68704819Y-99726190D02*
X68752438Y-99630952D01*
X68752438Y-99630952D02*
X68800057Y-99583333D01*
X68800057Y-99583333D02*
X68895295Y-99535714D01*
X68895295Y-99535714D02*
X69085771Y-99488095D01*
X69085771Y-99488095D02*
X69323866Y-99488095D01*
X69323866Y-99488095D02*
X69514342Y-99535714D01*
X69514342Y-99535714D02*
X69609580Y-99583333D01*
X69609580Y-99583333D02*
X69657200Y-99630952D01*
X69657200Y-99630952D02*
X69704819Y-99726190D01*
X69704819Y-99726190D02*
X69704819Y-99821428D01*
X69704819Y-99821428D02*
X69657200Y-99916666D01*
X69657200Y-99916666D02*
X69609580Y-99964285D01*
X69609580Y-99964285D02*
X69514342Y-100011904D01*
X69514342Y-100011904D02*
X69323866Y-100059523D01*
X69323866Y-100059523D02*
X69085771Y-100059523D01*
X69085771Y-100059523D02*
X68895295Y-100011904D01*
X68895295Y-100011904D02*
X68800057Y-99964285D01*
X68800057Y-99964285D02*
X68752438Y-99916666D01*
X68752438Y-99916666D02*
X68704819Y-99821428D01*
X59583333Y-95209580D02*
X59535714Y-95257200D01*
X59535714Y-95257200D02*
X59392857Y-95304819D01*
X59392857Y-95304819D02*
X59297619Y-95304819D01*
X59297619Y-95304819D02*
X59154762Y-95257200D01*
X59154762Y-95257200D02*
X59059524Y-95161961D01*
X59059524Y-95161961D02*
X59011905Y-95066723D01*
X59011905Y-95066723D02*
X58964286Y-94876247D01*
X58964286Y-94876247D02*
X58964286Y-94733390D01*
X58964286Y-94733390D02*
X59011905Y-94542914D01*
X59011905Y-94542914D02*
X59059524Y-94447676D01*
X59059524Y-94447676D02*
X59154762Y-94352438D01*
X59154762Y-94352438D02*
X59297619Y-94304819D01*
X59297619Y-94304819D02*
X59392857Y-94304819D01*
X59392857Y-94304819D02*
X59535714Y-94352438D01*
X59535714Y-94352438D02*
X59583333Y-94400057D01*
X59916667Y-94304819D02*
X60583333Y-94304819D01*
X60583333Y-94304819D02*
X60154762Y-95304819D01*
X75083333Y-99359580D02*
X75035714Y-99407200D01*
X75035714Y-99407200D02*
X74892857Y-99454819D01*
X74892857Y-99454819D02*
X74797619Y-99454819D01*
X74797619Y-99454819D02*
X74654762Y-99407200D01*
X74654762Y-99407200D02*
X74559524Y-99311961D01*
X74559524Y-99311961D02*
X74511905Y-99216723D01*
X74511905Y-99216723D02*
X74464286Y-99026247D01*
X74464286Y-99026247D02*
X74464286Y-98883390D01*
X74464286Y-98883390D02*
X74511905Y-98692914D01*
X74511905Y-98692914D02*
X74559524Y-98597676D01*
X74559524Y-98597676D02*
X74654762Y-98502438D01*
X74654762Y-98502438D02*
X74797619Y-98454819D01*
X74797619Y-98454819D02*
X74892857Y-98454819D01*
X74892857Y-98454819D02*
X75035714Y-98502438D01*
X75035714Y-98502438D02*
X75083333Y-98550057D01*
X75559524Y-99454819D02*
X75750000Y-99454819D01*
X75750000Y-99454819D02*
X75845238Y-99407200D01*
X75845238Y-99407200D02*
X75892857Y-99359580D01*
X75892857Y-99359580D02*
X75988095Y-99216723D01*
X75988095Y-99216723D02*
X76035714Y-99026247D01*
X76035714Y-99026247D02*
X76035714Y-98645295D01*
X76035714Y-98645295D02*
X75988095Y-98550057D01*
X75988095Y-98550057D02*
X75940476Y-98502438D01*
X75940476Y-98502438D02*
X75845238Y-98454819D01*
X75845238Y-98454819D02*
X75654762Y-98454819D01*
X75654762Y-98454819D02*
X75559524Y-98502438D01*
X75559524Y-98502438D02*
X75511905Y-98550057D01*
X75511905Y-98550057D02*
X75464286Y-98645295D01*
X75464286Y-98645295D02*
X75464286Y-98883390D01*
X75464286Y-98883390D02*
X75511905Y-98978628D01*
X75511905Y-98978628D02*
X75559524Y-99026247D01*
X75559524Y-99026247D02*
X75654762Y-99073866D01*
X75654762Y-99073866D02*
X75845238Y-99073866D01*
X75845238Y-99073866D02*
X75940476Y-99026247D01*
X75940476Y-99026247D02*
X75988095Y-98978628D01*
X75988095Y-98978628D02*
X76035714Y-98883390D01*
X55560180Y-79666666D02*
X54845895Y-79666666D01*
X54845895Y-79666666D02*
X54703038Y-79619047D01*
X54703038Y-79619047D02*
X54607800Y-79523809D01*
X54607800Y-79523809D02*
X54560180Y-79380952D01*
X54560180Y-79380952D02*
X54560180Y-79285714D01*
X55560180Y-80047619D02*
X55560180Y-80666666D01*
X55560180Y-80666666D02*
X55179228Y-80333333D01*
X55179228Y-80333333D02*
X55179228Y-80476190D01*
X55179228Y-80476190D02*
X55131609Y-80571428D01*
X55131609Y-80571428D02*
X55083990Y-80619047D01*
X55083990Y-80619047D02*
X54988752Y-80666666D01*
X54988752Y-80666666D02*
X54750657Y-80666666D01*
X54750657Y-80666666D02*
X54655419Y-80619047D01*
X54655419Y-80619047D02*
X54607800Y-80571428D01*
X54607800Y-80571428D02*
X54560180Y-80476190D01*
X54560180Y-80476190D02*
X54560180Y-80190476D01*
X54560180Y-80190476D02*
X54607800Y-80095238D01*
X54607800Y-80095238D02*
X54655419Y-80047619D01*
X72204819Y-101392857D02*
X71728628Y-101726190D01*
X72204819Y-101964285D02*
X71204819Y-101964285D01*
X71204819Y-101964285D02*
X71204819Y-101583333D01*
X71204819Y-101583333D02*
X71252438Y-101488095D01*
X71252438Y-101488095D02*
X71300057Y-101440476D01*
X71300057Y-101440476D02*
X71395295Y-101392857D01*
X71395295Y-101392857D02*
X71538152Y-101392857D01*
X71538152Y-101392857D02*
X71633390Y-101440476D01*
X71633390Y-101440476D02*
X71681009Y-101488095D01*
X71681009Y-101488095D02*
X71728628Y-101583333D01*
X71728628Y-101583333D02*
X71728628Y-101964285D01*
X72204819Y-100440476D02*
X72204819Y-101011904D01*
X72204819Y-100726190D02*
X71204819Y-100726190D01*
X71204819Y-100726190D02*
X71347676Y-100821428D01*
X71347676Y-100821428D02*
X71442914Y-100916666D01*
X71442914Y-100916666D02*
X71490533Y-101011904D01*
X72204819Y-99488095D02*
X72204819Y-100059523D01*
X72204819Y-99773809D02*
X71204819Y-99773809D01*
X71204819Y-99773809D02*
X71347676Y-99869047D01*
X71347676Y-99869047D02*
X71442914Y-99964285D01*
X71442914Y-99964285D02*
X71490533Y-100059523D01*
X81728095Y-67054819D02*
X81728095Y-67864342D01*
X81728095Y-67864342D02*
X81775714Y-67959580D01*
X81775714Y-67959580D02*
X81823333Y-68007200D01*
X81823333Y-68007200D02*
X81918571Y-68054819D01*
X81918571Y-68054819D02*
X82109047Y-68054819D01*
X82109047Y-68054819D02*
X82204285Y-68007200D01*
X82204285Y-68007200D02*
X82251904Y-67959580D01*
X82251904Y-67959580D02*
X82299523Y-67864342D01*
X82299523Y-67864342D02*
X82299523Y-67054819D01*
X83251904Y-67054819D02*
X82775714Y-67054819D01*
X82775714Y-67054819D02*
X82728095Y-67531009D01*
X82728095Y-67531009D02*
X82775714Y-67483390D01*
X82775714Y-67483390D02*
X82870952Y-67435771D01*
X82870952Y-67435771D02*
X83109047Y-67435771D01*
X83109047Y-67435771D02*
X83204285Y-67483390D01*
X83204285Y-67483390D02*
X83251904Y-67531009D01*
X83251904Y-67531009D02*
X83299523Y-67626247D01*
X83299523Y-67626247D02*
X83299523Y-67864342D01*
X83299523Y-67864342D02*
X83251904Y-67959580D01*
X83251904Y-67959580D02*
X83204285Y-68007200D01*
X83204285Y-68007200D02*
X83109047Y-68054819D01*
X83109047Y-68054819D02*
X82870952Y-68054819D01*
X82870952Y-68054819D02*
X82775714Y-68007200D01*
X82775714Y-68007200D02*
X82728095Y-67959580D01*
X79137142Y-79859819D02*
X78803809Y-79383628D01*
X78565714Y-79859819D02*
X78565714Y-78859819D01*
X78565714Y-78859819D02*
X78946666Y-78859819D01*
X78946666Y-78859819D02*
X79041904Y-78907438D01*
X79041904Y-78907438D02*
X79089523Y-78955057D01*
X79089523Y-78955057D02*
X79137142Y-79050295D01*
X79137142Y-79050295D02*
X79137142Y-79193152D01*
X79137142Y-79193152D02*
X79089523Y-79288390D01*
X79089523Y-79288390D02*
X79041904Y-79336009D01*
X79041904Y-79336009D02*
X78946666Y-79383628D01*
X78946666Y-79383628D02*
X78565714Y-79383628D01*
X80089523Y-79859819D02*
X79518095Y-79859819D01*
X79803809Y-79859819D02*
X79803809Y-78859819D01*
X79803809Y-78859819D02*
X79708571Y-79002676D01*
X79708571Y-79002676D02*
X79613333Y-79097914D01*
X79613333Y-79097914D02*
X79518095Y-79145533D01*
X80422857Y-78859819D02*
X81089523Y-78859819D01*
X81089523Y-78859819D02*
X80660952Y-79859819D01*
X52883333Y-95159580D02*
X52835714Y-95207200D01*
X52835714Y-95207200D02*
X52692857Y-95254819D01*
X52692857Y-95254819D02*
X52597619Y-95254819D01*
X52597619Y-95254819D02*
X52454762Y-95207200D01*
X52454762Y-95207200D02*
X52359524Y-95111961D01*
X52359524Y-95111961D02*
X52311905Y-95016723D01*
X52311905Y-95016723D02*
X52264286Y-94826247D01*
X52264286Y-94826247D02*
X52264286Y-94683390D01*
X52264286Y-94683390D02*
X52311905Y-94492914D01*
X52311905Y-94492914D02*
X52359524Y-94397676D01*
X52359524Y-94397676D02*
X52454762Y-94302438D01*
X52454762Y-94302438D02*
X52597619Y-94254819D01*
X52597619Y-94254819D02*
X52692857Y-94254819D01*
X52692857Y-94254819D02*
X52835714Y-94302438D01*
X52835714Y-94302438D02*
X52883333Y-94350057D01*
X53454762Y-94683390D02*
X53359524Y-94635771D01*
X53359524Y-94635771D02*
X53311905Y-94588152D01*
X53311905Y-94588152D02*
X53264286Y-94492914D01*
X53264286Y-94492914D02*
X53264286Y-94445295D01*
X53264286Y-94445295D02*
X53311905Y-94350057D01*
X53311905Y-94350057D02*
X53359524Y-94302438D01*
X53359524Y-94302438D02*
X53454762Y-94254819D01*
X53454762Y-94254819D02*
X53645238Y-94254819D01*
X53645238Y-94254819D02*
X53740476Y-94302438D01*
X53740476Y-94302438D02*
X53788095Y-94350057D01*
X53788095Y-94350057D02*
X53835714Y-94445295D01*
X53835714Y-94445295D02*
X53835714Y-94492914D01*
X53835714Y-94492914D02*
X53788095Y-94588152D01*
X53788095Y-94588152D02*
X53740476Y-94635771D01*
X53740476Y-94635771D02*
X53645238Y-94683390D01*
X53645238Y-94683390D02*
X53454762Y-94683390D01*
X53454762Y-94683390D02*
X53359524Y-94731009D01*
X53359524Y-94731009D02*
X53311905Y-94778628D01*
X53311905Y-94778628D02*
X53264286Y-94873866D01*
X53264286Y-94873866D02*
X53264286Y-95064342D01*
X53264286Y-95064342D02*
X53311905Y-95159580D01*
X53311905Y-95159580D02*
X53359524Y-95207200D01*
X53359524Y-95207200D02*
X53454762Y-95254819D01*
X53454762Y-95254819D02*
X53645238Y-95254819D01*
X53645238Y-95254819D02*
X53740476Y-95207200D01*
X53740476Y-95207200D02*
X53788095Y-95159580D01*
X53788095Y-95159580D02*
X53835714Y-95064342D01*
X53835714Y-95064342D02*
X53835714Y-94873866D01*
X53835714Y-94873866D02*
X53788095Y-94778628D01*
X53788095Y-94778628D02*
X53740476Y-94731009D01*
X53740476Y-94731009D02*
X53645238Y-94683390D01*
X48166666Y-93704819D02*
X48166666Y-94419104D01*
X48166666Y-94419104D02*
X48119047Y-94561961D01*
X48119047Y-94561961D02*
X48023809Y-94657200D01*
X48023809Y-94657200D02*
X47880952Y-94704819D01*
X47880952Y-94704819D02*
X47785714Y-94704819D01*
X49119047Y-93704819D02*
X48642857Y-93704819D01*
X48642857Y-93704819D02*
X48595238Y-94181009D01*
X48595238Y-94181009D02*
X48642857Y-94133390D01*
X48642857Y-94133390D02*
X48738095Y-94085771D01*
X48738095Y-94085771D02*
X48976190Y-94085771D01*
X48976190Y-94085771D02*
X49071428Y-94133390D01*
X49071428Y-94133390D02*
X49119047Y-94181009D01*
X49119047Y-94181009D02*
X49166666Y-94276247D01*
X49166666Y-94276247D02*
X49166666Y-94514342D01*
X49166666Y-94514342D02*
X49119047Y-94609580D01*
X49119047Y-94609580D02*
X49071428Y-94657200D01*
X49071428Y-94657200D02*
X48976190Y-94704819D01*
X48976190Y-94704819D02*
X48738095Y-94704819D01*
X48738095Y-94704819D02*
X48642857Y-94657200D01*
X48642857Y-94657200D02*
X48595238Y-94609580D01*
X89394819Y-72966666D02*
X88918628Y-73299999D01*
X89394819Y-73538094D02*
X88394819Y-73538094D01*
X88394819Y-73538094D02*
X88394819Y-73157142D01*
X88394819Y-73157142D02*
X88442438Y-73061904D01*
X88442438Y-73061904D02*
X88490057Y-73014285D01*
X88490057Y-73014285D02*
X88585295Y-72966666D01*
X88585295Y-72966666D02*
X88728152Y-72966666D01*
X88728152Y-72966666D02*
X88823390Y-73014285D01*
X88823390Y-73014285D02*
X88871009Y-73061904D01*
X88871009Y-73061904D02*
X88918628Y-73157142D01*
X88918628Y-73157142D02*
X88918628Y-73538094D01*
X88823390Y-72395237D02*
X88775771Y-72490475D01*
X88775771Y-72490475D02*
X88728152Y-72538094D01*
X88728152Y-72538094D02*
X88632914Y-72585713D01*
X88632914Y-72585713D02*
X88585295Y-72585713D01*
X88585295Y-72585713D02*
X88490057Y-72538094D01*
X88490057Y-72538094D02*
X88442438Y-72490475D01*
X88442438Y-72490475D02*
X88394819Y-72395237D01*
X88394819Y-72395237D02*
X88394819Y-72204761D01*
X88394819Y-72204761D02*
X88442438Y-72109523D01*
X88442438Y-72109523D02*
X88490057Y-72061904D01*
X88490057Y-72061904D02*
X88585295Y-72014285D01*
X88585295Y-72014285D02*
X88632914Y-72014285D01*
X88632914Y-72014285D02*
X88728152Y-72061904D01*
X88728152Y-72061904D02*
X88775771Y-72109523D01*
X88775771Y-72109523D02*
X88823390Y-72204761D01*
X88823390Y-72204761D02*
X88823390Y-72395237D01*
X88823390Y-72395237D02*
X88871009Y-72490475D01*
X88871009Y-72490475D02*
X88918628Y-72538094D01*
X88918628Y-72538094D02*
X89013866Y-72585713D01*
X89013866Y-72585713D02*
X89204342Y-72585713D01*
X89204342Y-72585713D02*
X89299580Y-72538094D01*
X89299580Y-72538094D02*
X89347200Y-72490475D01*
X89347200Y-72490475D02*
X89394819Y-72395237D01*
X89394819Y-72395237D02*
X89394819Y-72204761D01*
X89394819Y-72204761D02*
X89347200Y-72109523D01*
X89347200Y-72109523D02*
X89299580Y-72061904D01*
X89299580Y-72061904D02*
X89204342Y-72014285D01*
X89204342Y-72014285D02*
X89013866Y-72014285D01*
X89013866Y-72014285D02*
X88918628Y-72061904D01*
X88918628Y-72061904D02*
X88871009Y-72109523D01*
X88871009Y-72109523D02*
X88823390Y-72204761D01*
X76107142Y-87454819D02*
X75773809Y-86978628D01*
X75535714Y-87454819D02*
X75535714Y-86454819D01*
X75535714Y-86454819D02*
X75916666Y-86454819D01*
X75916666Y-86454819D02*
X76011904Y-86502438D01*
X76011904Y-86502438D02*
X76059523Y-86550057D01*
X76059523Y-86550057D02*
X76107142Y-86645295D01*
X76107142Y-86645295D02*
X76107142Y-86788152D01*
X76107142Y-86788152D02*
X76059523Y-86883390D01*
X76059523Y-86883390D02*
X76011904Y-86931009D01*
X76011904Y-86931009D02*
X75916666Y-86978628D01*
X75916666Y-86978628D02*
X75535714Y-86978628D01*
X77059523Y-87454819D02*
X76488095Y-87454819D01*
X76773809Y-87454819D02*
X76773809Y-86454819D01*
X76773809Y-86454819D02*
X76678571Y-86597676D01*
X76678571Y-86597676D02*
X76583333Y-86692914D01*
X76583333Y-86692914D02*
X76488095Y-86740533D01*
X77916666Y-86454819D02*
X77726190Y-86454819D01*
X77726190Y-86454819D02*
X77630952Y-86502438D01*
X77630952Y-86502438D02*
X77583333Y-86550057D01*
X77583333Y-86550057D02*
X77488095Y-86692914D01*
X77488095Y-86692914D02*
X77440476Y-86883390D01*
X77440476Y-86883390D02*
X77440476Y-87264342D01*
X77440476Y-87264342D02*
X77488095Y-87359580D01*
X77488095Y-87359580D02*
X77535714Y-87407200D01*
X77535714Y-87407200D02*
X77630952Y-87454819D01*
X77630952Y-87454819D02*
X77821428Y-87454819D01*
X77821428Y-87454819D02*
X77916666Y-87407200D01*
X77916666Y-87407200D02*
X77964285Y-87359580D01*
X77964285Y-87359580D02*
X78011904Y-87264342D01*
X78011904Y-87264342D02*
X78011904Y-87026247D01*
X78011904Y-87026247D02*
X77964285Y-86931009D01*
X77964285Y-86931009D02*
X77916666Y-86883390D01*
X77916666Y-86883390D02*
X77821428Y-86835771D01*
X77821428Y-86835771D02*
X77630952Y-86835771D01*
X77630952Y-86835771D02*
X77535714Y-86883390D01*
X77535714Y-86883390D02*
X77488095Y-86931009D01*
X77488095Y-86931009D02*
X77440476Y-87026247D01*
X55560180Y-49666666D02*
X54845895Y-49666666D01*
X54845895Y-49666666D02*
X54703038Y-49619047D01*
X54703038Y-49619047D02*
X54607800Y-49523809D01*
X54607800Y-49523809D02*
X54560180Y-49380952D01*
X54560180Y-49380952D02*
X54560180Y-49285714D01*
X54560180Y-50666666D02*
X54560180Y-50095238D01*
X54560180Y-50380952D02*
X55560180Y-50380952D01*
X55560180Y-50380952D02*
X55417323Y-50285714D01*
X55417323Y-50285714D02*
X55322085Y-50190476D01*
X55322085Y-50190476D02*
X55274466Y-50095238D01*
X76057142Y-83409819D02*
X75723809Y-82933628D01*
X75485714Y-83409819D02*
X75485714Y-82409819D01*
X75485714Y-82409819D02*
X75866666Y-82409819D01*
X75866666Y-82409819D02*
X75961904Y-82457438D01*
X75961904Y-82457438D02*
X76009523Y-82505057D01*
X76009523Y-82505057D02*
X76057142Y-82600295D01*
X76057142Y-82600295D02*
X76057142Y-82743152D01*
X76057142Y-82743152D02*
X76009523Y-82838390D01*
X76009523Y-82838390D02*
X75961904Y-82886009D01*
X75961904Y-82886009D02*
X75866666Y-82933628D01*
X75866666Y-82933628D02*
X75485714Y-82933628D01*
X77009523Y-83409819D02*
X76438095Y-83409819D01*
X76723809Y-83409819D02*
X76723809Y-82409819D01*
X76723809Y-82409819D02*
X76628571Y-82552676D01*
X76628571Y-82552676D02*
X76533333Y-82647914D01*
X76533333Y-82647914D02*
X76438095Y-82695533D01*
X77342857Y-82409819D02*
X77961904Y-82409819D01*
X77961904Y-82409819D02*
X77628571Y-82790771D01*
X77628571Y-82790771D02*
X77771428Y-82790771D01*
X77771428Y-82790771D02*
X77866666Y-82838390D01*
X77866666Y-82838390D02*
X77914285Y-82886009D01*
X77914285Y-82886009D02*
X77961904Y-82981247D01*
X77961904Y-82981247D02*
X77961904Y-83219342D01*
X77961904Y-83219342D02*
X77914285Y-83314580D01*
X77914285Y-83314580D02*
X77866666Y-83362200D01*
X77866666Y-83362200D02*
X77771428Y-83409819D01*
X77771428Y-83409819D02*
X77485714Y-83409819D01*
X77485714Y-83409819D02*
X77390476Y-83362200D01*
X77390476Y-83362200D02*
X77342857Y-83314580D01*
X88207142Y-86609580D02*
X88159523Y-86657200D01*
X88159523Y-86657200D02*
X88016666Y-86704819D01*
X88016666Y-86704819D02*
X87921428Y-86704819D01*
X87921428Y-86704819D02*
X87778571Y-86657200D01*
X87778571Y-86657200D02*
X87683333Y-86561961D01*
X87683333Y-86561961D02*
X87635714Y-86466723D01*
X87635714Y-86466723D02*
X87588095Y-86276247D01*
X87588095Y-86276247D02*
X87588095Y-86133390D01*
X87588095Y-86133390D02*
X87635714Y-85942914D01*
X87635714Y-85942914D02*
X87683333Y-85847676D01*
X87683333Y-85847676D02*
X87778571Y-85752438D01*
X87778571Y-85752438D02*
X87921428Y-85704819D01*
X87921428Y-85704819D02*
X88016666Y-85704819D01*
X88016666Y-85704819D02*
X88159523Y-85752438D01*
X88159523Y-85752438D02*
X88207142Y-85800057D01*
X89159523Y-86704819D02*
X88588095Y-86704819D01*
X88873809Y-86704819D02*
X88873809Y-85704819D01*
X88873809Y-85704819D02*
X88778571Y-85847676D01*
X88778571Y-85847676D02*
X88683333Y-85942914D01*
X88683333Y-85942914D02*
X88588095Y-85990533D01*
X90064285Y-85704819D02*
X89588095Y-85704819D01*
X89588095Y-85704819D02*
X89540476Y-86181009D01*
X89540476Y-86181009D02*
X89588095Y-86133390D01*
X89588095Y-86133390D02*
X89683333Y-86085771D01*
X89683333Y-86085771D02*
X89921428Y-86085771D01*
X89921428Y-86085771D02*
X90016666Y-86133390D01*
X90016666Y-86133390D02*
X90064285Y-86181009D01*
X90064285Y-86181009D02*
X90111904Y-86276247D01*
X90111904Y-86276247D02*
X90111904Y-86514342D01*
X90111904Y-86514342D02*
X90064285Y-86609580D01*
X90064285Y-86609580D02*
X90016666Y-86657200D01*
X90016666Y-86657200D02*
X89921428Y-86704819D01*
X89921428Y-86704819D02*
X89683333Y-86704819D01*
X89683333Y-86704819D02*
X89588095Y-86657200D01*
X89588095Y-86657200D02*
X89540476Y-86609580D01*
X88857142Y-93054819D02*
X88523809Y-92578628D01*
X88285714Y-93054819D02*
X88285714Y-92054819D01*
X88285714Y-92054819D02*
X88666666Y-92054819D01*
X88666666Y-92054819D02*
X88761904Y-92102438D01*
X88761904Y-92102438D02*
X88809523Y-92150057D01*
X88809523Y-92150057D02*
X88857142Y-92245295D01*
X88857142Y-92245295D02*
X88857142Y-92388152D01*
X88857142Y-92388152D02*
X88809523Y-92483390D01*
X88809523Y-92483390D02*
X88761904Y-92531009D01*
X88761904Y-92531009D02*
X88666666Y-92578628D01*
X88666666Y-92578628D02*
X88285714Y-92578628D01*
X89809523Y-93054819D02*
X89238095Y-93054819D01*
X89523809Y-93054819D02*
X89523809Y-92054819D01*
X89523809Y-92054819D02*
X89428571Y-92197676D01*
X89428571Y-92197676D02*
X89333333Y-92292914D01*
X89333333Y-92292914D02*
X89238095Y-92340533D01*
X90714285Y-92054819D02*
X90238095Y-92054819D01*
X90238095Y-92054819D02*
X90190476Y-92531009D01*
X90190476Y-92531009D02*
X90238095Y-92483390D01*
X90238095Y-92483390D02*
X90333333Y-92435771D01*
X90333333Y-92435771D02*
X90571428Y-92435771D01*
X90571428Y-92435771D02*
X90666666Y-92483390D01*
X90666666Y-92483390D02*
X90714285Y-92531009D01*
X90714285Y-92531009D02*
X90761904Y-92626247D01*
X90761904Y-92626247D02*
X90761904Y-92864342D01*
X90761904Y-92864342D02*
X90714285Y-92959580D01*
X90714285Y-92959580D02*
X90666666Y-93007200D01*
X90666666Y-93007200D02*
X90571428Y-93054819D01*
X90571428Y-93054819D02*
X90333333Y-93054819D01*
X90333333Y-93054819D02*
X90238095Y-93007200D01*
X90238095Y-93007200D02*
X90190476Y-92959580D01*
X61038095Y-81854819D02*
X61038095Y-82664342D01*
X61038095Y-82664342D02*
X61085714Y-82759580D01*
X61085714Y-82759580D02*
X61133333Y-82807200D01*
X61133333Y-82807200D02*
X61228571Y-82854819D01*
X61228571Y-82854819D02*
X61419047Y-82854819D01*
X61419047Y-82854819D02*
X61514285Y-82807200D01*
X61514285Y-82807200D02*
X61561904Y-82759580D01*
X61561904Y-82759580D02*
X61609523Y-82664342D01*
X61609523Y-82664342D02*
X61609523Y-81854819D01*
X62514285Y-82188152D02*
X62514285Y-82854819D01*
X62276190Y-81807200D02*
X62038095Y-82521485D01*
X62038095Y-82521485D02*
X62657142Y-82521485D01*
X76057142Y-85429819D02*
X75723809Y-84953628D01*
X75485714Y-85429819D02*
X75485714Y-84429819D01*
X75485714Y-84429819D02*
X75866666Y-84429819D01*
X75866666Y-84429819D02*
X75961904Y-84477438D01*
X75961904Y-84477438D02*
X76009523Y-84525057D01*
X76009523Y-84525057D02*
X76057142Y-84620295D01*
X76057142Y-84620295D02*
X76057142Y-84763152D01*
X76057142Y-84763152D02*
X76009523Y-84858390D01*
X76009523Y-84858390D02*
X75961904Y-84906009D01*
X75961904Y-84906009D02*
X75866666Y-84953628D01*
X75866666Y-84953628D02*
X75485714Y-84953628D01*
X77009523Y-85429819D02*
X76438095Y-85429819D01*
X76723809Y-85429819D02*
X76723809Y-84429819D01*
X76723809Y-84429819D02*
X76628571Y-84572676D01*
X76628571Y-84572676D02*
X76533333Y-84667914D01*
X76533333Y-84667914D02*
X76438095Y-84715533D01*
X77866666Y-84763152D02*
X77866666Y-85429819D01*
X77628571Y-84382200D02*
X77390476Y-85096485D01*
X77390476Y-85096485D02*
X78009523Y-85096485D01*
X81166667Y-50907200D02*
X81309524Y-50954819D01*
X81309524Y-50954819D02*
X81547619Y-50954819D01*
X81547619Y-50954819D02*
X81642857Y-50907200D01*
X81642857Y-50907200D02*
X81690476Y-50859580D01*
X81690476Y-50859580D02*
X81738095Y-50764342D01*
X81738095Y-50764342D02*
X81738095Y-50669104D01*
X81738095Y-50669104D02*
X81690476Y-50573866D01*
X81690476Y-50573866D02*
X81642857Y-50526247D01*
X81642857Y-50526247D02*
X81547619Y-50478628D01*
X81547619Y-50478628D02*
X81357143Y-50431009D01*
X81357143Y-50431009D02*
X81261905Y-50383390D01*
X81261905Y-50383390D02*
X81214286Y-50335771D01*
X81214286Y-50335771D02*
X81166667Y-50240533D01*
X81166667Y-50240533D02*
X81166667Y-50145295D01*
X81166667Y-50145295D02*
X81214286Y-50050057D01*
X81214286Y-50050057D02*
X81261905Y-50002438D01*
X81261905Y-50002438D02*
X81357143Y-49954819D01*
X81357143Y-49954819D02*
X81595238Y-49954819D01*
X81595238Y-49954819D02*
X81738095Y-50002438D01*
X82071429Y-49954819D02*
X82309524Y-50954819D01*
X82309524Y-50954819D02*
X82500000Y-50240533D01*
X82500000Y-50240533D02*
X82690476Y-50954819D01*
X82690476Y-50954819D02*
X82928572Y-49954819D01*
X83833333Y-50954819D02*
X83261905Y-50954819D01*
X83547619Y-50954819D02*
X83547619Y-49954819D01*
X83547619Y-49954819D02*
X83452381Y-50097676D01*
X83452381Y-50097676D02*
X83357143Y-50192914D01*
X83357143Y-50192914D02*
X83261905Y-50240533D01*
X74107142Y-96109580D02*
X74059523Y-96157200D01*
X74059523Y-96157200D02*
X73916666Y-96204819D01*
X73916666Y-96204819D02*
X73821428Y-96204819D01*
X73821428Y-96204819D02*
X73678571Y-96157200D01*
X73678571Y-96157200D02*
X73583333Y-96061961D01*
X73583333Y-96061961D02*
X73535714Y-95966723D01*
X73535714Y-95966723D02*
X73488095Y-95776247D01*
X73488095Y-95776247D02*
X73488095Y-95633390D01*
X73488095Y-95633390D02*
X73535714Y-95442914D01*
X73535714Y-95442914D02*
X73583333Y-95347676D01*
X73583333Y-95347676D02*
X73678571Y-95252438D01*
X73678571Y-95252438D02*
X73821428Y-95204819D01*
X73821428Y-95204819D02*
X73916666Y-95204819D01*
X73916666Y-95204819D02*
X74059523Y-95252438D01*
X74059523Y-95252438D02*
X74107142Y-95300057D01*
X75059523Y-96204819D02*
X74488095Y-96204819D01*
X74773809Y-96204819D02*
X74773809Y-95204819D01*
X74773809Y-95204819D02*
X74678571Y-95347676D01*
X74678571Y-95347676D02*
X74583333Y-95442914D01*
X74583333Y-95442914D02*
X74488095Y-95490533D01*
X75678571Y-95204819D02*
X75773809Y-95204819D01*
X75773809Y-95204819D02*
X75869047Y-95252438D01*
X75869047Y-95252438D02*
X75916666Y-95300057D01*
X75916666Y-95300057D02*
X75964285Y-95395295D01*
X75964285Y-95395295D02*
X76011904Y-95585771D01*
X76011904Y-95585771D02*
X76011904Y-95823866D01*
X76011904Y-95823866D02*
X75964285Y-96014342D01*
X75964285Y-96014342D02*
X75916666Y-96109580D01*
X75916666Y-96109580D02*
X75869047Y-96157200D01*
X75869047Y-96157200D02*
X75773809Y-96204819D01*
X75773809Y-96204819D02*
X75678571Y-96204819D01*
X75678571Y-96204819D02*
X75583333Y-96157200D01*
X75583333Y-96157200D02*
X75535714Y-96109580D01*
X75535714Y-96109580D02*
X75488095Y-96014342D01*
X75488095Y-96014342D02*
X75440476Y-95823866D01*
X75440476Y-95823866D02*
X75440476Y-95585771D01*
X75440476Y-95585771D02*
X75488095Y-95395295D01*
X75488095Y-95395295D02*
X75535714Y-95300057D01*
X75535714Y-95300057D02*
X75583333Y-95252438D01*
X75583333Y-95252438D02*
X75678571Y-95204819D01*
X59039579Y-72666666D02*
X59087199Y-72714285D01*
X59087199Y-72714285D02*
X59134818Y-72857142D01*
X59134818Y-72857142D02*
X59134818Y-72952380D01*
X59134818Y-72952380D02*
X59087199Y-73095237D01*
X59087199Y-73095237D02*
X58991960Y-73190475D01*
X58991960Y-73190475D02*
X58896722Y-73238094D01*
X58896722Y-73238094D02*
X58706246Y-73285713D01*
X58706246Y-73285713D02*
X58563389Y-73285713D01*
X58563389Y-73285713D02*
X58372913Y-73238094D01*
X58372913Y-73238094D02*
X58277675Y-73190475D01*
X58277675Y-73190475D02*
X58182437Y-73095237D01*
X58182437Y-73095237D02*
X58134818Y-72952380D01*
X58134818Y-72952380D02*
X58134818Y-72857142D01*
X58134818Y-72857142D02*
X58182437Y-72714285D01*
X58182437Y-72714285D02*
X58230056Y-72666666D01*
X58468151Y-71809523D02*
X59134818Y-71809523D01*
X58087199Y-72047618D02*
X58801484Y-72285713D01*
X58801484Y-72285713D02*
X58801484Y-71666666D01*
X59104819Y-68166666D02*
X58628628Y-68499999D01*
X59104819Y-68738094D02*
X58104819Y-68738094D01*
X58104819Y-68738094D02*
X58104819Y-68357142D01*
X58104819Y-68357142D02*
X58152438Y-68261904D01*
X58152438Y-68261904D02*
X58200057Y-68214285D01*
X58200057Y-68214285D02*
X58295295Y-68166666D01*
X58295295Y-68166666D02*
X58438152Y-68166666D01*
X58438152Y-68166666D02*
X58533390Y-68214285D01*
X58533390Y-68214285D02*
X58581009Y-68261904D01*
X58581009Y-68261904D02*
X58628628Y-68357142D01*
X58628628Y-68357142D02*
X58628628Y-68738094D01*
X58104819Y-67261904D02*
X58104819Y-67738094D01*
X58104819Y-67738094D02*
X58581009Y-67785713D01*
X58581009Y-67785713D02*
X58533390Y-67738094D01*
X58533390Y-67738094D02*
X58485771Y-67642856D01*
X58485771Y-67642856D02*
X58485771Y-67404761D01*
X58485771Y-67404761D02*
X58533390Y-67309523D01*
X58533390Y-67309523D02*
X58581009Y-67261904D01*
X58581009Y-67261904D02*
X58676247Y-67214285D01*
X58676247Y-67214285D02*
X58914342Y-67214285D01*
X58914342Y-67214285D02*
X59009580Y-67261904D01*
X59009580Y-67261904D02*
X59057200Y-67309523D01*
X59057200Y-67309523D02*
X59104819Y-67404761D01*
X59104819Y-67404761D02*
X59104819Y-67642856D01*
X59104819Y-67642856D02*
X59057200Y-67738094D01*
X59057200Y-67738094D02*
X59009580Y-67785713D01*
X59039579Y-57666666D02*
X59087199Y-57714285D01*
X59087199Y-57714285D02*
X59134818Y-57857142D01*
X59134818Y-57857142D02*
X59134818Y-57952380D01*
X59134818Y-57952380D02*
X59087199Y-58095237D01*
X59087199Y-58095237D02*
X58991960Y-58190475D01*
X58991960Y-58190475D02*
X58896722Y-58238094D01*
X58896722Y-58238094D02*
X58706246Y-58285713D01*
X58706246Y-58285713D02*
X58563389Y-58285713D01*
X58563389Y-58285713D02*
X58372913Y-58238094D01*
X58372913Y-58238094D02*
X58277675Y-58190475D01*
X58277675Y-58190475D02*
X58182437Y-58095237D01*
X58182437Y-58095237D02*
X58134818Y-57952380D01*
X58134818Y-57952380D02*
X58134818Y-57857142D01*
X58134818Y-57857142D02*
X58182437Y-57714285D01*
X58182437Y-57714285D02*
X58230056Y-57666666D01*
X58134818Y-57333332D02*
X58134818Y-56714285D01*
X58134818Y-56714285D02*
X58515770Y-57047618D01*
X58515770Y-57047618D02*
X58515770Y-56904761D01*
X58515770Y-56904761D02*
X58563389Y-56809523D01*
X58563389Y-56809523D02*
X58611008Y-56761904D01*
X58611008Y-56761904D02*
X58706246Y-56714285D01*
X58706246Y-56714285D02*
X58944341Y-56714285D01*
X58944341Y-56714285D02*
X59039579Y-56761904D01*
X59039579Y-56761904D02*
X59087199Y-56809523D01*
X59087199Y-56809523D02*
X59134818Y-56904761D01*
X59134818Y-56904761D02*
X59134818Y-57190475D01*
X59134818Y-57190475D02*
X59087199Y-57285713D01*
X59087199Y-57285713D02*
X59039579Y-57333332D01*
X86094819Y-67366666D02*
X85618628Y-67699999D01*
X86094819Y-67938094D02*
X85094819Y-67938094D01*
X85094819Y-67938094D02*
X85094819Y-67557142D01*
X85094819Y-67557142D02*
X85142438Y-67461904D01*
X85142438Y-67461904D02*
X85190057Y-67414285D01*
X85190057Y-67414285D02*
X85285295Y-67366666D01*
X85285295Y-67366666D02*
X85428152Y-67366666D01*
X85428152Y-67366666D02*
X85523390Y-67414285D01*
X85523390Y-67414285D02*
X85571009Y-67461904D01*
X85571009Y-67461904D02*
X85618628Y-67557142D01*
X85618628Y-67557142D02*
X85618628Y-67938094D01*
X86094819Y-66890475D02*
X86094819Y-66699999D01*
X86094819Y-66699999D02*
X86047200Y-66604761D01*
X86047200Y-66604761D02*
X85999580Y-66557142D01*
X85999580Y-66557142D02*
X85856723Y-66461904D01*
X85856723Y-66461904D02*
X85666247Y-66414285D01*
X85666247Y-66414285D02*
X85285295Y-66414285D01*
X85285295Y-66414285D02*
X85190057Y-66461904D01*
X85190057Y-66461904D02*
X85142438Y-66509523D01*
X85142438Y-66509523D02*
X85094819Y-66604761D01*
X85094819Y-66604761D02*
X85094819Y-66795237D01*
X85094819Y-66795237D02*
X85142438Y-66890475D01*
X85142438Y-66890475D02*
X85190057Y-66938094D01*
X85190057Y-66938094D02*
X85285295Y-66985713D01*
X85285295Y-66985713D02*
X85523390Y-66985713D01*
X85523390Y-66985713D02*
X85618628Y-66938094D01*
X85618628Y-66938094D02*
X85666247Y-66890475D01*
X85666247Y-66890475D02*
X85713866Y-66795237D01*
X85713866Y-66795237D02*
X85713866Y-66604761D01*
X85713866Y-66604761D02*
X85666247Y-66509523D01*
X85666247Y-66509523D02*
X85618628Y-66461904D01*
X85618628Y-66461904D02*
X85523390Y-66414285D01*
X88057142Y-90609580D02*
X88009523Y-90657200D01*
X88009523Y-90657200D02*
X87866666Y-90704819D01*
X87866666Y-90704819D02*
X87771428Y-90704819D01*
X87771428Y-90704819D02*
X87628571Y-90657200D01*
X87628571Y-90657200D02*
X87533333Y-90561961D01*
X87533333Y-90561961D02*
X87485714Y-90466723D01*
X87485714Y-90466723D02*
X87438095Y-90276247D01*
X87438095Y-90276247D02*
X87438095Y-90133390D01*
X87438095Y-90133390D02*
X87485714Y-89942914D01*
X87485714Y-89942914D02*
X87533333Y-89847676D01*
X87533333Y-89847676D02*
X87628571Y-89752438D01*
X87628571Y-89752438D02*
X87771428Y-89704819D01*
X87771428Y-89704819D02*
X87866666Y-89704819D01*
X87866666Y-89704819D02*
X88009523Y-89752438D01*
X88009523Y-89752438D02*
X88057142Y-89800057D01*
X89009523Y-90704819D02*
X88438095Y-90704819D01*
X88723809Y-90704819D02*
X88723809Y-89704819D01*
X88723809Y-89704819D02*
X88628571Y-89847676D01*
X88628571Y-89847676D02*
X88533333Y-89942914D01*
X88533333Y-89942914D02*
X88438095Y-89990533D01*
X89342857Y-89704819D02*
X89961904Y-89704819D01*
X89961904Y-89704819D02*
X89628571Y-90085771D01*
X89628571Y-90085771D02*
X89771428Y-90085771D01*
X89771428Y-90085771D02*
X89866666Y-90133390D01*
X89866666Y-90133390D02*
X89914285Y-90181009D01*
X89914285Y-90181009D02*
X89961904Y-90276247D01*
X89961904Y-90276247D02*
X89961904Y-90514342D01*
X89961904Y-90514342D02*
X89914285Y-90609580D01*
X89914285Y-90609580D02*
X89866666Y-90657200D01*
X89866666Y-90657200D02*
X89771428Y-90704819D01*
X89771428Y-90704819D02*
X89485714Y-90704819D01*
X89485714Y-90704819D02*
X89390476Y-90657200D01*
X89390476Y-90657200D02*
X89342857Y-90609580D01*
X77233333Y-65639579D02*
X77185714Y-65687199D01*
X77185714Y-65687199D02*
X77042857Y-65734818D01*
X77042857Y-65734818D02*
X76947619Y-65734818D01*
X76947619Y-65734818D02*
X76804762Y-65687199D01*
X76804762Y-65687199D02*
X76709524Y-65591960D01*
X76709524Y-65591960D02*
X76661905Y-65496722D01*
X76661905Y-65496722D02*
X76614286Y-65306246D01*
X76614286Y-65306246D02*
X76614286Y-65163389D01*
X76614286Y-65163389D02*
X76661905Y-64972913D01*
X76661905Y-64972913D02*
X76709524Y-64877675D01*
X76709524Y-64877675D02*
X76804762Y-64782437D01*
X76804762Y-64782437D02*
X76947619Y-64734818D01*
X76947619Y-64734818D02*
X77042857Y-64734818D01*
X77042857Y-64734818D02*
X77185714Y-64782437D01*
X77185714Y-64782437D02*
X77233333Y-64830056D01*
X77614286Y-64830056D02*
X77661905Y-64782437D01*
X77661905Y-64782437D02*
X77757143Y-64734818D01*
X77757143Y-64734818D02*
X77995238Y-64734818D01*
X77995238Y-64734818D02*
X78090476Y-64782437D01*
X78090476Y-64782437D02*
X78138095Y-64830056D01*
X78138095Y-64830056D02*
X78185714Y-64925294D01*
X78185714Y-64925294D02*
X78185714Y-65020532D01*
X78185714Y-65020532D02*
X78138095Y-65163389D01*
X78138095Y-65163389D02*
X77566667Y-65734818D01*
X77566667Y-65734818D02*
X78185714Y-65734818D01*
X61038095Y-66854819D02*
X61038095Y-67664342D01*
X61038095Y-67664342D02*
X61085714Y-67759580D01*
X61085714Y-67759580D02*
X61133333Y-67807200D01*
X61133333Y-67807200D02*
X61228571Y-67854819D01*
X61228571Y-67854819D02*
X61419047Y-67854819D01*
X61419047Y-67854819D02*
X61514285Y-67807200D01*
X61514285Y-67807200D02*
X61561904Y-67759580D01*
X61561904Y-67759580D02*
X61609523Y-67664342D01*
X61609523Y-67664342D02*
X61609523Y-66854819D01*
X61990476Y-66854819D02*
X62609523Y-66854819D01*
X62609523Y-66854819D02*
X62276190Y-67235771D01*
X62276190Y-67235771D02*
X62419047Y-67235771D01*
X62419047Y-67235771D02*
X62514285Y-67283390D01*
X62514285Y-67283390D02*
X62561904Y-67331009D01*
X62561904Y-67331009D02*
X62609523Y-67426247D01*
X62609523Y-67426247D02*
X62609523Y-67664342D01*
X62609523Y-67664342D02*
X62561904Y-67759580D01*
X62561904Y-67759580D02*
X62514285Y-67807200D01*
X62514285Y-67807200D02*
X62419047Y-67854819D01*
X62419047Y-67854819D02*
X62133333Y-67854819D01*
X62133333Y-67854819D02*
X62038095Y-67807200D01*
X62038095Y-67807200D02*
X61990476Y-67759580D01*
X69273810Y-61054819D02*
X69273810Y-60054819D01*
X70321428Y-60959580D02*
X70273809Y-61007200D01*
X70273809Y-61007200D02*
X70130952Y-61054819D01*
X70130952Y-61054819D02*
X70035714Y-61054819D01*
X70035714Y-61054819D02*
X69892857Y-61007200D01*
X69892857Y-61007200D02*
X69797619Y-60911961D01*
X69797619Y-60911961D02*
X69750000Y-60816723D01*
X69750000Y-60816723D02*
X69702381Y-60626247D01*
X69702381Y-60626247D02*
X69702381Y-60483390D01*
X69702381Y-60483390D02*
X69750000Y-60292914D01*
X69750000Y-60292914D02*
X69797619Y-60197676D01*
X69797619Y-60197676D02*
X69892857Y-60102438D01*
X69892857Y-60102438D02*
X70035714Y-60054819D01*
X70035714Y-60054819D02*
X70130952Y-60054819D01*
X70130952Y-60054819D02*
X70273809Y-60102438D01*
X70273809Y-60102438D02*
X70321428Y-60150057D01*
X71273809Y-61054819D02*
X70702381Y-61054819D01*
X70988095Y-61054819D02*
X70988095Y-60054819D01*
X70988095Y-60054819D02*
X70892857Y-60197676D01*
X70892857Y-60197676D02*
X70797619Y-60292914D01*
X70797619Y-60292914D02*
X70702381Y-60340533D01*
X67857142Y-94609580D02*
X67809523Y-94657200D01*
X67809523Y-94657200D02*
X67666666Y-94704819D01*
X67666666Y-94704819D02*
X67571428Y-94704819D01*
X67571428Y-94704819D02*
X67428571Y-94657200D01*
X67428571Y-94657200D02*
X67333333Y-94561961D01*
X67333333Y-94561961D02*
X67285714Y-94466723D01*
X67285714Y-94466723D02*
X67238095Y-94276247D01*
X67238095Y-94276247D02*
X67238095Y-94133390D01*
X67238095Y-94133390D02*
X67285714Y-93942914D01*
X67285714Y-93942914D02*
X67333333Y-93847676D01*
X67333333Y-93847676D02*
X67428571Y-93752438D01*
X67428571Y-93752438D02*
X67571428Y-93704819D01*
X67571428Y-93704819D02*
X67666666Y-93704819D01*
X67666666Y-93704819D02*
X67809523Y-93752438D01*
X67809523Y-93752438D02*
X67857142Y-93800057D01*
X68809523Y-94704819D02*
X68238095Y-94704819D01*
X68523809Y-94704819D02*
X68523809Y-93704819D01*
X68523809Y-93704819D02*
X68428571Y-93847676D01*
X68428571Y-93847676D02*
X68333333Y-93942914D01*
X68333333Y-93942914D02*
X68238095Y-93990533D01*
X69761904Y-94704819D02*
X69190476Y-94704819D01*
X69476190Y-94704819D02*
X69476190Y-93704819D01*
X69476190Y-93704819D02*
X69380952Y-93847676D01*
X69380952Y-93847676D02*
X69285714Y-93942914D01*
X69285714Y-93942914D02*
X69190476Y-93990533D01*
X88047142Y-88619580D02*
X87999523Y-88667200D01*
X87999523Y-88667200D02*
X87856666Y-88714819D01*
X87856666Y-88714819D02*
X87761428Y-88714819D01*
X87761428Y-88714819D02*
X87618571Y-88667200D01*
X87618571Y-88667200D02*
X87523333Y-88571961D01*
X87523333Y-88571961D02*
X87475714Y-88476723D01*
X87475714Y-88476723D02*
X87428095Y-88286247D01*
X87428095Y-88286247D02*
X87428095Y-88143390D01*
X87428095Y-88143390D02*
X87475714Y-87952914D01*
X87475714Y-87952914D02*
X87523333Y-87857676D01*
X87523333Y-87857676D02*
X87618571Y-87762438D01*
X87618571Y-87762438D02*
X87761428Y-87714819D01*
X87761428Y-87714819D02*
X87856666Y-87714819D01*
X87856666Y-87714819D02*
X87999523Y-87762438D01*
X87999523Y-87762438D02*
X88047142Y-87810057D01*
X88999523Y-88714819D02*
X88428095Y-88714819D01*
X88713809Y-88714819D02*
X88713809Y-87714819D01*
X88713809Y-87714819D02*
X88618571Y-87857676D01*
X88618571Y-87857676D02*
X88523333Y-87952914D01*
X88523333Y-87952914D02*
X88428095Y-88000533D01*
X89856666Y-88048152D02*
X89856666Y-88714819D01*
X89618571Y-87667200D02*
X89380476Y-88381485D01*
X89380476Y-88381485D02*
X89999523Y-88381485D01*
X76898627Y-55276190D02*
X77374818Y-55276190D01*
X76374818Y-55609523D02*
X76898627Y-55276190D01*
X76898627Y-55276190D02*
X76374818Y-54942857D01*
X76470056Y-54657142D02*
X76422437Y-54609523D01*
X76422437Y-54609523D02*
X76374818Y-54514285D01*
X76374818Y-54514285D02*
X76374818Y-54276190D01*
X76374818Y-54276190D02*
X76422437Y-54180952D01*
X76422437Y-54180952D02*
X76470056Y-54133333D01*
X76470056Y-54133333D02*
X76565294Y-54085714D01*
X76565294Y-54085714D02*
X76660532Y-54085714D01*
X76660532Y-54085714D02*
X76803389Y-54133333D01*
X76803389Y-54133333D02*
X77374818Y-54704761D01*
X77374818Y-54704761D02*
X77374818Y-54085714D01*
X55560180Y-64666666D02*
X54845895Y-64666666D01*
X54845895Y-64666666D02*
X54703038Y-64619047D01*
X54703038Y-64619047D02*
X54607800Y-64523809D01*
X54607800Y-64523809D02*
X54560180Y-64380952D01*
X54560180Y-64380952D02*
X54560180Y-64285714D01*
X55464942Y-65095238D02*
X55512561Y-65142857D01*
X55512561Y-65142857D02*
X55560180Y-65238095D01*
X55560180Y-65238095D02*
X55560180Y-65476190D01*
X55560180Y-65476190D02*
X55512561Y-65571428D01*
X55512561Y-65571428D02*
X55464942Y-65619047D01*
X55464942Y-65619047D02*
X55369704Y-65666666D01*
X55369704Y-65666666D02*
X55274466Y-65666666D01*
X55274466Y-65666666D02*
X55131609Y-65619047D01*
X55131609Y-65619047D02*
X54560180Y-65047619D01*
X54560180Y-65047619D02*
X54560180Y-65666666D01*
X85773809Y-95483628D02*
X85773809Y-95959819D01*
X85440476Y-94959819D02*
X85773809Y-95483628D01*
X85773809Y-95483628D02*
X86107142Y-94959819D01*
X86964285Y-95959819D02*
X86392857Y-95959819D01*
X86678571Y-95959819D02*
X86678571Y-94959819D01*
X86678571Y-94959819D02*
X86583333Y-95102676D01*
X86583333Y-95102676D02*
X86488095Y-95197914D01*
X86488095Y-95197914D02*
X86392857Y-95245533D01*
D11*
%TO.C,U2*%
X61090000Y-48440000D02*
X62910000Y-48440000D01*
X61090000Y-48490000D02*
X61090000Y-48440000D01*
X61090000Y-51560000D02*
X61090000Y-51510000D01*
X62910000Y-48440000D02*
X62910000Y-48490000D01*
X62910000Y-51510000D02*
X62910000Y-51560000D01*
X62910000Y-51560000D02*
X61090000Y-51560000D01*
X63690000Y-51840000D02*
X63210000Y-51840000D01*
X63450000Y-51510000D01*
X63690000Y-51840000D01*
G36*
X63690000Y-51840000D02*
G01*
X63210000Y-51840000D01*
X63450000Y-51510000D01*
X63690000Y-51840000D01*
G37*
%TO.C,J4*%
X89774999Y-73760000D02*
X89924999Y-73760000D01*
X89775000Y-72960000D02*
X89774999Y-73760000D01*
X93855000Y-65419999D02*
X92445000Y-65420000D01*
X93855000Y-74580001D02*
X92445000Y-74580000D01*
%TO.C,R4*%
X56265000Y-62227064D02*
X56265000Y-61772936D01*
X57735000Y-62227064D02*
X57735000Y-61772936D01*
%TO.C,C12*%
X72420000Y-91370000D02*
X72420000Y-90630000D01*
X72460000Y-91537000D02*
X72460000Y-90463000D01*
X72500000Y-91663000D02*
X72500000Y-90337000D01*
X72540000Y-91768000D02*
X72540000Y-90232000D01*
X72580000Y-91859000D02*
X72580000Y-90141000D01*
X72620000Y-91940000D02*
X72620000Y-90060000D01*
X72660000Y-92013000D02*
X72660000Y-89987000D01*
X72700000Y-92080000D02*
X72700000Y-89920000D01*
X72740000Y-92142000D02*
X72740000Y-89858000D01*
X72780000Y-92199000D02*
X72780000Y-89801000D01*
X72820000Y-92253000D02*
X72820000Y-89747000D01*
X72860000Y-92303000D02*
X72860000Y-89697000D01*
X72900000Y-92351000D02*
X72900000Y-89649000D01*
X72940000Y-90160000D02*
X72940000Y-89604000D01*
X72940000Y-92396000D02*
X72940000Y-91840000D01*
X72980000Y-90160000D02*
X72980000Y-89562000D01*
X72980000Y-92438000D02*
X72980000Y-91840000D01*
X73020000Y-90160000D02*
X73020000Y-89522000D01*
X73020000Y-92478000D02*
X73020000Y-91840000D01*
X73060000Y-90160000D02*
X73060000Y-89484000D01*
X73060000Y-92516000D02*
X73060000Y-91840000D01*
X73100000Y-90160000D02*
X73100000Y-89448000D01*
X73100000Y-92552000D02*
X73100000Y-91840000D01*
X73140000Y-90160000D02*
X73140000Y-89414000D01*
X73140000Y-92586000D02*
X73140000Y-91840000D01*
X73180000Y-90160000D02*
X73180000Y-89381000D01*
X73180000Y-92619000D02*
X73180000Y-91840000D01*
X73220000Y-90160000D02*
X73220000Y-89350000D01*
X73220000Y-92650000D02*
X73220000Y-91840000D01*
X73260000Y-90160000D02*
X73260000Y-89320000D01*
X73260000Y-92680000D02*
X73260000Y-91840000D01*
X73300000Y-90160000D02*
X73300000Y-89292000D01*
X73300000Y-92708000D02*
X73300000Y-91840000D01*
X73340000Y-90160000D02*
X73340000Y-89266000D01*
X73340000Y-92734000D02*
X73340000Y-91840000D01*
X73380000Y-90160000D02*
X73380000Y-89240000D01*
X73380000Y-92760000D02*
X73380000Y-91840000D01*
X73420000Y-90160000D02*
X73420000Y-89216000D01*
X73420000Y-92784000D02*
X73420000Y-91840000D01*
X73460000Y-90160000D02*
X73460000Y-89193000D01*
X73460000Y-92807000D02*
X73460000Y-91840000D01*
X73500000Y-90160000D02*
X73500000Y-89171000D01*
X73500000Y-92829000D02*
X73500000Y-91840000D01*
X73540000Y-90160000D02*
X73540000Y-89150000D01*
X73540000Y-92850000D02*
X73540000Y-91840000D01*
X73580000Y-90160000D02*
X73580000Y-89130000D01*
X73580000Y-92870000D02*
X73580000Y-91840000D01*
X73620000Y-90160000D02*
X73620000Y-89111000D01*
X73620000Y-92889000D02*
X73620000Y-91840000D01*
X73660000Y-90160000D02*
X73660000Y-89094000D01*
X73660000Y-92906000D02*
X73660000Y-91840000D01*
X73700000Y-90160000D02*
X73700000Y-89077000D01*
X73700000Y-92923000D02*
X73700000Y-91840000D01*
X73740000Y-90160000D02*
X73740000Y-89061000D01*
X73740000Y-92939000D02*
X73740000Y-91840000D01*
X73780000Y-90160000D02*
X73780000Y-89046000D01*
X73780000Y-92954000D02*
X73780000Y-91840000D01*
X73820000Y-90160000D02*
X73820000Y-89032000D01*
X73820000Y-92968000D02*
X73820000Y-91840000D01*
X73860000Y-90160000D02*
X73860000Y-89019000D01*
X73860000Y-92981000D02*
X73860000Y-91840000D01*
X73900000Y-90160000D02*
X73900000Y-89007000D01*
X73900000Y-92993000D02*
X73900000Y-91840000D01*
X73940000Y-90160000D02*
X73940000Y-88995000D01*
X73940000Y-93005000D02*
X73940000Y-91840000D01*
X73980000Y-90160000D02*
X73980000Y-88985000D01*
X73980000Y-93015000D02*
X73980000Y-91840000D01*
X74020000Y-90160000D02*
X74020000Y-88975000D01*
X74020000Y-93025000D02*
X74020000Y-91840000D01*
X74060000Y-90160000D02*
X74060000Y-88966000D01*
X74060000Y-93034000D02*
X74060000Y-91840000D01*
X74100000Y-90160000D02*
X74100000Y-88958000D01*
X74100000Y-93042000D02*
X74100000Y-91840000D01*
X74140000Y-90160000D02*
X74140000Y-88951000D01*
X74140000Y-93049000D02*
X74140000Y-91840000D01*
X74180000Y-90160000D02*
X74180000Y-88944000D01*
X74180000Y-93056000D02*
X74180000Y-91840000D01*
X74220000Y-90160000D02*
X74220000Y-88939000D01*
X74220000Y-93061000D02*
X74220000Y-91840000D01*
X74260000Y-90160000D02*
X74260000Y-88934000D01*
X74260000Y-93066000D02*
X74260000Y-91840000D01*
X74300000Y-90160000D02*
X74300000Y-88929000D01*
X74300000Y-93071000D02*
X74300000Y-91840000D01*
X74340000Y-90160000D02*
X74340000Y-88926000D01*
X74340000Y-93074000D02*
X74340000Y-91840000D01*
X74380000Y-90160000D02*
X74380000Y-88923000D01*
X74380000Y-93077000D02*
X74380000Y-91840000D01*
X74420000Y-90160000D02*
X74420000Y-88922000D01*
X74420000Y-93078000D02*
X74420000Y-91840000D01*
X74460000Y-90160000D02*
X74460000Y-88920000D01*
X74460000Y-93080000D02*
X74460000Y-91840000D01*
X74500000Y-90160000D02*
X74500000Y-88920000D01*
X74500000Y-93080000D02*
X74500000Y-91840000D01*
X76569801Y-92395000D02*
X76569801Y-91995000D01*
X76769801Y-92195000D02*
X76369801Y-92195000D01*
X76620000Y-91000000D02*
G75*
G02*
X72380000Y-91000000I-2120000J0D01*
G01*
X72380000Y-91000000D02*
G75*
G02*
X76620000Y-91000000I2120000J0D01*
G01*
%TO.C,C5*%
X56265000Y-87238747D02*
X56265000Y-87761253D01*
X57735000Y-87238747D02*
X57735000Y-87761253D01*
%TO.C,C6*%
X88028748Y-78265000D02*
X88551252Y-78265000D01*
X88028748Y-79735000D02*
X88551252Y-79735000D01*
%TO.C,U1*%
X79990000Y-82865000D02*
X85510000Y-82865000D01*
X79990000Y-83390000D02*
X79990000Y-82865000D01*
X79990000Y-93285000D02*
X79990000Y-92760000D01*
X85510000Y-82865000D02*
X85510000Y-83390000D01*
X85510000Y-92760000D02*
X85510000Y-93285000D01*
X85510000Y-93285000D02*
X79990000Y-93285000D01*
X79250000Y-83385000D02*
X78910000Y-82915000D01*
X79590000Y-82915000D01*
X79250000Y-83385000D01*
G36*
X79250000Y-83385000D02*
G01*
X78910000Y-82915000D01*
X79590000Y-82915000D01*
X79250000Y-83385000D01*
G37*
%TO.C,R1*%
X89015000Y-54977064D02*
X89015000Y-54522936D01*
X90485000Y-54977064D02*
X90485000Y-54522936D01*
%TO.C,R6*%
X56265000Y-77427064D02*
X56265000Y-76972936D01*
X57735000Y-77427064D02*
X57735000Y-76972936D01*
%TO.C,C1*%
X77661253Y-66265000D02*
X77138747Y-66265000D01*
X77661253Y-67735000D02*
X77138747Y-67735000D01*
%TO.C,R2*%
X56265000Y-47227064D02*
X56265000Y-46772936D01*
X57735000Y-47227064D02*
X57735000Y-46772936D01*
%TO.C,R3*%
X56265000Y-52772936D02*
X56265000Y-53227064D01*
X57735000Y-52772936D02*
X57735000Y-53227064D01*
%TO.C,R7*%
X56265000Y-82572936D02*
X56265000Y-83027064D01*
X57735000Y-82572936D02*
X57735000Y-83027064D01*
%TO.C,R10*%
X68515000Y-97727064D02*
X68515000Y-97272936D01*
X69985000Y-97727064D02*
X69985000Y-97272936D01*
%TO.C,C7*%
X57670000Y-91970000D02*
X57670000Y-91230000D01*
X57710000Y-92137000D02*
X57710000Y-91063000D01*
X57750000Y-92263000D02*
X57750000Y-90937000D01*
X57790000Y-92368000D02*
X57790000Y-90832000D01*
X57830000Y-92459000D02*
X57830000Y-90741000D01*
X57870000Y-92540000D02*
X57870000Y-90660000D01*
X57910000Y-92613000D02*
X57910000Y-90587000D01*
X57950000Y-92680000D02*
X57950000Y-90520000D01*
X57990000Y-92742000D02*
X57990000Y-90458000D01*
X58030000Y-92799000D02*
X58030000Y-90401000D01*
X58070000Y-92853000D02*
X58070000Y-90347000D01*
X58110000Y-92903000D02*
X58110000Y-90297000D01*
X58150000Y-92951000D02*
X58150000Y-90249000D01*
X58190000Y-90760000D02*
X58190000Y-90204000D01*
X58190000Y-92996000D02*
X58190000Y-92440000D01*
X58230000Y-90760000D02*
X58230000Y-90162000D01*
X58230000Y-93038000D02*
X58230000Y-92440000D01*
X58270000Y-90760000D02*
X58270000Y-90122000D01*
X58270000Y-93078000D02*
X58270000Y-92440000D01*
X58310000Y-90760000D02*
X58310000Y-90084000D01*
X58310000Y-93116000D02*
X58310000Y-92440000D01*
X58350000Y-90760000D02*
X58350000Y-90048000D01*
X58350000Y-93152000D02*
X58350000Y-92440000D01*
X58390000Y-90760000D02*
X58390000Y-90014000D01*
X58390000Y-93186000D02*
X58390000Y-92440000D01*
X58430000Y-90760000D02*
X58430000Y-89981000D01*
X58430000Y-93219000D02*
X58430000Y-92440000D01*
X58470000Y-90760000D02*
X58470000Y-89950000D01*
X58470000Y-93250000D02*
X58470000Y-92440000D01*
X58510000Y-90760000D02*
X58510000Y-89920000D01*
X58510000Y-93280000D02*
X58510000Y-92440000D01*
X58550000Y-90760000D02*
X58550000Y-89892000D01*
X58550000Y-93308000D02*
X58550000Y-92440000D01*
X58590000Y-90760000D02*
X58590000Y-89866000D01*
X58590000Y-93334000D02*
X58590000Y-92440000D01*
X58630000Y-90760000D02*
X58630000Y-89840000D01*
X58630000Y-93360000D02*
X58630000Y-92440000D01*
X58670000Y-90760000D02*
X58670000Y-89816000D01*
X58670000Y-93384000D02*
X58670000Y-92440000D01*
X58710000Y-90760000D02*
X58710000Y-89793000D01*
X58710000Y-93407000D02*
X58710000Y-92440000D01*
X58750000Y-90760000D02*
X58750000Y-89771000D01*
X58750000Y-93429000D02*
X58750000Y-92440000D01*
X58790000Y-90760000D02*
X58790000Y-89750000D01*
X58790000Y-93450000D02*
X58790000Y-92440000D01*
X58830000Y-90760000D02*
X58830000Y-89730000D01*
X58830000Y-93470000D02*
X58830000Y-92440000D01*
X58870000Y-90760000D02*
X58870000Y-89711000D01*
X58870000Y-93489000D02*
X58870000Y-92440000D01*
X58910000Y-90760000D02*
X58910000Y-89694000D01*
X58910000Y-93506000D02*
X58910000Y-92440000D01*
X58950000Y-90760000D02*
X58950000Y-89677000D01*
X58950000Y-93523000D02*
X58950000Y-92440000D01*
X58990000Y-90760000D02*
X58990000Y-89661000D01*
X58990000Y-93539000D02*
X58990000Y-92440000D01*
X59030000Y-90760000D02*
X59030000Y-89646000D01*
X59030000Y-93554000D02*
X59030000Y-92440000D01*
X59070000Y-90760000D02*
X59070000Y-89632000D01*
X59070000Y-93568000D02*
X59070000Y-92440000D01*
X59110000Y-90760000D02*
X59110000Y-89619000D01*
X59110000Y-93581000D02*
X59110000Y-92440000D01*
X59150000Y-90760000D02*
X59150000Y-89607000D01*
X59150000Y-93593000D02*
X59150000Y-92440000D01*
X59190000Y-90760000D02*
X59190000Y-89595000D01*
X59190000Y-93605000D02*
X59190000Y-92440000D01*
X59230000Y-90760000D02*
X59230000Y-89585000D01*
X59230000Y-93615000D02*
X59230000Y-92440000D01*
X59270000Y-90760000D02*
X59270000Y-89575000D01*
X59270000Y-93625000D02*
X59270000Y-92440000D01*
X59310000Y-90760000D02*
X59310000Y-89566000D01*
X59310000Y-93634000D02*
X59310000Y-92440000D01*
X59350000Y-90760000D02*
X59350000Y-89558000D01*
X59350000Y-93642000D02*
X59350000Y-92440000D01*
X59390000Y-90760000D02*
X59390000Y-89551000D01*
X59390000Y-93649000D02*
X59390000Y-92440000D01*
X59430000Y-90760000D02*
X59430000Y-89544000D01*
X59430000Y-93656000D02*
X59430000Y-92440000D01*
X59470000Y-90760000D02*
X59470000Y-89539000D01*
X59470000Y-93661000D02*
X59470000Y-92440000D01*
X59510000Y-90760000D02*
X59510000Y-89534000D01*
X59510000Y-93666000D02*
X59510000Y-92440000D01*
X59550000Y-90760000D02*
X59550000Y-89529000D01*
X59550000Y-93671000D02*
X59550000Y-92440000D01*
X59590000Y-90760000D02*
X59590000Y-89526000D01*
X59590000Y-93674000D02*
X59590000Y-92440000D01*
X59630000Y-90760000D02*
X59630000Y-89523000D01*
X59630000Y-93677000D02*
X59630000Y-92440000D01*
X59670000Y-90760000D02*
X59670000Y-89522000D01*
X59670000Y-93678000D02*
X59670000Y-92440000D01*
X59710000Y-90760000D02*
X59710000Y-89520000D01*
X59710000Y-93680000D02*
X59710000Y-92440000D01*
X59750000Y-90760000D02*
X59750000Y-89520000D01*
X59750000Y-93680000D02*
X59750000Y-92440000D01*
X61819801Y-92995000D02*
X61819801Y-92595000D01*
X62019801Y-92795000D02*
X61619801Y-92795000D01*
X61870000Y-91600000D02*
G75*
G02*
X57630000Y-91600000I-2120000J0D01*
G01*
X57630000Y-91600000D02*
G75*
G02*
X61870000Y-91600000I2120000J0D01*
G01*
%TO.C,C9*%
X78261253Y-98265000D02*
X77738747Y-98265000D01*
X78261253Y-99735000D02*
X77738747Y-99735000D01*
%TO.C,J3*%
X50435000Y-75420000D02*
X51845000Y-75420000D01*
X50435000Y-84580000D02*
X51845000Y-84580000D01*
X54515000Y-76240000D02*
X54365000Y-76240000D01*
X54515000Y-77040000D02*
X54515000Y-76240000D01*
%TO.C,R11*%
X71015000Y-97272936D02*
X71015000Y-97727064D01*
X72485000Y-97272936D02*
X72485000Y-97727064D01*
%TO.C,U5*%
X81580000Y-68440000D02*
X83400000Y-68440000D01*
X81580000Y-68490000D02*
X81580000Y-68440000D01*
X81580000Y-71560000D02*
X81580000Y-71510000D01*
X83400000Y-68440000D02*
X83400000Y-68490000D01*
X83400000Y-71510000D02*
X83400000Y-71560000D01*
X83400000Y-71560000D02*
X81580000Y-71560000D01*
X81040000Y-68490000D02*
X80800000Y-68160000D01*
X81280000Y-68160000D01*
X81040000Y-68490000D01*
G36*
X81040000Y-68490000D02*
G01*
X80800000Y-68160000D01*
X81280000Y-68160000D01*
X81040000Y-68490000D01*
G37*
%TO.C,R17*%
X79552936Y-80320000D02*
X80007064Y-80320000D01*
X79552936Y-81790000D02*
X80007064Y-81790000D01*
%TO.C,C8*%
X50970000Y-91920000D02*
X50970000Y-91180000D01*
X51010000Y-92087000D02*
X51010000Y-91013000D01*
X51050000Y-92213000D02*
X51050000Y-90887000D01*
X51090000Y-92318000D02*
X51090000Y-90782000D01*
X51130000Y-92409000D02*
X51130000Y-90691000D01*
X51170000Y-92490000D02*
X51170000Y-90610000D01*
X51210000Y-92563000D02*
X51210000Y-90537000D01*
X51250000Y-92630000D02*
X51250000Y-90470000D01*
X51290000Y-92692000D02*
X51290000Y-90408000D01*
X51330000Y-92749000D02*
X51330000Y-90351000D01*
X51370000Y-92803000D02*
X51370000Y-90297000D01*
X51410000Y-92853000D02*
X51410000Y-90247000D01*
X51450000Y-92901000D02*
X51450000Y-90199000D01*
X51490000Y-90710000D02*
X51490000Y-90154000D01*
X51490000Y-92946000D02*
X51490000Y-92390000D01*
X51530000Y-90710000D02*
X51530000Y-90112000D01*
X51530000Y-92988000D02*
X51530000Y-92390000D01*
X51570000Y-90710000D02*
X51570000Y-90072000D01*
X51570000Y-93028000D02*
X51570000Y-92390000D01*
X51610000Y-90710000D02*
X51610000Y-90034000D01*
X51610000Y-93066000D02*
X51610000Y-92390000D01*
X51650000Y-90710000D02*
X51650000Y-89998000D01*
X51650000Y-93102000D02*
X51650000Y-92390000D01*
X51690000Y-90710000D02*
X51690000Y-89964000D01*
X51690000Y-93136000D02*
X51690000Y-92390000D01*
X51730000Y-90710000D02*
X51730000Y-89931000D01*
X51730000Y-93169000D02*
X51730000Y-92390000D01*
X51770000Y-90710000D02*
X51770000Y-89900000D01*
X51770000Y-93200000D02*
X51770000Y-92390000D01*
X51810000Y-90710000D02*
X51810000Y-89870000D01*
X51810000Y-93230000D02*
X51810000Y-92390000D01*
X51850000Y-90710000D02*
X51850000Y-89842000D01*
X51850000Y-93258000D02*
X51850000Y-92390000D01*
X51890000Y-90710000D02*
X51890000Y-89816000D01*
X51890000Y-93284000D02*
X51890000Y-92390000D01*
X51930000Y-90710000D02*
X51930000Y-89790000D01*
X51930000Y-93310000D02*
X51930000Y-92390000D01*
X51970000Y-90710000D02*
X51970000Y-89766000D01*
X51970000Y-93334000D02*
X51970000Y-92390000D01*
X52010000Y-90710000D02*
X52010000Y-89743000D01*
X52010000Y-93357000D02*
X52010000Y-92390000D01*
X52050000Y-90710000D02*
X52050000Y-89721000D01*
X52050000Y-93379000D02*
X52050000Y-92390000D01*
X52090000Y-90710000D02*
X52090000Y-89700000D01*
X52090000Y-93400000D02*
X52090000Y-92390000D01*
X52130000Y-90710000D02*
X52130000Y-89680000D01*
X52130000Y-93420000D02*
X52130000Y-92390000D01*
X52170000Y-90710000D02*
X52170000Y-89661000D01*
X52170000Y-93439000D02*
X52170000Y-92390000D01*
X52210000Y-90710000D02*
X52210000Y-89644000D01*
X52210000Y-93456000D02*
X52210000Y-92390000D01*
X52250000Y-90710000D02*
X52250000Y-89627000D01*
X52250000Y-93473000D02*
X52250000Y-92390000D01*
X52290000Y-90710000D02*
X52290000Y-89611000D01*
X52290000Y-93489000D02*
X52290000Y-92390000D01*
X52330000Y-90710000D02*
X52330000Y-89596000D01*
X52330000Y-93504000D02*
X52330000Y-92390000D01*
X52370000Y-90710000D02*
X52370000Y-89582000D01*
X52370000Y-93518000D02*
X52370000Y-92390000D01*
X52410000Y-90710000D02*
X52410000Y-89569000D01*
X52410000Y-93531000D02*
X52410000Y-92390000D01*
X52450000Y-90710000D02*
X52450000Y-89557000D01*
X52450000Y-93543000D02*
X52450000Y-92390000D01*
X52490000Y-90710000D02*
X52490000Y-89545000D01*
X52490000Y-93555000D02*
X52490000Y-92390000D01*
X52530000Y-90710000D02*
X52530000Y-89535000D01*
X52530000Y-93565000D02*
X52530000Y-92390000D01*
X52570000Y-90710000D02*
X52570000Y-89525000D01*
X52570000Y-93575000D02*
X52570000Y-92390000D01*
X52610000Y-90710000D02*
X52610000Y-89516000D01*
X52610000Y-93584000D02*
X52610000Y-92390000D01*
X52650000Y-90710000D02*
X52650000Y-89508000D01*
X52650000Y-93592000D02*
X52650000Y-92390000D01*
X52690000Y-90710000D02*
X52690000Y-89501000D01*
X52690000Y-93599000D02*
X52690000Y-92390000D01*
X52730000Y-90710000D02*
X52730000Y-89494000D01*
X52730000Y-93606000D02*
X52730000Y-92390000D01*
X52770000Y-90710000D02*
X52770000Y-89489000D01*
X52770000Y-93611000D02*
X52770000Y-92390000D01*
X52810000Y-90710000D02*
X52810000Y-89484000D01*
X52810000Y-93616000D02*
X52810000Y-92390000D01*
X52850000Y-90710000D02*
X52850000Y-89479000D01*
X52850000Y-93621000D02*
X52850000Y-92390000D01*
X52890000Y-90710000D02*
X52890000Y-89476000D01*
X52890000Y-93624000D02*
X52890000Y-92390000D01*
X52930000Y-90710000D02*
X52930000Y-89473000D01*
X52930000Y-93627000D02*
X52930000Y-92390000D01*
X52970000Y-90710000D02*
X52970000Y-89472000D01*
X52970000Y-93628000D02*
X52970000Y-92390000D01*
X53010000Y-90710000D02*
X53010000Y-89470000D01*
X53010000Y-93630000D02*
X53010000Y-92390000D01*
X53050000Y-90710000D02*
X53050000Y-89470000D01*
X53050000Y-93630000D02*
X53050000Y-92390000D01*
X55119801Y-92945000D02*
X55119801Y-92545000D01*
X55319801Y-92745000D02*
X54919801Y-92745000D01*
X55170000Y-91550000D02*
G75*
G02*
X50930000Y-91550000I-2120000J0D01*
G01*
X50930000Y-91550000D02*
G75*
G02*
X55170000Y-91550000I2120000J0D01*
G01*
%TO.C,J5*%
X44125000Y-97500000D02*
X44125000Y-102500000D01*
X46125000Y-96900000D02*
X46125000Y-97500000D01*
X46125000Y-96900000D02*
X48500000Y-96900000D01*
X46125000Y-97500000D02*
X44125000Y-97500000D01*
X46125000Y-102500000D02*
X44125000Y-102500000D01*
X46125000Y-102500000D02*
X46125000Y-103100000D01*
X50150000Y-96900000D02*
X51500000Y-96900000D01*
X53150000Y-96900000D02*
X55550000Y-96900000D01*
X55550000Y-96900000D02*
X55550000Y-95500000D01*
X56650000Y-103100000D02*
X46125000Y-103100000D01*
X57100000Y-96900000D02*
X57100000Y-95500000D01*
X57100000Y-96900000D02*
X58225000Y-96900000D01*
X58225000Y-103100000D02*
X58225000Y-96900000D01*
%TO.C,R8*%
X86555000Y-72572936D02*
X86555000Y-73027064D01*
X88025000Y-72572936D02*
X88025000Y-73027064D01*
%TO.C,R16*%
X73272936Y-86265000D02*
X73727064Y-86265000D01*
X73272936Y-87735000D02*
X73727064Y-87735000D01*
%TO.C,J1*%
X50435000Y-45420000D02*
X51845000Y-45420000D01*
X50435000Y-54580000D02*
X51845000Y-54580000D01*
X54515000Y-46240000D02*
X54365000Y-46240000D01*
X54515000Y-47040000D02*
X54515000Y-46240000D01*
%TO.C,R13*%
X73272936Y-82240000D02*
X73727064Y-82240000D01*
X73272936Y-83710000D02*
X73727064Y-83710000D01*
%TO.C,C15*%
X91788748Y-85515000D02*
X92311252Y-85515000D01*
X91788748Y-86985000D02*
X92311252Y-86985000D01*
%TO.C,R15*%
X89272936Y-93515000D02*
X89727064Y-93515000D01*
X89272936Y-94985000D02*
X89727064Y-94985000D01*
%TO.C,U4*%
X60890000Y-78440000D02*
X62710000Y-78440000D01*
X60890000Y-78490000D02*
X60890000Y-78440000D01*
X60890000Y-81560000D02*
X60890000Y-81510000D01*
X62710000Y-78440000D02*
X62710000Y-78490000D01*
X62710000Y-81510000D02*
X62710000Y-81560000D01*
X62710000Y-81560000D02*
X60890000Y-81560000D01*
X63490000Y-81840000D02*
X63010000Y-81840000D01*
X63250000Y-81510000D01*
X63490000Y-81840000D01*
G36*
X63490000Y-81840000D02*
G01*
X63010000Y-81840000D01*
X63250000Y-81510000D01*
X63490000Y-81840000D01*
G37*
%TO.C,R14*%
X73272936Y-84240000D02*
X73727064Y-84240000D01*
X73272936Y-85710000D02*
X73727064Y-85710000D01*
%TO.C,SW1*%
X79000000Y-54000000D02*
X79000000Y-55500000D01*
X80250000Y-58000000D02*
X84750000Y-58000000D01*
X84750000Y-51500000D02*
X80250000Y-51500000D01*
X86000000Y-55500000D02*
X86000000Y-54000000D01*
%TO.C,C10*%
X78261253Y-95015000D02*
X77738747Y-95015000D01*
X78261253Y-96485000D02*
X77738747Y-96485000D01*
%TO.C,C4*%
X56265000Y-72238747D02*
X56265000Y-72761253D01*
X57735000Y-72238747D02*
X57735000Y-72761253D01*
%TO.C,R5*%
X56265000Y-67772936D02*
X56265000Y-68227064D01*
X57735000Y-67772936D02*
X57735000Y-68227064D01*
%TO.C,C3*%
X56265000Y-57238747D02*
X56265000Y-57761253D01*
X57735000Y-57238747D02*
X57735000Y-57761253D01*
%TO.C,R9*%
X86555000Y-67427064D02*
X86555000Y-66972936D01*
X88025000Y-67427064D02*
X88025000Y-66972936D01*
%TO.C,C13*%
X91738748Y-89515000D02*
X92261252Y-89515000D01*
X91738748Y-90985000D02*
X92261252Y-90985000D01*
%TO.C,C2*%
X77661253Y-62865000D02*
X77138747Y-62865000D01*
X77661253Y-64335000D02*
X77138747Y-64335000D01*
%TO.C,U3*%
X60890000Y-63440000D02*
X62710000Y-63440000D01*
X60890000Y-63490000D02*
X60890000Y-63440000D01*
X60890000Y-66560000D02*
X60890000Y-66510000D01*
X62710000Y-63440000D02*
X62710000Y-63490000D01*
X62710000Y-66510000D02*
X62710000Y-66560000D01*
X62710000Y-66560000D02*
X60890000Y-66560000D01*
X63490000Y-66840000D02*
X63010000Y-66840000D01*
X63250000Y-66510000D01*
X63490000Y-66840000D01*
G36*
X63490000Y-66840000D02*
G01*
X63010000Y-66840000D01*
X63250000Y-66510000D01*
X63490000Y-66840000D01*
G37*
%TO.C,IC1*%
X68190000Y-61440000D02*
X72310000Y-61440000D01*
X68190000Y-61520000D02*
X68190000Y-61440000D01*
X68190000Y-71560000D02*
X68190000Y-71480000D01*
X72310000Y-61440000D02*
X72310000Y-61520000D01*
X72310000Y-71480000D02*
X72310000Y-71560000D01*
X72310000Y-71560000D02*
X68190000Y-71560000D01*
X67590000Y-61510000D02*
X67350000Y-61180000D01*
X67830000Y-61180000D01*
X67590000Y-61510000D01*
G36*
X67590000Y-61510000D02*
G01*
X67350000Y-61180000D01*
X67830000Y-61180000D01*
X67590000Y-61510000D01*
G37*
%TO.C,C11*%
X66420000Y-91370000D02*
X66420000Y-90630000D01*
X66460000Y-91537000D02*
X66460000Y-90463000D01*
X66500000Y-91663000D02*
X66500000Y-90337000D01*
X66540000Y-91768000D02*
X66540000Y-90232000D01*
X66580000Y-91859000D02*
X66580000Y-90141000D01*
X66620000Y-91940000D02*
X66620000Y-90060000D01*
X66660000Y-92013000D02*
X66660000Y-89987000D01*
X66700000Y-92080000D02*
X66700000Y-89920000D01*
X66740000Y-92142000D02*
X66740000Y-89858000D01*
X66780000Y-92199000D02*
X66780000Y-89801000D01*
X66820000Y-92253000D02*
X66820000Y-89747000D01*
X66860000Y-92303000D02*
X66860000Y-89697000D01*
X66900000Y-92351000D02*
X66900000Y-89649000D01*
X66940000Y-90160000D02*
X66940000Y-89604000D01*
X66940000Y-92396000D02*
X66940000Y-91840000D01*
X66980000Y-90160000D02*
X66980000Y-89562000D01*
X66980000Y-92438000D02*
X66980000Y-91840000D01*
X67020000Y-90160000D02*
X67020000Y-89522000D01*
X67020000Y-92478000D02*
X67020000Y-91840000D01*
X67060000Y-90160000D02*
X67060000Y-89484000D01*
X67060000Y-92516000D02*
X67060000Y-91840000D01*
X67100000Y-90160000D02*
X67100000Y-89448000D01*
X67100000Y-92552000D02*
X67100000Y-91840000D01*
X67140000Y-90160000D02*
X67140000Y-89414000D01*
X67140000Y-92586000D02*
X67140000Y-91840000D01*
X67180000Y-90160000D02*
X67180000Y-89381000D01*
X67180000Y-92619000D02*
X67180000Y-91840000D01*
X67220000Y-90160000D02*
X67220000Y-89350000D01*
X67220000Y-92650000D02*
X67220000Y-91840000D01*
X67260000Y-90160000D02*
X67260000Y-89320000D01*
X67260000Y-92680000D02*
X67260000Y-91840000D01*
X67300000Y-90160000D02*
X67300000Y-89292000D01*
X67300000Y-92708000D02*
X67300000Y-91840000D01*
X67340000Y-90160000D02*
X67340000Y-89266000D01*
X67340000Y-92734000D02*
X67340000Y-91840000D01*
X67380000Y-90160000D02*
X67380000Y-89240000D01*
X67380000Y-92760000D02*
X67380000Y-91840000D01*
X67420000Y-90160000D02*
X67420000Y-89216000D01*
X67420000Y-92784000D02*
X67420000Y-91840000D01*
X67460000Y-90160000D02*
X67460000Y-89193000D01*
X67460000Y-92807000D02*
X67460000Y-91840000D01*
X67500000Y-90160000D02*
X67500000Y-89171000D01*
X67500000Y-92829000D02*
X67500000Y-91840000D01*
X67540000Y-90160000D02*
X67540000Y-89150000D01*
X67540000Y-92850000D02*
X67540000Y-91840000D01*
X67580000Y-90160000D02*
X67580000Y-89130000D01*
X67580000Y-92870000D02*
X67580000Y-91840000D01*
X67620000Y-90160000D02*
X67620000Y-89111000D01*
X67620000Y-92889000D02*
X67620000Y-91840000D01*
X67660000Y-90160000D02*
X67660000Y-89094000D01*
X67660000Y-92906000D02*
X67660000Y-91840000D01*
X67700000Y-90160000D02*
X67700000Y-89077000D01*
X67700000Y-92923000D02*
X67700000Y-91840000D01*
X67740000Y-90160000D02*
X67740000Y-89061000D01*
X67740000Y-92939000D02*
X67740000Y-91840000D01*
X67780000Y-90160000D02*
X67780000Y-89046000D01*
X67780000Y-92954000D02*
X67780000Y-91840000D01*
X67820000Y-90160000D02*
X67820000Y-89032000D01*
X67820000Y-92968000D02*
X67820000Y-91840000D01*
X67860000Y-90160000D02*
X67860000Y-89019000D01*
X67860000Y-92981000D02*
X67860000Y-91840000D01*
X67900000Y-90160000D02*
X67900000Y-89007000D01*
X67900000Y-92993000D02*
X67900000Y-91840000D01*
X67940000Y-90160000D02*
X67940000Y-88995000D01*
X67940000Y-93005000D02*
X67940000Y-91840000D01*
X67980000Y-90160000D02*
X67980000Y-88985000D01*
X67980000Y-93015000D02*
X67980000Y-91840000D01*
X68020000Y-90160000D02*
X68020000Y-88975000D01*
X68020000Y-93025000D02*
X68020000Y-91840000D01*
X68060000Y-90160000D02*
X68060000Y-88966000D01*
X68060000Y-93034000D02*
X68060000Y-91840000D01*
X68100000Y-90160000D02*
X68100000Y-88958000D01*
X68100000Y-93042000D02*
X68100000Y-91840000D01*
X68140000Y-90160000D02*
X68140000Y-88951000D01*
X68140000Y-93049000D02*
X68140000Y-91840000D01*
X68180000Y-90160000D02*
X68180000Y-88944000D01*
X68180000Y-93056000D02*
X68180000Y-91840000D01*
X68220000Y-90160000D02*
X68220000Y-88939000D01*
X68220000Y-93061000D02*
X68220000Y-91840000D01*
X68260000Y-90160000D02*
X68260000Y-88934000D01*
X68260000Y-93066000D02*
X68260000Y-91840000D01*
X68300000Y-90160000D02*
X68300000Y-88929000D01*
X68300000Y-93071000D02*
X68300000Y-91840000D01*
X68340000Y-90160000D02*
X68340000Y-88926000D01*
X68340000Y-93074000D02*
X68340000Y-91840000D01*
X68380000Y-90160000D02*
X68380000Y-88923000D01*
X68380000Y-93077000D02*
X68380000Y-91840000D01*
X68420000Y-90160000D02*
X68420000Y-88922000D01*
X68420000Y-93078000D02*
X68420000Y-91840000D01*
X68460000Y-90160000D02*
X68460000Y-88920000D01*
X68460000Y-93080000D02*
X68460000Y-91840000D01*
X68500000Y-90160000D02*
X68500000Y-88920000D01*
X68500000Y-93080000D02*
X68500000Y-91840000D01*
X70569801Y-92395000D02*
X70569801Y-91995000D01*
X70769801Y-92195000D02*
X70369801Y-92195000D01*
X70620000Y-91000000D02*
G75*
G02*
X66380000Y-91000000I-2120000J0D01*
G01*
X66380000Y-91000000D02*
G75*
G02*
X70620000Y-91000000I2120000J0D01*
G01*
%TO.C,C14*%
X91738748Y-87515000D02*
X92261252Y-87515000D01*
X91738748Y-88985000D02*
X92261252Y-88985000D01*
%TO.C,Y2*%
X70965000Y-58000000D02*
X70965000Y-51600000D01*
X75835000Y-51600000D02*
X75835000Y-58000000D01*
X70965000Y-51600000D02*
G75*
G02*
X75835000Y-51600000I2435000J0D01*
G01*
X75835000Y-58000000D02*
G75*
G02*
X70965000Y-58000000I-2435000J0D01*
G01*
%TO.C,J2*%
X50435000Y-60420000D02*
X51845000Y-60420000D01*
X50435000Y-69580000D02*
X51845000Y-69580000D01*
X54515000Y-61240000D02*
X54365000Y-61240000D01*
X54515000Y-62040000D02*
X54515000Y-61240000D01*
%TO.C,Y1*%
X83050000Y-96590000D02*
X89450000Y-96590000D01*
X89450000Y-101460000D02*
X83050000Y-101460000D01*
X83050000Y-101460000D02*
G75*
G02*
X83050000Y-96590000I0J2435000D01*
G01*
X89450000Y-96590000D02*
G75*
G02*
X89450000Y-101460000I0J-2435000D01*
G01*
D12*
%TO.C,G\u002A\u002A\u002A*%
G36*
X73899643Y-72999982D02*
G01*
X75498583Y-72999991D01*
X75641206Y-72999992D01*
X75746616Y-72999993D01*
X75840401Y-73044910D01*
X75896987Y-73075856D01*
X75947981Y-73110255D01*
X75976325Y-73134775D01*
X75989539Y-73154019D01*
X76017070Y-73198294D01*
X76057702Y-73265502D01*
X76110222Y-73353546D01*
X76173415Y-73460324D01*
X76246066Y-73583740D01*
X76326962Y-73721694D01*
X76381903Y-73815669D01*
X76414887Y-73872088D01*
X76508627Y-74032820D01*
X76606968Y-74201796D01*
X76708696Y-74376914D01*
X76812595Y-74556076D01*
X76917452Y-74737184D01*
X77014637Y-74905310D01*
X77022052Y-74918138D01*
X77125181Y-75096840D01*
X77225623Y-75271192D01*
X77322166Y-75439092D01*
X77413594Y-75598444D01*
X77498692Y-75747149D01*
X77576247Y-75883108D01*
X77645044Y-76004222D01*
X77703869Y-76108392D01*
X77751507Y-76193519D01*
X77786743Y-76257505D01*
X77808364Y-76298252D01*
X77814852Y-76312117D01*
X77828050Y-76375317D01*
X77832615Y-76454636D01*
X77828680Y-76536186D01*
X77816377Y-76606080D01*
X77811893Y-76620434D01*
X77801358Y-76641808D01*
X77776195Y-76688446D01*
X77737424Y-76758548D01*
X77686067Y-76850317D01*
X77623146Y-76961954D01*
X77549681Y-77091661D01*
X77466693Y-77237638D01*
X77375206Y-77398087D01*
X77276238Y-77571209D01*
X77170811Y-77755205D01*
X77059947Y-77948280D01*
X76944668Y-78148630D01*
X76912182Y-78205015D01*
X76773551Y-78445448D01*
X76649532Y-78660238D01*
X76539228Y-78850885D01*
X76441741Y-79018888D01*
X76356169Y-79165747D01*
X76281618Y-79292960D01*
X76217187Y-79402027D01*
X76161977Y-79494447D01*
X76115090Y-79571718D01*
X76075628Y-79635342D01*
X76042691Y-79686815D01*
X76015381Y-79727639D01*
X75992800Y-79759311D01*
X75974050Y-79783332D01*
X75958228Y-79801200D01*
X75951245Y-79808191D01*
X75931519Y-79827794D01*
X75914311Y-79845374D01*
X75897906Y-79861038D01*
X75880589Y-79874890D01*
X75860644Y-79887039D01*
X75836356Y-79897589D01*
X75806009Y-79906646D01*
X75767888Y-79914318D01*
X75720278Y-79920709D01*
X75661463Y-79925926D01*
X75589727Y-79930075D01*
X75503356Y-79933262D01*
X75400633Y-79935594D01*
X75279845Y-79937176D01*
X75139274Y-79938114D01*
X74977204Y-79938515D01*
X74791924Y-79938484D01*
X74581715Y-79938128D01*
X74344862Y-79937553D01*
X74079649Y-79936865D01*
X73878642Y-79936380D01*
X72057754Y-79932215D01*
X71976052Y-79895275D01*
X71916331Y-79860919D01*
X71857844Y-79815821D01*
X71835140Y-79793676D01*
X71820393Y-79772600D01*
X71791357Y-79726499D01*
X71749258Y-79657486D01*
X71695319Y-79567676D01*
X71630767Y-79459186D01*
X71556825Y-79334128D01*
X71474719Y-79194616D01*
X71416872Y-79095969D01*
X72234334Y-79095969D01*
X72273565Y-79162399D01*
X72312796Y-79228830D01*
X73904660Y-79232441D01*
X75496524Y-79236052D01*
X76290607Y-77857365D01*
X76431588Y-77612290D01*
X76557192Y-77393286D01*
X76667902Y-77199485D01*
X76764203Y-77030018D01*
X76846577Y-76884017D01*
X76915509Y-76760613D01*
X76971481Y-76658938D01*
X77014977Y-76578124D01*
X77046481Y-76517301D01*
X77066477Y-76475603D01*
X77075447Y-76452160D01*
X77075941Y-76446985D01*
X77062570Y-76415286D01*
X77043042Y-76384337D01*
X77024363Y-76363881D01*
X77014637Y-76361725D01*
X77006068Y-76375976D01*
X76983060Y-76415323D01*
X76946770Y-76477768D01*
X76898351Y-76561311D01*
X76838961Y-76663953D01*
X76769753Y-76783697D01*
X76691885Y-76918544D01*
X76606508Y-77066494D01*
X76514782Y-77225551D01*
X76417862Y-77393712D01*
X76355689Y-77501630D01*
X76254470Y-77676971D01*
X76156356Y-77846183D01*
X76062653Y-78007061D01*
X75974665Y-78157399D01*
X75893694Y-78294992D01*
X75821047Y-78417634D01*
X75758026Y-78523121D01*
X75705936Y-78609246D01*
X75666080Y-78673806D01*
X75639764Y-78714593D01*
X75631817Y-78725735D01*
X75525791Y-78838001D01*
X75397225Y-78935693D01*
X75253183Y-79014294D01*
X75100723Y-79069285D01*
X75090747Y-79071920D01*
X75071010Y-79076166D01*
X75045460Y-79079894D01*
X75012107Y-79083133D01*
X74968960Y-79085920D01*
X74914033Y-79088286D01*
X74845335Y-79090262D01*
X74760876Y-79091882D01*
X74658667Y-79093179D01*
X74536720Y-79094184D01*
X74393043Y-79094927D01*
X74225649Y-79095447D01*
X74032547Y-79095771D01*
X73811749Y-79095933D01*
X73615960Y-79095969D01*
X72234334Y-79095969D01*
X71416872Y-79095969D01*
X71385674Y-79042767D01*
X71290914Y-78880695D01*
X71191665Y-78710512D01*
X71089151Y-78534337D01*
X70984597Y-78354282D01*
X70929797Y-78259723D01*
X71960825Y-78259723D01*
X72079575Y-78264357D01*
X72141923Y-78265544D01*
X72195558Y-78264352D01*
X72203030Y-78263630D01*
X73238281Y-78263630D01*
X73252554Y-78265360D01*
X73291095Y-78266698D01*
X73346911Y-78267446D01*
X73376773Y-78267538D01*
X73444129Y-78266929D01*
X73490612Y-78263227D01*
X73503740Y-78259723D01*
X74517468Y-78259723D01*
X74647488Y-78264570D01*
X74718511Y-78265677D01*
X74786781Y-78264152D01*
X74839098Y-78260331D01*
X74844932Y-78259555D01*
X74913691Y-78237463D01*
X74956580Y-78207816D01*
X74970524Y-78188549D01*
X74998883Y-78144068D01*
X75040527Y-78076284D01*
X75094327Y-77987108D01*
X75159154Y-77878450D01*
X75233878Y-77752221D01*
X75317372Y-77610330D01*
X75408503Y-77454688D01*
X75506144Y-77287205D01*
X75609167Y-77109792D01*
X75716442Y-76924361D01*
X75768062Y-76834887D01*
X76535320Y-75503835D01*
X76463640Y-75377317D01*
X76431430Y-75322264D01*
X76404391Y-75279365D01*
X76386422Y-75254644D01*
X76381903Y-75250974D01*
X76372885Y-75264257D01*
X76349358Y-75302860D01*
X76312365Y-75364987D01*
X76262952Y-75448842D01*
X76202167Y-75552629D01*
X76131055Y-75674553D01*
X76050662Y-75812817D01*
X75962035Y-75965626D01*
X75866219Y-76131184D01*
X75764261Y-76307696D01*
X75657206Y-76493365D01*
X75574676Y-76636716D01*
X75438752Y-76872830D01*
X75317329Y-77083353D01*
X75209418Y-77269848D01*
X75114027Y-77433879D01*
X75030170Y-77577006D01*
X74956852Y-77700795D01*
X74893086Y-77806806D01*
X74837882Y-77896602D01*
X74790250Y-77971747D01*
X74749199Y-78033802D01*
X74713736Y-78084331D01*
X74682877Y-78124896D01*
X74655628Y-78157058D01*
X74631000Y-78182384D01*
X74608003Y-78202433D01*
X74585646Y-78218768D01*
X74563516Y-78232613D01*
X74517468Y-78259723D01*
X73503740Y-78259723D01*
X73526608Y-78253619D01*
X73562503Y-78235289D01*
X73608685Y-78205424D01*
X73610486Y-78204223D01*
X73668210Y-78160080D01*
X73723465Y-78108622D01*
X73759173Y-78067452D01*
X73773748Y-78044711D01*
X73802890Y-77996607D01*
X73845585Y-77924880D01*
X73900819Y-77831268D01*
X73967578Y-77717511D01*
X74044848Y-77585346D01*
X74131614Y-77436516D01*
X74226864Y-77272757D01*
X74329582Y-77095808D01*
X74438754Y-76907408D01*
X74553366Y-76709298D01*
X74672405Y-76503217D01*
X74768205Y-76337138D01*
X75723365Y-74680276D01*
X75641206Y-74675248D01*
X75544031Y-74678792D01*
X75465918Y-74703811D01*
X75401741Y-74751979D01*
X75399677Y-74754112D01*
X75385626Y-74774090D01*
X75357030Y-74819432D01*
X75314910Y-74888398D01*
X75260294Y-74979246D01*
X75194207Y-75090235D01*
X75117676Y-75219623D01*
X75031724Y-75365669D01*
X74937381Y-75526633D01*
X74835670Y-75700770D01*
X74727617Y-75886343D01*
X74614249Y-76081609D01*
X74496590Y-76284825D01*
X74426332Y-76406435D01*
X74306450Y-76613938D01*
X74190196Y-76814838D01*
X74078604Y-77007364D01*
X73972708Y-77189746D01*
X73873544Y-77360211D01*
X73782146Y-77516988D01*
X73699549Y-77658305D01*
X73626787Y-77782392D01*
X73564897Y-77887476D01*
X73514910Y-77971787D01*
X73477864Y-78033552D01*
X73454793Y-78071001D01*
X73448309Y-78080763D01*
X73402676Y-78133010D01*
X73346321Y-78184507D01*
X73316624Y-78206850D01*
X73275416Y-78235356D01*
X73247012Y-78256058D01*
X73238281Y-78263630D01*
X72203030Y-78263630D01*
X72229784Y-78261045D01*
X72231787Y-78260594D01*
X72272765Y-78241822D01*
X72326226Y-78205882D01*
X72384141Y-78159205D01*
X72438484Y-78108219D01*
X72478350Y-78063128D01*
X72490711Y-78043830D01*
X72517309Y-77999821D01*
X72556991Y-77933088D01*
X72608607Y-77845615D01*
X72671005Y-77739389D01*
X72743036Y-77616396D01*
X72823544Y-77478622D01*
X72911382Y-77328052D01*
X73005398Y-77166672D01*
X73104438Y-76996468D01*
X73207353Y-76819426D01*
X73312991Y-76637531D01*
X73420201Y-76452771D01*
X73527832Y-76267130D01*
X73634731Y-76082594D01*
X73739749Y-75901150D01*
X73841733Y-75724782D01*
X73939532Y-75555477D01*
X74031994Y-75395222D01*
X74117970Y-75246000D01*
X74196306Y-75109799D01*
X74265852Y-74988605D01*
X74325456Y-74884403D01*
X74373968Y-74799179D01*
X74410236Y-74734918D01*
X74433107Y-74693607D01*
X74441432Y-74677232D01*
X74441447Y-74677119D01*
X74426946Y-74675082D01*
X74387921Y-74674292D01*
X74331085Y-74674806D01*
X74289935Y-74675804D01*
X74138422Y-74680276D01*
X73188350Y-76329323D01*
X73066601Y-76540450D01*
X72948266Y-76745282D01*
X72834380Y-76942044D01*
X72725980Y-77128963D01*
X72624102Y-77304264D01*
X72529781Y-77466174D01*
X72444053Y-77612919D01*
X72367954Y-77742724D01*
X72302521Y-77853817D01*
X72248788Y-77944422D01*
X72207792Y-78012767D01*
X72180569Y-78057078D01*
X72169958Y-78073271D01*
X72124823Y-78128535D01*
X72073901Y-78179856D01*
X72031231Y-78213947D01*
X71960825Y-78259723D01*
X70929797Y-78259723D01*
X70879226Y-78172462D01*
X70774268Y-77990992D01*
X70670944Y-77811986D01*
X70570479Y-77637561D01*
X70474098Y-77469827D01*
X70452016Y-77431292D01*
X71275611Y-77431292D01*
X71344011Y-77552430D01*
X71375462Y-77606244D01*
X71401764Y-77647779D01*
X71418909Y-77670854D01*
X71422582Y-77673569D01*
X71431202Y-77660382D01*
X71454218Y-77622233D01*
X71490402Y-77561238D01*
X71538527Y-77479512D01*
X71597366Y-77379171D01*
X71665692Y-77262331D01*
X71742279Y-77131107D01*
X71825898Y-76987616D01*
X71915322Y-76833973D01*
X72009326Y-76672294D01*
X72106681Y-76504695D01*
X72206161Y-76333291D01*
X72306539Y-76160200D01*
X72406587Y-75987535D01*
X72505079Y-75817413D01*
X72600787Y-75651950D01*
X72692484Y-75493262D01*
X72778944Y-75343465D01*
X72858938Y-75204673D01*
X72931241Y-75079004D01*
X72994625Y-74968572D01*
X73047863Y-74875494D01*
X73089728Y-74801886D01*
X73118993Y-74749863D01*
X73132743Y-74724766D01*
X73160470Y-74672461D01*
X73014876Y-74672461D01*
X72869282Y-74672461D01*
X72072446Y-76051876D01*
X71275611Y-77431292D01*
X70452016Y-77431292D01*
X70383027Y-77310903D01*
X70298490Y-77162902D01*
X70221712Y-77027939D01*
X70153918Y-76908128D01*
X70096333Y-76805585D01*
X70050181Y-76722423D01*
X70016688Y-76660758D01*
X69997078Y-76622704D01*
X69992779Y-76612961D01*
X69978468Y-76547971D01*
X69973179Y-76467907D01*
X69973592Y-76459053D01*
X70722651Y-76459053D01*
X70728311Y-76480358D01*
X70743852Y-76515094D01*
X70745171Y-76517667D01*
X70764525Y-76549087D01*
X70779622Y-76563658D01*
X70780536Y-76563784D01*
X70789687Y-76550677D01*
X70812906Y-76513112D01*
X70848658Y-76453720D01*
X70895411Y-76375132D01*
X70951631Y-76279981D01*
X71015784Y-76170897D01*
X71086337Y-76050513D01*
X71161756Y-75921461D01*
X71240507Y-75786371D01*
X71321058Y-75647877D01*
X71401874Y-75508608D01*
X71481422Y-75371198D01*
X71558169Y-75238278D01*
X71630580Y-75112479D01*
X71697123Y-74996433D01*
X71756264Y-74892772D01*
X71806468Y-74804127D01*
X71821125Y-74778064D01*
X71881479Y-74670494D01*
X71814017Y-74675385D01*
X71746554Y-74680276D01*
X71235266Y-75563415D01*
X71147234Y-75715622D01*
X71063957Y-75859907D01*
X70986740Y-75993984D01*
X70916888Y-76115572D01*
X70855712Y-76222391D01*
X70804510Y-76312158D01*
X70764595Y-76382591D01*
X70737268Y-76431409D01*
X70723838Y-76456331D01*
X70722651Y-76459053D01*
X69973592Y-76459053D01*
X69976949Y-76387175D01*
X69989815Y-76320185D01*
X69991996Y-76313692D01*
X70002601Y-76292313D01*
X70027722Y-76246032D01*
X70066138Y-76176961D01*
X70116632Y-76087212D01*
X70177983Y-75978895D01*
X70248974Y-75854124D01*
X70328384Y-75715008D01*
X70414996Y-75563662D01*
X70507591Y-75402195D01*
X70604949Y-75232719D01*
X70705851Y-75057346D01*
X70809080Y-74878189D01*
X70913415Y-74697359D01*
X71017639Y-74516965D01*
X71120531Y-74339125D01*
X71220874Y-74165944D01*
X71317449Y-73999536D01*
X71409036Y-73842016D01*
X71419247Y-73824492D01*
X72238200Y-73824492D01*
X72253398Y-73825020D01*
X72297830Y-73825528D01*
X72369474Y-73826010D01*
X72466300Y-73826461D01*
X72586284Y-73826877D01*
X72727398Y-73827252D01*
X72887618Y-73827583D01*
X73014876Y-73827785D01*
X73064918Y-73827865D01*
X73257269Y-73828091D01*
X73462648Y-73828260D01*
X73679028Y-73828364D01*
X73903185Y-73828399D01*
X74387921Y-73828399D01*
X75568863Y-73828399D01*
X75533722Y-73765876D01*
X75498583Y-73703353D01*
X73903215Y-73703506D01*
X72307847Y-73703659D01*
X72273369Y-73762122D01*
X72252237Y-73798524D01*
X72239655Y-73821291D01*
X72238200Y-73824492D01*
X71419247Y-73824492D01*
X71494416Y-73695491D01*
X71572371Y-73562075D01*
X71641682Y-73443879D01*
X71701131Y-73343016D01*
X71749497Y-73261596D01*
X71785563Y-73201731D01*
X71808108Y-73165534D01*
X71814462Y-73156276D01*
X71851416Y-73120197D01*
X71881479Y-73097948D01*
X71904631Y-73080815D01*
X71955129Y-73050769D01*
X72052670Y-72999969D01*
X73899643Y-72999982D01*
G37*
%TD*%
M02*
